<svg class="animated" id="freepik_stories-festivities" xmlns="http://www.w3.org/2000/svg" viewBox="0 0 500 500" version="1.1" xmlns:xlink="http://www.w3.org/1999/xlink" xmlns:svgjs="http://svgjs.com/svgjs"><style>svg#freepik_stories-festivities:not(.animated) .animable {opacity: 0;}svg#freepik_stories-festivities.animated #freepik--Confetti--inject-14 {animation: 1.5s Infinite  linear wind;animation-delay: -0.5s;}svg#freepik_stories-festivities.animated #freepik--Fireworks--inject-14 {animation: 0.9s 1 forwards ease-in slideUp,1.5s Infinite  linear floating;animation-delay: 0s,0.4s;}            @keyframes wind {                0% {                    transform: rotate( 0deg );                }                25% {                    transform: rotate( 1deg );                }                75% {                    transform: rotate( -1deg );                }            }                    @keyframes slideUp {                0% {                    opacity: 0;                    transform: translateY(30px);                }                100% {                    opacity: 1;                    transform: inherit;                }            }                    @keyframes floating {                0% {                    opacity: 1;                    transform: translateY(0px);                }                50% {                    transform: translateY(-10px);                }                100% {                    opacity: 1;                    transform: translateY(0px);                }            }        </style><g id="freepik--Shadow--inject-14" class="animable" style="transform-origin: 250px 415.69px;"><ellipse id="freepik--path--inject-14" cx="250" cy="415.69" rx="193.89" ry="11.32" style="fill: rgb(245, 245, 245); transform-origin: 250px 415.69px;" class="animable"></ellipse></g><g id="freepik--character-3--inject-14" class="animable" style="transform-origin: 359.973px 309.179px;"><polygon points="351.42 252.22 346.57 257.56 344.21 255.89 343.28 255.23 339.79 252.77 338.87 252.12 335.39 249.67 334.45 249 327.91 244.4 336.52 234.92 337.82 236.44 338.67 237.42 341.86 241.12 342.72 242.11 342.72 242.12 345.88 245.78 346.72 246.76 351.42 252.22" style="fill: rgb(228, 92, 58); transform-origin: 339.665px 246.24px;" id="el92lw010xbvc" class="animable"></polygon><g id="eldcum2tynyqr"><g style="opacity: 0.5; transform-origin: 336.56px 243.045px;" class="animable"><path d="M335.39,249.67c1.1-4,2.45-9,3.28-12.25l-.85-1c-.71,2.85-2.05,7.78-3.37,12.56Z" style="fill: rgb(255, 255, 255); transform-origin: 336.56px 243.045px;" id="el899ky8mvnsi" class="animable"></path></g></g><g id="el2eo5kx4fbwh"><g style="opacity: 0.5; transform-origin: 340.8px 246.945px;" class="animable"><path d="M338.87,252.12c1-3.72,2.13-7.76,3-11l.86,1h0c-1,3.53-2.09,7.66-2.93,10.65Z" style="fill: rgb(255, 255, 255); transform-origin: 340.8px 246.945px;" id="elcmz4qntb8rl" class="animable"></path></g></g><g id="el5muds0tykux"><g style="opacity: 0.5; transform-origin: 345px 250.835px;" class="animable"><path d="M346.72,246.76c-1,3.53-1.93,7.06-2.51,9.13l-.93-.66c.82-3,1.75-6.36,2.59-9.45Z" style="fill: rgb(255, 255, 255); transform-origin: 345px 250.835px;" id="elr512w2nfp48" class="animable"></path></g></g><path d="M377,267.9c-8.94-1.77-22-8.38-26.53-11.13l.51-.85c4.52,2.71,17.4,9.25,26.22,11Z" style="fill: rgb(38, 50, 56); transform-origin: 363.835px 261.91px;" id="elohvyxpawnu" class="animable"></path><path d="M406,238.73l1.1,1.05c.51.32,9.1,22.79,9.28,23.35a9.69,9.69,0,0,1,.24,1.28,7.69,7.69,0,0,1,0,.83,4.71,4.71,0,0,1-2.37,3.6,5.84,5.84,0,0,1-1.8.76c-.79.19-21.33-1.35-25.48-3l-.07-4.14c4.24.73,18,.1,20,.18a18,18,0,0,0,2.75,0,2.64,2.64,0,0,0,.79-.16s0,0-.3.13a2.12,2.12,0,0,0-.53.46,2.7,2.7,0,0,0-.53,1,2.29,2.29,0,0,0-.11.52,2.16,2.16,0,0,0,0,.44,1,1,0,0,0,.08.29l0,.17,0,.14-.89-1.22c-.57-.84-6.1-16.8-6.5-17.06l-.59-.37-.51-.3S405.72,238.57,406,238.73Z" style="fill: rgb(181, 91, 82); transform-origin: 401.766px 254.172px;" id="elntzgwb3b0d7" class="animable"></path><path d="M388.15,262.58l-5.53-.81a3,3,0,0,0-2.44.74l-2.17,2a3,3,0,0,0-.9,2.94h0a3,3,0,0,0,3.15,2.26l4-.32,4-2.83Z" style="fill: rgb(181, 91, 82); transform-origin: 382.642px 265.729px;" id="eltf74tsj7cib" class="animable"></path><path d="M407,239.4c3.27,2.19,6.71,13.74,6.71,13.74l-12.1,4.51c-2.55-3.09-6.22-11.2-5.64-16.81C396.17,238.72,402,236.07,407,239.4Z" style="fill: rgb(228, 92, 58); transform-origin: 404.809px 247.736px;" id="elh6bjthf7pre" class="animable"></path><g id="freepik--Character--inject-68--inject-14" class="animable" style="transform-origin: 359.973px 309.179px;"><path d="M366.45,406.71a1,1,0,0,1,0-.88.52.52,0,0,1,.42-.31c.94-.14,3.08,2.26,3.31,2.53a.17.17,0,0,1,0,.2.16.16,0,0,1-.17.08,12.43,12.43,0,0,1-2.17-.59A2.75,2.75,0,0,1,366.45,406.71Zm3.13,1.2c-.89-1-2.17-2.12-2.7-2.07a.21.21,0,0,0-.16.13.6.6,0,0,0,0,.58c.27.52,1.32,1,2.86,1.35Z" style="fill: rgb(228, 92, 58); transform-origin: 368.28px 406.923px;" id="elq3ntwi28cqg" class="animable"></path><path d="M369.91,408.32c-.65-.67-1.68-2.74-1.28-3.43.1-.16.31-.33.75-.2l.14,0c1.46.59.7,3.39.68,3.52a.15.15,0,0,1-.12.11.12.12,0,0,1-.1,0Zm-.58-3.33c-.29-.08-.37.05-.37.05-.28.42.39,2,1,2.77.14-.71.38-2.42-.57-2.8Z" style="fill: rgb(228, 92, 58); transform-origin: 369.478px 406.487px;" id="el61jk8slx1r9" class="animable"></path><polygon points="376.15 392.68 368.96 391.93 370.15 408.13 377.34 408.88 376.15 392.68" style="fill: rgb(181, 91, 82); transform-origin: 373.15px 400.405px;" id="elkmh5wffdth" class="animable"></polygon><path d="M368.71,407.23c-2.07,1.21-2.88,2.73-8.51,2.9-1.25,0-1.54,3,1.38,3.5s5.73.84,7.84,1.23c3.44.64,4.72,1.05,7.44,1.6l.16,0a1.1,1.1,0,0,0,1.14-1.05l0-6.39a.58.58,0,0,0-.48-.58l-7.8-1.45A1.82,1.82,0,0,0,368.71,407.23Z" style="fill: rgb(38, 50, 56); transform-origin: 368.729px 411.717px;" id="ell3exp02h72b" class="animable"></path><g id="elmake1ynimel"><polygon points="376.15 392.68 376.77 401.05 369.62 400.94 368.96 391.93 376.15 392.68" style="opacity: 0.2; isolation: isolate; transform-origin: 372.865px 396.49px;" class="animable"></polygon></g><path d="M378.11,398.66l-10-.52S359,369.36,357.21,346c-.47-6.15,1.42-14.63,4.3-23.47h0a263.93,263.93,0,0,1,11-27.4c4.2-9.1,7.61-15.53,7.61-15.53s8,.1,15.56.62c9.71,32.61-23.94,40.51-23.2,65.34C373.12,368.37,378.11,398.66,378.11,398.66Z" style="fill: rgb(228, 92, 58); transform-origin: 377.29px 339.13px;" id="elpi20hvrilc" class="animable"></path><g id="ellgpx1or4acn"><path d="M378.11,398.66l-10-.52S359,369.36,357.21,346c-.47-6.15,1.42-14.63,4.3-23.47h0a263.93,263.93,0,0,1,11-27.4c4.2-9.1,7.61-15.53,7.61-15.53s8,.1,15.56.62c9.71,32.61-23.94,40.51-23.2,65.34C373.12,368.37,378.11,398.66,378.11,398.66Z" style="fill: rgb(255, 255, 255); opacity: 0.3; transform-origin: 377.29px 339.13px;" class="animable"></path></g><polygon points="366.09 393.88 379.06 395.59 378.99 399.05 366.99 398.72 366.09 393.88" style="fill: rgb(228, 92, 58); transform-origin: 372.575px 396.465px;" id="elyjk0b5kmd9" class="animable"></polygon><path d="M383.64,213.58c-.39-.05-.76.37-.82.94s.14,1,.53,1.1.74-.38.82-1S384,213.64,383.64,213.58Z" style="fill: rgb(38, 50, 56); transform-origin: 383.497px 214.605px;" id="elj0mqxft34sc" class="animable"></path><path d="M382.38,213.26l1.42.14C383.25,214.19,382.38,213.26,382.38,213.26Z" style="fill: rgb(38, 50, 56); transform-origin: 383.09px 213.489px;" id="elx2iaipe19f" class="animable"></path><path d="M383.13,219.19a2.45,2.45,0,0,1-2-.68,15.74,15.74,0,0,0,2.67-3.25Z" style="fill: rgb(160, 39, 36); transform-origin: 382.465px 217.234px;" id="elvc434v9pre" class="animable"></path><path d="M383.69,210.57a.34.34,0,0,1,.28-.38,3.4,3.4,0,0,1,3,.78.34.34,0,0,1-.47.47,2.78,2.78,0,0,0-2.4-.59.29.29,0,0,1-.16,0A.32.32,0,0,1,383.69,210.57Z" style="fill: rgb(38, 50, 56); transform-origin: 385.356px 210.802px;" id="el6zhfeko54rq" class="animable"></path><path d="M390.62,227.19c.12,3.32-.48,6.72-5.34,6.95,0,0-5.3,3.31,3.17,4.88,7.73,1.44,11.42-2.06,11.42-2.06-2.31-3.26-1.49-10.34.19-14.27Z" style="fill: rgb(181, 91, 82); transform-origin: 391.851px 231.029px;" id="elwq747lkchta" class="animable"></path><g id="elpx549y8uqs"><path d="M373.67,238.7c-.57,2.66-1.31,6.52-2.17,11.91a16,16,0,0,0,4.25-2.73C380.17,244,377.05,239.72,373.67,238.7Z" style="opacity: 0.2; isolation: isolate; transform-origin: 374.716px 244.655px;" class="animable"></path></g><path d="M403.26,210.61a9.36,9.36,0,0,0-11.66-6.25c-7.23,2-9.63,12.11-9,18.47.7,7.07,8.9,10,15,5.33,4-3.14,4.46-6,5.87-12.89A9.44,9.44,0,0,0,403.26,210.61Z" style="fill: rgb(181, 91, 82); transform-origin: 393.085px 217.193px;" id="el3qha14n9so9" class="animable"></path><path d="M373.79,238.11c-1.19,5.45-1.81,15.93-5.38,36.13l27.78,7.82c2.71-10.19,3.91-17.87,12.57-35.47a2.41,2.41,0,0,0,.15-.33,6.44,6.44,0,0,0-3.4-8.45,63.15,63.15,0,0,0-26.07-4.49A6.06,6.06,0,0,0,373.79,238.11Z" style="fill: rgb(228, 92, 58); transform-origin: 388.918px 257.664px;" id="elrfi854js26f" class="animable"></path><path d="M388.83,214.48c-1.72.89-2.37,3.34-2.28,4.74.09,1.56,1.45,2.23,2.92.79a7.2,7.2,0,0,0,2.06-3.8C391.77,214.58,390.55,213.58,388.83,214.48Z" style="fill: rgb(181, 91, 82); transform-origin: 389.051px 217.473px;" id="elfiyv7c6h3v" class="animable"></path><g id="elj3zbvia23kg"><path d="M358,336.13c1.47-4.92,2.6-9.44,3.55-13.56h0a263.93,263.93,0,0,1,11-27.4h0l.23,0c1.14,0,2,.84,2.57,2.87C382.28,306.74,366,325.6,358,336.13Z" style="opacity: 0.2; isolation: isolate; transform-origin: 367.513px 315.65px;" class="animable"></path></g><path d="M311.26,386.73a1,1,0,0,1,0-.87.55.55,0,0,1,.41-.33c1-.16,3.15,2.18,3.4,2.45a.17.17,0,0,1-.15.28,12.49,12.49,0,0,1-2.17-.53A2.71,2.71,0,0,1,311.26,386.73Zm.42-.84a.19.19,0,0,0-.15.12.62.62,0,0,0,0,.58c.29.5,1.36,1,2.91,1.25C313.54,386.92,312.22,385.78,311.68,385.89Z" style="fill: rgb(228, 92, 58); transform-origin: 313.136px 386.892px;" id="eljxzakjnj9ep" class="animable"></path><path d="M314.81,388.2c-.67-.66-1.75-2.68-1.36-3.39.09-.16.3-.33.74-.22l.13.06c1.48.55.81,3.37.76,3.49a.2.2,0,0,1-.12.12h-.1Zm-.71-3.27c-.3-.08-.36.06-.36.06-.24.42.44,1.95,1.08,2.74.11-.72.33-2.43-.63-2.77Z" style="fill: rgb(228, 92, 58); transform-origin: 314.321px 386.407px;" id="elhzsdzdw4o96" class="animable"></path><polygon points="325.32 375.51 318.94 372.75 315.4 389.37 321.77 392.12 325.32 375.51" style="fill: rgb(181, 91, 82); transform-origin: 320.36px 382.435px;" id="el97ekyppqp84" class="animable"></polygon><path d="M314,387.62c-2.3.73-4.91,1.4-10.44.32-1.23-.24-2.18,2.55.55,3.72s6.89,2.71,8.87,3.56c3.21,1.37,4.37,2,6.9,3.18l.16.06a1.08,1.08,0,0,0,1.34-.78l1.5-6.19a.58.58,0,0,0-.34-.67l-7.3-3.13A1.82,1.82,0,0,0,314,387.62Z" style="fill: rgb(38, 50, 56); transform-origin: 312.621px 393.022px;" id="el3e81aceblsj" class="animable"></path><g id="el9j6lgm178m5"><polygon points="325.32 375.52 323.49 384.09 316.97 381.99 318.95 372.76 325.32 375.52" style="opacity: 0.2; isolation: isolate; transform-origin: 321.145px 378.425px;" class="animable"></polygon></g><path d="M389.13,280.18c-6.25,32.92-44.63,29.65-51.24,52.64-6.06,21.08-13.08,49.6-13.08,49.6l-9.73-3.31s3.92-29,8.78-50.74c4.67-20.94,44.94-53.95,44.94-53.95S381.6,277.89,389.13,280.18Z" style="fill: rgb(228, 92, 58); transform-origin: 352.105px 328.42px;" id="el46ssvt2kwso" class="animable"></path><g id="eldrbvvyvsnsp"><path d="M389.13,280.18c-6.25,32.92-44.63,29.65-51.24,52.64-6.06,21.08-13.08,49.6-13.08,49.6l-9.73-3.31s3.92-29,8.78-50.74c4.67-20.94,44.94-53.95,44.94-53.95S381.6,277.89,389.13,280.18Z" style="fill: rgb(255, 255, 255); opacity: 0.3; transform-origin: 352.105px 328.42px;" class="animable"></path></g><polygon points="314.51 374.31 327.3 379.84 325.86 382.95 313.53 378.97 314.51 374.31" style="fill: rgb(228, 92, 58); transform-origin: 320.415px 378.63px;" id="el3ad0hv961ir" class="animable"></polygon><path d="M396.84,280.23l-28.28-7.9c-.28-.08-.57,0-.64.14l-1,2.27c-.06.14.09.28.33.38l29.29,8.19c.32.09.65,0,.65-.22v-2.53A.43.43,0,0,0,396.84,280.23Z" style="fill: rgb(255, 255, 255); transform-origin: 382.048px 277.821px;" id="el4x864himtka" class="animable"></path><path d="M396.84,280.23l-28.28-7.9c-.28-.08-.57,0-.64.14l-1,2.27c-.06.14.09.28.33.38l29.29,8.19c.32.09.65,0,.65-.22v-2.53A.43.43,0,0,0,396.84,280.23Z" style="fill: rgb(38, 50, 56); transform-origin: 382.048px 277.821px;" id="elx5wty6zry1g" class="animable"></path><path d="M402.29,203.64c-4.09-.9-3.26,1.17-5.19,0-5.1-3.11-8.25-1.82-10.48,2-2.34,4-.65,5.41-2.59,10.87a3.44,3.44,0,0,0,.29,2.47,2.07,2.07,0,0,0,2,1.32c-.62,2.79.89,6.14,3.6,7.06,3.33,1.12-.81,3.45,2.44,6.36a5.37,5.37,0,0,0,5.84.57c3.17,4.54,11.26,4.74,15.36,1,4.5-4.11-.83-4.79-.81-5.36,2.26.29,5.49-1.08,4.74-3.75s-4.88-1.88-6.34-2.31a5.77,5.77,0,0,0,4.5-1.12,3.29,3.29,0,0,0,1.19-1.57c.78-2.42-2.72-1.63-5.11-3.64C407.5,214,410.72,205.48,402.29,203.64Z" style="fill: rgb(38, 50, 56); transform-origin: 400.761px 219.905px;" id="elczgn7vv10fg" class="animable"></path></g><path d="M377.68,234.46,351.3,256.78c1.26,2.49,4.83,4.74,7.17,3.22,7-4.54,19.77-12.89,23-17.7C385.88,235.68,377.68,234.46,377.68,234.46Z" style="fill: rgb(181, 91, 82); transform-origin: 367.036px 247.477px;" id="elpfnw95nssl" class="animable"></path><path d="M358,251.39c-3.4.47-3.87.38-6.45.7-.78.1-1.36.9-1.67,1.62-2.06,4.8,1.37,4.43,5.13,6.74,1.36.84,4.15-.08,5.11-2.21S360.56,252.33,358,251.39Z" style="fill: rgb(181, 91, 82); transform-origin: 354.915px 256.074px;" id="el72n76wq7g7v" class="animable"></path><path d="M351.69,252.51l-5.49-1.08a3,3,0,0,0-2.47.62l-2.26,1.84a3,3,0,0,0-1.05,2.9h0a3,3,0,0,0,3,2.42l3-.1,5.14-1.41Z" style="fill: rgb(181, 91, 82); transform-origin: 346.027px 255.293px;" id="elp2gu7cdnjog" class="animable"></path><g id="elsm2ojqc6hc9"><path d="M374.52,248.65a6.74,6.74,0,0,0-2.78,6.22,2.77,2.77,0,0,0,.56,2.15c.79.74,2.1.31,3-.3a15.55,15.55,0,0,0,5.38-6.85c.43-1,3.29-7.75,1.24-7.91-.89-.07-2.91,2.5-3.57,3.11Z" style="opacity: 0.2; isolation: isolate; transform-origin: 377.176px 249.685px;" class="animable"></path></g><path d="M383.05,243.65c-1.08,3.78-8.2,10.1-8.2,10.1l-8-10.15c2.16-3.37,5.92-8.85,11.45-10C380.42,233.17,384.71,237.91,383.05,243.65Z" style="fill: rgb(228, 92, 58); transform-origin: 375.137px 243.661px;" id="elw07lxved1k" class="animable"></path></g><g id="freepik--character-2--inject-14" class="animable" style="transform-origin: 247.351px 289.745px;"><g id="freepik--character-2--inject-18--inject-14" class="animable" style="transform-origin: 243.539px 241.527px;"><path d="M239.31,245.92l-.95.17-.89.13c-.57.08-1.14.14-1.7.2-1.15.1-2.27.17-3.41.22a47.46,47.46,0,0,1-6.85-.28,38.58,38.58,0,0,1-6.89-1.38,30.38,30.38,0,0,1-6.69-2.86l-.3-.18a3.58,3.58,0,0,1-1.44-1.52,46.34,46.34,0,0,1-2.29-5.67c-.64-1.82-1.19-3.65-1.73-5.46-1-3.66-2-7.3-2.68-11a2.42,2.42,0,0,1,4.53-1.58h0c1.75,3.31,3.34,6.66,5,10l2.4,4.94c.41.81.81,1.6,1.22,2.38l.62,1.11c.21.35.39.66.6,1l-1.75-1.7a29.88,29.88,0,0,0,10.33,2.38,50.39,50.39,0,0,0,5.63.07c.95,0,1.89-.08,2.8-.16l1.4-.14.68-.08.59-.08.3,0a4.84,4.84,0,1,1,1.47,9.57h0Z" style="fill: rgb(255, 136, 123); transform-origin: 223.43px 231.023px;" id="el4ncitp1d6gf" class="animable"></path><path d="M208.42,220.59l1.48-5.06-7.06-1s-1,4,1.82,6.73Z" style="fill: rgb(255, 136, 123); transform-origin: 206.284px 217.895px;" id="elx17w5aqw9z" class="animable"></path><path d="M206.75,210.7l-2.05.27a2.08,2.08,0,0,0-1.8,2l-.05,1.6,7.06,1-.9-3.31A2,2,0,0,0,206.75,210.7Z" style="fill: rgb(255, 136, 123); transform-origin: 206.38px 213.123px;" id="ellwf7x7vfic" class="animable"></path><path d="M235.27,243.43c1.72,5.82,6.23,17.4,18.14,37.38,8,1,25.18-9,31-14.41-1.84-4.47-6.71-18.91-16.34-37.41a5.88,5.88,0,0,0-7.23-4.12l-.21.07c-1.62.52-3.36,1.13-5.05,1.81a128.23,128.23,0,0,0-13.19,6.13c-1.6,1-3.16,2-4.45,2.9A7,7,0,0,0,235.27,243.43Z" style="fill: rgb(228, 92, 58); transform-origin: 259.702px 252.77px;" id="elgpy539zuopg" class="animable"></path><path d="M248.24,217.83c1.52,4.22,3.94,8.83,7.22,9.78-2,3.52-3.39,9.14-5.75,13a3.25,3.25,0,0,1-4.88.83c-3-2.66-3.26-7.1-3.26-7.1,3.25-3.65,1.86-6.65-.59-9.5l4.15-7.48C245.77,216,247.69,216.29,248.24,217.83Z" style="fill: rgb(255, 136, 123); transform-origin: 248.22px 229.344px;" id="elztum85dgiy" class="animable"></path><g id="el6x7pmm0c1nq"><path d="M248.24,217.83c-.57-1.58-2.47-1.82-3.11-.46l-4.16,7.5a9.58,9.58,0,0,1,2.42,4.32,9.39,9.39,0,0,0,3.81-2.3,9.71,9.71,0,0,0,2.77-5A36.24,36.24,0,0,1,248.24,217.83Z" style="opacity: 0.2; isolation: isolate; transform-origin: 245.47px 222.836px;" class="animable"></path></g><path d="M250,208.35c1.77,6.12,3.11,9.63.81,13.92-3.45,6.47-12.74,6.75-16.52,1.31-3.39-4.86-5.67-14.08.07-18.84S248.24,202.22,250,208.35Z" style="fill: rgb(255, 136, 123); transform-origin: 241.442px 214.792px;" id="elxvaj4gj3vg" class="animable"></path><path d="M239,212.62c.08.55-.15,1-.52,1.1s-.72-.36-.8-.92.15-1.05.51-1.1S239,212.06,239,212.62Z" style="fill: rgb(38, 50, 56); transform-origin: 238.34px 212.715px;" id="elsv8man71vji" class="animable"></path><path d="M233.23,214.77c.08.56-.14,1-.5,1.11s-.73-.36-.81-.92.14-1.06.51-1.1S233.17,214.23,233.23,214.77Z" style="fill: rgb(38, 50, 56); transform-origin: 232.575px 214.877px;" id="elwroz5orv6md" class="animable"></path><path d="M240.73,210.11a.31.31,0,0,1-.33-.08,2.61,2.61,0,0,0-2.26-.79.32.32,0,0,1-.39-.25h0a.33.33,0,0,1,.25-.4h0a3.29,3.29,0,0,1,2.86,1,.34.34,0,0,1,0,.47Z" style="fill: rgb(38, 50, 56); transform-origin: 239.348px 209.342px;" id="el2asg22f8qkn" class="animable"></path><path d="M230.24,212.82a.34.34,0,0,1-.42-.42,3.32,3.32,0,0,1,2.06-2.21.33.33,0,0,1,.41.23h0a.31.31,0,0,1-.23.4h0a2.62,2.62,0,0,0-1.62,1.75A.36.36,0,0,1,230.24,212.82Z" style="fill: rgb(38, 50, 56); transform-origin: 231.056px 211.505px;" id="el7k1471e46p4" class="animable"></path><path d="M234.76,215a17.08,17.08,0,0,1-1.41,4.52,2.84,2.84,0,0,0,2.35,0Z" style="fill: rgb(255, 86, 82); transform-origin: 234.525px 217.387px;" id="elckqfgzal6ud" class="animable"></path><g id="elmo3uhjp6tt"><path d="M245.55,207.49l3.4,8.43a17.1,17.1,0,0,1,2-5.42,16.3,16.3,0,0,1-1.68-3.85C248.05,207,246.8,207.18,245.55,207.49Z" style="opacity: 0.2; isolation: isolate; transform-origin: 248.25px 211.285px;" class="animable"></path></g><path d="M253,212.35a5.21,5.21,0,0,1-2.12,3.16c-1.39.89-2.4-.48-2.33-2.26.08-1.6.88-4,2.41-4.12S253.33,210.69,253,212.35Z" style="fill: rgb(255, 136, 123); transform-origin: 250.809px 212.456px;" id="elt5drcrtrc5" class="animable"></path><path d="M235.37,221.66a52,52,0,0,1,7.71-4.35c.06,1.95-.62,3.89-3.62,5.34S235.37,221.66,235.37,221.66Z" style="fill: rgb(38, 50, 56); transform-origin: 239.227px 220.21px;" id="el5y9c1in0twb" class="animable"></path><path d="M240.27,220.7a6.63,6.63,0,0,0-2.9,2.39,3.8,3.8,0,0,0,2.09-.44,6.65,6.65,0,0,0,2.89-2.38A3.76,3.76,0,0,0,240.27,220.7Z" style="fill: rgb(255, 86, 82); transform-origin: 239.86px 221.679px;" id="el07wcq2qyeph" class="animable"></path><path d="M235.62,221.48a1.25,1.25,0,0,0,1.28.35,38.25,38.25,0,0,0,5-3,1.89,1.89,0,0,0,.95-1.44A60.52,60.52,0,0,0,235.62,221.48Z" style="fill: rgb(250, 250, 250); transform-origin: 239.235px 219.637px;" id="elts1x8t8ku9" class="animable"></path><g id="elleoedo5h00k"><path d="M263.07,274.08c.2.33.51.51.76.38a.63.63,0,0,0,.14-.85c-.17-.35-.51-.52-.76-.39A.63.63,0,0,0,263.07,274.08Z" style="opacity: 0.2; isolation: isolate; transform-origin: 263.518px 273.839px;" class="animable"></path></g></g><path d="M253.41,280.81l.77,7.95,16.14,16.74s17.62-21.89,20.74-24.22l-7.25-16.22S261.54,271.43,253.41,280.81Z" style="fill: rgb(228, 92, 58); transform-origin: 272.235px 285.28px;" id="elcv232swq9ds" class="animable"></path><g id="elkytjlyx7n39"><path d="M291.07,281.28c-3.14,2.33-20.75,24.22-20.75,24.22l-16.13-16.73-.46-4.62,3.24-2.07c6.94-4.81,24.24-10.94,28.86-12.54Z" style="fill: rgb(255, 255, 255); opacity: 0.3; transform-origin: 272.4px 287.52px;" class="animable"></path></g><path d="M258.17,286.94S218.41,303.05,221,315.36s23.83,43.58,30.16,54.71l8.79-4.34s-12.72-35.26-20.13-47c0,0,57.51-14,44.52-39.57Z" style="fill: rgb(228, 92, 58); transform-origin: 253.565px 324.615px;" id="elb1rhitt706f" class="animable"></path><g id="el27uka79v6k7"><path d="M258.17,286.94S218.41,303.05,221,315.36s23.83,43.58,30.16,54.71l8.79-4.34s-12.72-35.26-20.13-47c0,0,57.51-14,44.52-39.57Z" style="fill: rgb(255, 255, 255); opacity: 0.2; transform-origin: 253.565px 324.615px;" class="animable"></path></g><polygon points="258 365.38 262.63 376.33 256.68 378.31 251.96 368.6 258 365.38" style="fill: rgb(255, 181, 115); transform-origin: 257.295px 371.845px;" id="elfu7rjf6zaq" class="animable"></polygon><path d="M253.38,379.82a3.1,3.1,0,0,1-2.2,0,.65.65,0,0,1-.18-.72.9.9,0,0,1,.42-.53c1.08-.64,3.89.09,4,.12a.18.18,0,0,1,.13.16.17.17,0,0,1-.1.17A11.8,11.8,0,0,1,253.38,379.82Zm-1.48-1.05a1,1,0,0,0-.3.12.47.47,0,0,0-.26.32c-.07.24,0,.33.06.37.45.37,2.21-.1,3.47-.61A8,8,0,0,0,251.9,378.77Z" style="fill: rgb(228, 92, 58); transform-origin: 253.254px 379.165px;" id="elt3c1ggjjgfq" class="animable"></path><path d="M255.44,379.05a.09.09,0,0,1-.07,0c-.94-.14-3-1.2-3.09-2,0-.2,0-.47.49-.64a1.26,1.26,0,0,1,1,0c1.09.49,1.79,2.32,1.82,2.4a.17.17,0,0,1,0,.17A.15.15,0,0,1,255.44,379.05ZM253,376.69h-.09c-.3.11-.28.23-.28.28.08.49,1.5,1.37,2.51,1.65a4.07,4.07,0,0,0-1.51-1.89.91.91,0,0,0-.63-.05Z" style="fill: rgb(228, 92, 58); transform-origin: 253.946px 377.682px;" id="elaqzfgdljes" class="animable"></path><path d="M255.91,377.88l7.62-2.07a.63.63,0,0,1,.73.32l3.06,5.82a1.05,1.05,0,0,1-.43,1.43l-.21.09c-2.76.7-5.24,1.21-8.66,2.14-4,1.1-2.89,1.3-7.61,2.66-2.85.81-4.26-2.3-3.09-2.79,5.36-2.2,5.48-4,7.09-6.6A2.47,2.47,0,0,1,255.91,377.88Z" style="fill: rgb(38, 50, 56); transform-origin: 257.178px 382.095px;" id="el3a37bx0jujj" class="animable"></path><g id="el7ql1p6n6l3s"><path d="M255.91,377.88l7.62-2.07a.63.63,0,0,1,.73.32l3.06,5.82a1.05,1.05,0,0,1-.43,1.43l-.21.09c-2.76.7-5.24,1.21-8.66,2.14-4,1.1-2.89,1.3-7.61,2.66-2.85.81-4.26-2.3-3.09-2.79,5.36-2.2,5.48-4,7.09-6.6A2.47,2.47,0,0,1,255.91,377.88Z" style="opacity: 0.1; transform-origin: 257.178px 382.095px;" class="animable"></path></g><g id="ely1hlhuwig2h"><polygon points="258.73 367.1 260.46 371.2 254.5 373.82 252.93 370.6 258.73 367.1" style="opacity: 0.2; transform-origin: 256.695px 370.46px;" class="animable"></polygon></g><polygon points="260.9 362.47 262.72 366.95 251.26 373.26 248.24 369.23 260.9 362.47" style="fill: rgb(228, 92, 58); transform-origin: 255.48px 367.865px;" id="elv2m2btoymji" class="animable"></polygon><path d="M286,273c-3.91,1.88-31.52,14.55-41,28-9.94,14.1-4.68,20.2,1.22,34.69s14,40.54,14,40.54l9.18-2.55s-2-32.8-10.67-57.36C258.84,316.32,309,301.23,286,273Z" style="fill: rgb(228, 92, 58); transform-origin: 265.734px 324.615px;" id="elgseyymg5c58" class="animable"></path><g id="el41oa5odejjj"><path d="M286,273c-3.91,1.88-31.52,14.55-41,28-9.94,14.1-4.68,20.2,1.22,34.69s14,40.54,14,40.54l9.18-2.55s-2-32.8-10.67-57.36C258.84,316.32,309,301.23,286,273Z" style="fill: rgb(255, 255, 255); opacity: 0.3; transform-origin: 265.734px 324.615px;" class="animable"></path></g><polygon points="268.17 372.13 269.58 384.66 262.94 384.89 261.05 373.6 268.17 372.13" style="fill: rgb(255, 181, 115); transform-origin: 265.315px 378.51px;" id="el47jg7i0fc1g" class="animable"></polygon><path d="M260.38,387.45a3.25,3.25,0,0,1-2.19.8.66.66,0,0,1-.43-.65.93.93,0,0,1,.22-.68c.86-1,3.93-1.29,4.07-1.3a.2.2,0,0,1,.18.11.18.18,0,0,1,0,.2A13.13,13.13,0,0,1,260.38,387.45Zm-1.85-.53a1,1,0,0,0-.26.23.49.49,0,0,0-.15.41c0,.27.12.33.2.35.57.21,2.17-.88,3.25-1.84A8.47,8.47,0,0,0,258.53,386.92Z" style="fill: rgb(228, 92, 58); transform-origin: 260.009px 386.935px;" id="el30e1931o8fm" class="animable"></path><path d="M262.17,386l-.07,0c-1,.18-3.45-.13-3.81-.94-.1-.18-.12-.48.27-.8a1.33,1.33,0,0,1,1-.32c1.26.1,2.6,1.69,2.67,1.76a.17.17,0,0,1,0,.18A.14.14,0,0,1,262.17,386Zm-3.32-1.49-.09.05c-.25.21-.19.33-.18.38.26.45,2,.83,3.1.76a4.25,4.25,0,0,0-2.18-1.36,1,1,0,0,0-.65.17Z" style="fill: rgb(228, 92, 58); transform-origin: 260.242px 384.992px;" id="elzoj9mslg4td" class="animable"></path><path d="M262.22,384.6l6.9-4.77a.68.68,0,0,1,.84.06l5.13,4.75a1.12,1.12,0,0,1,.07,1.58,1.37,1.37,0,0,1-.18.16c-2.51,1.68-4.82,3.07-7.91,5.21-3.65,2.53-2.42,2.33-6.67,5.36-2.56,1.82-5.07-.79-4.07-1.69,4.58-4.11,4.05-6,4.74-9.12A2.82,2.82,0,0,1,262.22,384.6Z" style="fill: rgb(38, 50, 56); transform-origin: 265.779px 388.646px;" id="elqqg9ie4ish" class="animable"></path><g id="eljdyg6jfp6ij"><polygon points="268.39 374.1 268.92 378.8 262.06 379.67 261.44 375.92 268.39 374.1" style="opacity: 0.2; transform-origin: 265.18px 376.885px;" class="animable"></polygon></g><polygon points="271.91 371.25 272.18 376.08 259.29 378.31 257.75 373.52 271.91 371.25" style="fill: rgb(228, 92, 58); transform-origin: 264.965px 374.78px;" id="elf5vjleqwxc5" class="animable"></polygon><path d="M261.88,224.88l1.1-1,1.14-1c.77-.7,1.51-1.41,2.25-2.15,1.49-1.45,2.95-3,4.33-4.45s2.71-3,3.94-4.66a50.48,50.48,0,0,0,3.32-4.88l-.18.39a13.56,13.56,0,0,0,1-3.15c.29-1.25.51-2.63.7-4s.38-2.79.56-4.21.33-2.87.52-4.27l0-.08a2.48,2.48,0,0,1,4.78-.26,44.9,44.9,0,0,1,.89,4.48c.24,1.5.4,3,.52,4.57a41.83,41.83,0,0,1,.07,4.75,19.4,19.4,0,0,1-.91,5.4l-.05.14-.13.25a49,49,0,0,1-3.57,6.26,65.83,65.83,0,0,1-4.24,5.6c-1.49,1.78-3.06,3.47-4.68,5.09-.82.81-1.66,1.59-2.51,2.37s-1.68,1.52-2.69,2.33a4.84,4.84,0,0,1-6.29-7.36h0Z" style="fill: rgb(255, 136, 123); transform-origin: 273.458px 211.507px;" id="elcqz51jau0h4" class="animable"></path><path d="M280.82,192.15l-2.14-4.8,6.86-1.95s1.54,3.83-.93,6.88Z" style="fill: rgb(255, 136, 123); transform-origin: 282.347px 188.84px;" id="el0qgcwrcakc7f" class="animable"></path><path d="M281,181.92l2.36.11a2.07,2.07,0,0,1,1.94,1.71l.29,1.66-6.86,1.95.11-3.44a2.07,2.07,0,0,1,2.14-2Z" style="fill: rgb(255, 136, 123); transform-origin: 282.16px 184.629px;" id="elx0f7hq9mzv" class="animable"></path><path d="M241.8,205a4.94,4.94,0,0,0,1.23,2.87c1.51,1.64,3.79.13,5.92-.54a1.26,1.26,0,0,0,.61-.33c.34-.41,0-1-.26-1.46a9.9,9.9,0,0,0-3.25-3.4C243,200.52,241.57,202.66,241.8,205Z" style="fill: rgb(38, 50, 56); transform-origin: 245.74px 205.091px;" id="el6dmh77wcayb" class="animable"></path><path d="M233.33,208.51a44.36,44.36,0,0,1-10.89-2l4.28-.91a6.25,6.25,0,0,1-3.11-3.6,9.91,9.91,0,0,0,6,.41l-2.49-1.87a60.84,60.84,0,0,1,8.62-.89l-2-1.94,6.4,1.85c-.28-.58-.56-1.17-.83-1.76,2.22.29,6.16,1.35,7.25,3.58a2,2,0,0,1-1.52,3.14c-1.81.35-3.71-.1-5.54.25a10.05,10.05,0,0,0-3.3,1.27C235.72,206.3,233.62,208.52,233.33,208.51Z" style="fill: rgb(38, 50, 56); transform-origin: 234.68px 203.11px;" id="elzvfuz9fliae" class="animable"></path><path d="M261.76,225s-5.26,3.26,1.78,13,5.76-6.67,5.76-6.67S268.33,223.91,261.76,225Z" style="fill: rgb(255, 136, 123); transform-origin: 264.632px 232.99px;" id="elybtb96553fa" class="animable"></path><g id="elz577ywdk9uq"><path d="M285.83,269.54c-4.62,1.6-21.92,7.73-28.86,12.54l-3.24,2.07-.33-3.34c8.14-9.38,30.42-15.75,30.42-15.75Z" style="opacity: 0.2; isolation: isolate; transform-origin: 269.615px 274.605px;" class="animable"></path></g></g><g id="freepik--character-1--inject-14" class="animable" style="transform-origin: 128.724px 312.049px;"><path d="M131.61,211.54a7.3,7.3,0,0,0-7.09-4.09,3.48,3.48,0,0,0-1.53.44,1.67,1.67,0,0,0-.83,1.29,1.14,1.14,0,0,0,.86,1.19,9.88,9.88,0,0,0-7.51,4.55,2.79,2.79,0,0,0-.52,2c.16.68,1,1.21,1.57.85a3.77,3.77,0,0,0-2.58,1.81,6.53,6.53,0,0,0-.86,2.87,2.64,2.64,0,0,0,.35,1.9,2,2,0,0,0,1.88.59,5.87,5.87,0,0,0,1.89-.82,1.65,1.65,0,0,0-1.06,1.42,5.44,5.44,0,0,0,.24,2.86,2.59,2.59,0,0,0,2.19,1.66,1.73,1.73,0,0,0,1.77-1.83c.11.68-.15,1.44-.09,2.12a4,4,0,0,0,.6,1.94,1.92,1.92,0,0,0,1.74.88,2.26,2.26,0,0,0,1.62-1.46c.31-.69.44-1.45.75-2.15a14.51,14.51,0,0,0,.09,4.56c.14.5.36,1.06.86,1.22a1.51,1.51,0,0,0,1.43-.63,6.44,6.44,0,0,0,1.7-4.21c.1-4.47,2.62-8.7,3.38-13.11A10.08,10.08,0,0,0,131.61,211.54Z" style="fill: rgb(38, 50, 56); transform-origin: 122.825px 221.392px;" id="elrv70raa8y08" class="animable"></path><path d="M154.09,244.9l.38,0,.49,0c.33,0,.67-.06,1-.12.69-.09,1.4-.21,2.12-.34a40.11,40.11,0,0,0,4.2-1c1.41-.42,2.8-.93,4.19-1.45.7-.32,1.38-.56,2.06-.87l1.58-.71a1,1,0,0,0,.45-.53,29.53,29.53,0,0,0-.65-5.73c-.63-3-1.22-7.14-2.29-10l3.1,0a40.45,40.45,0,0,1,4.36,8.91,19.52,19.52,0,0,1,1.06,5.24,10,10,0,0,1-.33,3.18,6.59,6.59,0,0,1-2.14,3.35,7.34,7.34,0,0,1-.86.6l-.6.34-1.09.6c-.73.4-1.49.75-2.23,1.12a46,46,0,0,1-4.67,1.88,45.48,45.48,0,0,1-4.9,1.35c-.86.18-1.69.31-2.56.41-.43.06-.88.1-1.33.13l-.68,0c-.26,0-.44,0-.82,0Z" style="fill: rgb(255, 181, 115); transform-origin: 165.043px 237.705px;" id="ellsjbwq4lqtn" class="animable"></path><path d="M167.79,224.56l-3.6-6.75,6.29.85s1.58,3.72.25,5.49Z" style="fill: rgb(255, 181, 115); transform-origin: 167.726px 221.185px;" id="elbzar8z96v0c" class="animable"></path><path d="M165.89,213.13l2,0a1.82,1.82,0,0,1,1.81,1.47l.79,4.09-6.28-.84-.07-2.83A1.8,1.8,0,0,1,165.89,213.13Z" style="fill: rgb(255, 181, 115); transform-origin: 167.314px 215.91px;" id="eloprg2din9f" class="animable"></path><path d="M169.25,218.81h0l.17-1a5.83,5.83,0,0,0,.05-1.56l-.39-.5a.87.87,0,0,0-.9.55l-.29.73-2,3.19,1.22,1,2,.14.25-.29A1.74,1.74,0,0,0,169.25,218.81Z" style="fill: rgb(255, 181, 115); transform-origin: 167.807px 218.553px;" id="elwusljevhvpk" class="animable"></path><path d="M144.73,246.11c1.19-2.38,25.09-7.57,25.09-7.57l3.15,9.2s-23.38,7.74-25.72,5.21S143,249.58,144.73,246.11Z" style="fill: rgb(228, 92, 58); transform-origin: 158.516px 245.999px;" id="el1py0059c0sf" class="animable"></path><g id="el1bv5cmzngov"><path d="M144.73,246.11c1.19-2.38,25.09-7.57,25.09-7.57l3.15,9.2s-23.38,7.74-25.72,5.21S143,249.58,144.73,246.11Z" style="fill: rgb(255, 255, 255); opacity: 0.3; transform-origin: 158.516px 245.999px;" class="animable"></path></g><g id="elwbt5js18mw"><path d="M150.25,247.33l.21,7c2.57-.7,18.15-5.07,18.15-5.07Z" style="opacity: 0.1; isolation: isolate; transform-origin: 159.43px 250.83px;" class="animable"></path></g><path d="M168.78,234.19l-.58,4.66,4.77,8.89s4.55-1.72,4.8-5.58S168.78,234.19,168.78,234.19Z" style="fill: rgb(228, 92, 58); transform-origin: 172.987px 240.965px;" id="elx1d4qecyyd" class="animable"></path><g id="elvb32nmup78m"><path d="M168.78,234.19l-.58,4.66,4.77,8.89s4.55-1.72,4.8-5.58S168.78,234.19,168.78,234.19Z" style="fill: rgb(255, 255, 255); opacity: 0.5; isolation: isolate; transform-origin: 172.987px 240.965px;" class="animable"></path></g><polygon points="172.48 409.12 178.61 408 176.54 393.65 170.42 394.77 172.48 409.12" style="fill: rgb(255, 181, 115); transform-origin: 174.515px 401.385px;" id="ell33eil8qbgi" class="animable"></polygon><polygon points="78.16 326.91 76.57 332.94 89.98 338.72 92.76 332.6 78.16 326.91" style="fill: rgb(255, 181, 115); transform-origin: 84.665px 332.815px;" id="elxqihf10vu6f" class="animable"></polygon><path d="M183.21,408a2.38,2.38,0,0,0,1.38-.74.84.84,0,0,0,.08-.77.5.5,0,0,0-.34-.32c-.85-.22-3,1.63-3.18,1.84a.14.14,0,0,0,0,.17.13.13,0,0,0,.14.08A9.93,9.93,0,0,0,183.21,408Zm.74-1.51a.54.54,0,0,1,.28,0,.19.19,0,0,1,.14.13.52.52,0,0,1-.05.5c-.28.42-1.26.73-2.66.85a7.89,7.89,0,0,1,2.31-1.47Z" style="fill: rgb(228, 92, 58); transform-origin: 182.925px 407.207px;" id="eljgy8l5wf799" class="animable"></path><path d="M181.29,408.25l0,0c.65-.51,1.74-2.18,1.45-2.84a.55.55,0,0,0-.64-.26,1,1,0,0,0-.74.42,4.28,4.28,0,0,0-.32,2.56.17.17,0,0,0,.08.13A.14.14,0,0,0,181.29,408.25Zm.79-2.82.08,0c.27,0,.31.06.32.09.18.4-.53,1.67-1.16,2.29a3.36,3.36,0,0,1,.3-2.07.71.71,0,0,1,.47-.27Z" style="fill: rgb(228, 92, 58); transform-origin: 181.879px 406.705px;" id="elk7cwdsru6f" class="animable"></path><path d="M177.63,405.69l-5.34,1.76a.49.49,0,0,0-.34.56l.86,7.87a1,1,0,0,0,1.21.76.35.35,0,0,0,.11,0c2.31-.79,3.39-1.29,6.33-2.24,1.8-.58,7.59-1.52,9.88-2.79s1.16-3.61.09-3.28a13.3,13.3,0,0,1-10.81-2.12A5.43,5.43,0,0,0,177.63,405.69Z" style="fill: rgb(38, 50, 56); transform-origin: 181.808px 411.179px;" id="el4d861kzo367" class="animable"></path><path d="M79.42,333.74l2.85-4.84a.49.49,0,0,0-.11-.65l-5.83-5.36a1,1,0,0,0-1.41.23l-.06.09c-1.22,2.12-1.7,3.2-3.29,5.86-1,1.62-4.71,6.14-5.6,8.6s1.51,3.48,2.1,2.53c1.89-3.05,6.1-5.26,9.53-5.53C78,334.54,79.23,334.08,79.42,333.74Z" style="fill: rgb(38, 50, 56); transform-origin: 74.0609px 331.624px;" id="el5j3zsfn73bn" class="animable"></path><g id="elnyf7qp9zwc9"><polygon points="176.54 393.65 177.61 401.05 171.48 402.17 170.41 394.77 176.54 393.65" style="opacity: 0.2; transform-origin: 174.01px 397.91px;" class="animable"></polygon></g><g id="el09rwzyvfxhds"><polygon points="96.88 334.09 94.02 340.55 85.39 336.74 87.59 330.58 96.88 334.09" style="opacity: 0.2; transform-origin: 91.135px 335.565px;" class="animable"></polygon></g><path d="M113.7,265.22c-4.24,3.72-8.3,8.71-7.66,14.31,1.39-4,6.23-5.75,10.46-5.49s8.23,1.94,12.42,2.51c2,.26,4.16.19,5.54-1.2s1.41-3.78,1.12-5.8a35.34,35.34,0,0,0-3.3-10.57,12.21,12.21,0,0,0-4-5c-2.38-1.55-3.24-1.13-4.55,1C121.24,259.19,117.28,262.08,113.7,265.22Z" style="fill: rgb(228, 92, 58); transform-origin: 120.85px 266.289px;" id="el9ancjq208pc" class="animable"></path><g id="elnp9am5yioak"><path d="M113.7,265.22c-4.24,3.72-8.3,8.71-7.66,14.31,1.39-4,6.23-5.75,10.46-5.49s8.23,1.94,12.42,2.51c2,.26,4.16.19,5.54-1.2s1.41-3.78,1.12-5.8a35.34,35.34,0,0,0-3.3-10.57,12.21,12.21,0,0,0-4-5c-2.38-1.55-3.24-1.13-4.55,1C121.24,259.19,117.28,262.08,113.7,265.22Z" style="fill: rgb(255, 255, 255); opacity: 0.1; transform-origin: 120.85px 266.289px;" class="animable"></path></g><path d="M155.44,252.12c1.32,8.89-.78,11.1-4.4,29.1l-23.35.06c.38-9.7.34-17.54-3.8-36.62a3.23,3.23,0,0,1,2.45-3.84,3.11,3.11,0,0,1,.69-.07c1.93,0,13.6,0,17.41.85a49.38,49.38,0,0,1,6.08,1.9C151.72,243.91,154.13,248.39,155.44,252.12Z" style="fill: rgb(228, 92, 58); transform-origin: 139.826px 261.015px;" id="el9b2lx04uk0h" class="animable"></path><path d="M125.75,240.75s-2.58.55-.84,8.69.58-18.51,23.94-5.41c5.8,3.25,6.07,6.83,6.07,6.83s2.9-5-3.74-8.78S134.21,239.1,125.75,240.75Z" style="fill: rgb(228, 92, 58); transform-origin: 139.929px 245.196px;" id="elbj8fpcgym0u" class="animable"></path><g id="el11s0u8p9a16b"><path d="M125.75,240.75s-2.58.55-.84,8.69.58-18.51,23.94-5.41c5.8,3.25,6.07,6.83,6.07,6.83s2.9-5-3.74-8.78S134.21,239.1,125.75,240.75Z" style="fill: rgb(255, 255, 255); opacity: 0.3; transform-origin: 139.929px 245.196px;" class="animable"></path></g><path d="M177.56,396.48l-8.22,1.84s-10.12-44-14.3-57.12c-.11-.34-.22-.68-.31-1-4.16-12.4-12.32-31.16-17.62-42.94-2.93-6.53-5-10.92-5-10.92l1.35-.36L144,281.24l7.87,1.19s20.42,32.21,25.13,49.82C186.17,362.56,177.56,396.48,177.56,396.48Z" style="fill: rgb(228, 92, 58); transform-origin: 156.668px 339.78px;" id="el0924wpejwl0j" class="animable"></path><g id="elovt96dnaigr"><path d="M177.56,396.48l-8.22,1.84s-10.12-44-14.3-57.12c-.11-.34-.22-.68-.31-1-4.16-12.4-12.32-31.16-17.62-42.94-2.93-6.53-5-10.92-5-10.92l1.35-.36L144,281.24l7.87,1.19s20.42,32.21,25.13,49.82C186.17,362.56,177.56,396.48,177.56,396.48Z" style="fill: rgb(255, 255, 255); opacity: 0.3; transform-origin: 156.668px 339.78px;" class="animable"></path></g><polygon points="168.35 400.87 179.92 398.29 179.98 394.57 166.92 397.04 168.35 400.87" style="fill: rgb(228, 92, 58); transform-origin: 173.45px 397.72px;" id="eljku4bpbq53" class="animable"></polygon><g id="ell768abugcb"><path d="M155,341.2c-.11-.34-.22-.68-.31-1-4.16-12.4-12.32-31.16-17.62-42.94L133.48,286l-.7-2.16,1.21,2,18,30.26C158,326.72,158.89,336.68,155,341.2Z" style="opacity: 0.2; isolation: isolate; transform-origin: 145.066px 312.52px;" class="animable"></path></g><path d="M146,282.11s10.42,66.67-11.25,74.18c-11.43,4.33-21.05-.37-32.45-5.41-6.58-2.92-14.81-10.8-14.81-10.8l3.16-8.62a41.42,41.42,0,0,1,17.44-.88c11.11,1.73,11.58,4.87,15.53,2.5,8.3-20.52-6-36.73,3.72-51Z" style="fill: rgb(228, 92, 58); transform-origin: 117.997px 320.037px;" id="elince1jb6te" class="animable"></path><g id="eljjbnzkifsnd"><path d="M146,282.11s10.42,66.67-11.25,74.18c-11.43,4.33-21.05-.37-32.45-5.41-6.58-2.92-14.81-10.8-14.81-10.8l3.16-8.62a41.42,41.42,0,0,1,17.44-.88c11.11,1.73,11.58,4.87,15.53,2.5,8.3-20.52-6-36.73,3.72-51Z" style="fill: rgb(255, 255, 255); opacity: 0.3; transform-origin: 117.997px 320.037px;" class="animable"></path></g><polygon points="91.29 329.83 87.06 341 90.18 343.38 95.2 330.09 91.29 329.83" style="fill: rgb(228, 92, 58); transform-origin: 91.13px 336.605px;" id="el0mxwjk0l0xu" class="animable"></polygon><path d="M89.55,269.59c-1.06,1.56-6.41.5-6.41.5L82,263.46l6.57,2.64Z" style="fill: rgb(255, 181, 115); transform-origin: 85.775px 266.951px;" id="el51vk6u3rsmh" class="animable"></path><path d="M82,263.46,84.34,270l-4,.59a.9.9,0,0,1-.93-.69L78,265a.46.46,0,0,1,.33-.54Z" style="fill: rgb(255, 181, 115); transform-origin: 81.1649px 267.026px;" id="el3rau7zfncxy" class="animable"></path><path d="M125,243.35,111.8,261.53l-24.29,4.78v4s22.82,1.69,27.93-1.3,13.73-21.07,13.73-21.07Z" style="fill: rgb(255, 181, 115); transform-origin: 108.34px 257.068px;" id="eluct5dl0wnym" class="animable"></path><path d="M112.36,270.6l-3.66-9.69.84.07a3.52,3.52,0,0,0,3.39-1.8c2.78-5,10-17.6,12-18.23,2.9-.86,5.61,2.52,4.2,8.73-1,4.64-4.86,9.49-8.8,15.64C116.88,270.77,112.36,270.6,112.36,270.6Z" style="fill: rgb(228, 92, 58); transform-origin: 119.107px 255.709px;" id="elfganog5yb0g" class="animable"></path><g id="elwroffnd1heh"><path d="M112.36,270.6l-3.66-9.69.84.07a3.52,3.52,0,0,0,3.39-1.8c2.78-5,10-17.6,12-18.23,2.9-.86,5.61,2.52,4.2,8.73-1,4.64-4.86,9.49-8.8,15.64C116.88,270.77,112.36,270.6,112.36,270.6Z" style="fill: rgb(255, 255, 255); opacity: 0.3; transform-origin: 119.107px 255.709px;" class="animable"></path></g><path d="M76.65,336.92V337a.85.85,0,0,0,.63.53.47.47,0,0,0,.49-.11c.59-.53.22-2.79.18-3a.14.14,0,0,0-.11-.12.17.17,0,0,0-.15,0C77.22,335,76.47,336.21,76.65,336.92Zm1.08-2.1c.13.89.18,2.11-.14,2.39a.23.23,0,0,1-.23,0,.54.54,0,0,1-.42-.34,3,3,0,0,1,.79-2.06Z" style="fill: rgb(228, 92, 58); transform-origin: 77.3619px 335.92px;" id="elrjhk53cpmv9" class="animable"></path><path d="M77.72,334.7c.18.76.89,2,1.52,2.19a.52.52,0,0,0,.58-.29.8.8,0,0,0,0-.66c-.29-.86-1.94-1.58-2-1.61a.16.16,0,0,0-.15,0,.19.19,0,0,0,0,.14A2.17,2.17,0,0,0,77.72,334.7Zm1.9,1.37a.49.49,0,0,1-.06.37c-.09.16-.18.16-.25.15-.43-.09-1.08-1.14-1.29-1.88.53.27,1.41.79,1.58,1.31a.08.08,0,0,0,0,.05Z" style="fill: rgb(228, 92, 58); transform-origin: 78.7739px 335.606px;" id="el0bue57l7y38s" class="animable"></path><path d="M127.6,280.09l-.64,2.28c-.09.17.12.35.41.35l24.1,0a.41.41,0,0,0,.44-.26l.22-2.27c0-.16-.18-.29-.44-.29l-23.68,0A.48.48,0,0,0,127.6,280.09Z" style="fill: rgb(228, 92, 58); transform-origin: 139.534px 281.312px;" id="elsixfp6ylclf" class="animable"></path><path d="M127.6,280.09l-.64,2.28c-.09.17.12.35.41.35l24.1,0a.41.41,0,0,0,.44-.26l.22-2.27c0-.16-.18-.29-.44-.29l-23.68,0A.48.48,0,0,0,127.6,280.09Z" style="fill: rgb(38, 50, 56); transform-origin: 139.534px 281.312px;" id="el7o2iqk8l4b3" class="animable"></path><path d="M132.2,282.93h-.7c-.13,0-.24-.07-.22-.15l.31-3c0-.08.13-.15.27-.15h.7c.13,0,.24.07.23.16l-.32,2.95C132.46,282.85,132.34,282.93,132.2,282.93Z" style="fill: rgb(228, 92, 58); transform-origin: 132.034px 281.28px;" id="elhp3mdaipu2t" class="animable"></path><path d="M149.6,282.93h-.7c-.13,0-.24-.07-.23-.16l.32-2.95c0-.09.13-.16.26-.15h.7c.13,0,.24.07.23.16l-.32,2.95C149.86,282.86,149.74,282.93,149.6,282.93Z" style="fill: rgb(228, 92, 58); transform-origin: 149.425px 281.3px;" id="el3ewdb5w5l4c" class="animable"></path><path d="M141.64,282.91h-.7c-.14,0-.25-.07-.23-.15l.31-2.95c0-.09.13-.16.26-.16h.7c.13,0,.24.07.23.15l-.31,2.95C141.89,282.84,141.78,282.91,141.64,282.91Z" style="fill: rgb(228, 92, 58); transform-origin: 141.459px 281.28px;" id="elt4u1uezxr2q" class="animable"></path><path d="M134.93,228.35c.74,3.81,1.47,10.68-1.11,12.75,0,0,1,3.9,7.94,4.94,7.63,1.16,3.62-3.19,3.62-3.19-4.15-1.65-4-4.65-3.33-7.41Z" style="fill: rgb(255, 181, 115); transform-origin: 140.127px 237.293px;" id="elcza7jtcjqce" class="animable"></path><path d="M141.4,241.61l4.22,1a2.29,2.29,0,0,1,1.64,1.38c.82,2,1.18,5-2.4,5.82,0,0-8.23,1.66-13-5.21a2.36,2.36,0,0,1,2.09-3.67C135.78,241,138.22,241.21,141.4,241.61Z" style="fill: rgb(255, 181, 115); transform-origin: 139.633px 245.456px;" id="elkr8yobur84i" class="animable"></path><g id="elyy5bihk0mv"><path d="M137.83,231.25l4.21,4.19a12.07,12.07,0,0,0-.35,2c-1.58-.47-4.14-2.22-4.31-3.9A5.71,5.71,0,0,1,137.83,231.25Z" style="opacity: 0.2; isolation: isolate; transform-origin: 139.71px 234.345px;" class="animable"></path></g><path d="M130.27,223.54c1.87,5.91,2.53,8.46,6.36,10.79,5.72,3.49,12.6-.09,12.51-6.44-.06-5.71-3.09-14.41-9.59-15.34a8.45,8.45,0,0,0-9.28,11Z" style="fill: rgb(255, 181, 115); transform-origin: 139.493px 224.076px;" id="elpieg0yzd5bs" class="animable"></path><path d="M144.37,222.62a13.38,13.38,0,0,0,2.39,2.81,2.21,2.21,0,0,1-1.7.68Z" style="fill: rgb(237, 137, 62); transform-origin: 145.565px 224.366px;" id="elhv74mc854qm" class="animable"></path><path d="M143.71,229.27a5.4,5.4,0,0,0,.7-.13.14.14,0,0,0,.11-.17h0a.16.16,0,0,0-.18-.11,3.94,3.94,0,0,1-3.53-.73.15.15,0,0,0-.21,0,.14.14,0,0,0,0,.21A4.14,4.14,0,0,0,143.71,229.27Z" style="fill: rgb(38, 50, 56); transform-origin: 142.538px 228.692px;" id="eldryd3204yn" class="animable"></path><path d="M128.24,211.74a5.73,5.73,0,0,0-2.62,4.58,2.26,2.26,0,0,0,.16,1,1,1,0,0,0,.8.59c.53,0,.93-.47,1.22-.92l1.35-2.07a10.47,10.47,0,0,0,1.41-2.23C131,211.32,129.06,211.22,128.24,211.74Z" style="fill: rgb(228, 92, 58); transform-origin: 128.119px 214.68px;" id="elov79vmcpesb" class="animable"></path><path d="M128.9,213.14c-3.71,4.28-5.37,16.15,5.5,19.46,1.81-1.43-1.12-4-2.37-7.36-.81-2.17,3.33-6.22,4.95-7.88s3.09-4.05,5.38-3.67a3.09,3.09,0,0,0,1.78.05c1.81-.82.93-1.9,0-2.66a9.3,9.3,0,0,0-4.92-1.8A12.1,12.1,0,0,0,128.9,213.14Z" style="fill: rgb(38, 50, 56); transform-origin: 135.639px 220.9px;" id="eltzcvxj32jil" class="animable"></path><path d="M129.61,228.51a4.58,4.58,0,0,0,2.91,1.89c1.56.27,2.16-1.16,1.62-2.56-.5-1.25-1.92-2.91-3.44-2.56a2,2,0,0,0-1.46,2.48A2.11,2.11,0,0,0,129.61,228.51Z" style="fill: rgb(255, 181, 115); transform-origin: 131.751px 227.833px;" id="elv5ocqtjovw" class="animable"></path><path d="M140.22,212.07c.84,2.15,3.28,1.86,5.08,4.11,1.11,1.38,3.29-2.91.33-4.61S138.89,208.7,140.22,212.07Z" style="fill: rgb(38, 50, 56); transform-origin: 143.532px 213.18px;" id="elcaj3hf1u8p" class="animable"></path><path d="M137.65,221.15a.31.31,0,0,0,.3-.17,3.38,3.38,0,0,1,2.3-1.6.3.3,0,0,0,.24-.35.29.29,0,0,0-.34-.23,4,4,0,0,0-2.75,1.95.3.3,0,0,0,.15.39h.1Z" style="fill: rgb(38, 50, 56); transform-origin: 138.936px 219.973px;" id="el4wui180qmt" class="animable"></path><path d="M146.73,218.58a.28.28,0,0,0,.26-.13.29.29,0,0,0-.08-.41h0a2.94,2.94,0,0,0-2.68-.34.3.3,0,0,0-.16.39.29.29,0,0,0,.39.15h0a2.35,2.35,0,0,1,2.12.29A.38.38,0,0,0,146.73,218.58Z" style="fill: rgb(38, 50, 56); transform-origin: 145.545px 218.051px;" id="elq8rg5box43j" class="animable"></path><path d="M103.86,259.65,108.7,261l4.59,9.49a5.84,5.84,0,0,1-7.68.16C102.62,268.22,103.86,259.65,103.86,259.65Z" style="fill: rgb(228, 92, 58); transform-origin: 108.448px 265.831px;" id="elawhqontqmd" class="animable"></path><g id="eld8ixa76worf"><g style="opacity: 0.5; isolation: isolate; transform-origin: 108.448px 265.831px;" class="animable"><path d="M103.86,259.65,108.7,261l4.59,9.49a5.84,5.84,0,0,1-7.68.16C102.62,268.22,103.86,259.65,103.86,259.65Z" style="fill: rgb(255, 255, 255); transform-origin: 108.448px 265.831px;" id="eljajsridyvad" class="animable"></path></g></g><path d="M146.45,221c.33-.07.68.31.77.83s-.11,1-.44,1.05-.69-.32-.78-.84S146.11,221,146.45,221Z" style="fill: rgb(38, 50, 56); transform-origin: 146.61px 221.938px;" id="el21vrysf9v95" class="animable"></path><path d="M147.48,220.44l-1.18.58C147,221.52,147.48,220.44,147.48,220.44Z" style="fill: rgb(38, 50, 56); transform-origin: 146.89px 220.796px;" id="ela2vhrvorczh" class="animable"></path><path d="M140.6,222.14c.33-.06.68.32.77.84s-.11,1-.44,1-.69-.31-.78-.83S140.26,222.21,140.6,222.14Z" style="fill: rgb(38, 50, 56); transform-origin: 140.76px 223.057px;" id="elcrlpfhocbok" class="animable"></path><path d="M141.63,221.63l-1.18.58C141.16,222.72,141.63,221.63,141.63,221.63Z" style="fill: rgb(38, 50, 56); transform-origin: 141.04px 221.988px;" id="eldbxekrxybx5" class="animable"></path><path d="M138.81,232.15a2.24,2.24,0,0,1-1.57-.65,3.09,3.09,0,0,1-.74-2.65,5,5,0,0,1,.59-1.58,2.11,2.11,0,0,1-1.47-.71,3,3,0,0,1-.57-2.64,5.5,5.5,0,0,1,.77-1.65,1.85,1.85,0,0,1-1-.84,2.94,2.94,0,0,1-.21-2.06,6.67,6.67,0,0,1,3-4.36.51.51,0,0,1,.69.16.5.5,0,0,1-.16.69,5.67,5.67,0,0,0-2.55,3.7,2,2,0,0,0,.1,1.38c.16.29.56.52.83.38a.49.49,0,0,1,.59.11.5.5,0,0,1,.07.59l-.35.57a5.64,5.64,0,0,0-.79,1.54,2,2,0,0,0,.34,1.77,1.08,1.08,0,0,0,1.39.2.5.5,0,0,1,.63,0,.51.51,0,0,1,.15.62c-.09.2-.21.41-.33.62a6,6,0,0,0-.71,1.68,2.1,2.1,0,0,0,.46,1.8,1.12,1.12,0,0,0,1.46.15.49.49,0,0,1,.7,0,.5.5,0,0,1,0,.71A1.87,1.87,0,0,1,138.81,232.15Z" style="fill: rgb(38, 50, 56); transform-origin: 137.395px 223.545px;" id="el9seerj44mu9" class="animable"></path><path d="M152.84,225.41a.41.41,0,0,1-.16,0,.48.48,0,0,1-.34-.44l0-.24a.5.5,0,0,1,.47-.53,4.21,4.21,0,0,0,.76-1.28,1.59,1.59,0,0,0-.21-1.58,1.7,1.7,0,0,0-1.36-.57.51.51,0,0,1-.53-.44.51.51,0,0,1,.4-.55.85.85,0,0,0,.59-.92,1.33,1.33,0,0,0-.87-1,2.05,2.05,0,0,0-1.42-.06.49.49,0,0,1-.59-.71,6.27,6.27,0,0,0,.79-2,1.73,1.73,0,0,0-.53-1.6,2.51,2.51,0,0,0-1.5-.3,12,12,0,0,0-4.58,1.11.49.49,0,0,1-.66-.23.5.5,0,0,1,.24-.67,12.75,12.75,0,0,1,5-1.21,3.41,3.41,0,0,1,2.12.49,2.69,2.69,0,0,1,.93,2.55,5.05,5.05,0,0,1-.46,1.44,3.1,3.1,0,0,1,1,.23,2.31,2.31,0,0,1,1.51,1.82,1.88,1.88,0,0,1-.29,1.25,2.86,2.86,0,0,1,.92.66,2.59,2.59,0,0,1,.44,2.59,6.58,6.58,0,0,1-1.28,2A.53.53,0,0,1,152.84,225.41Z" style="fill: rgb(38, 50, 56); transform-origin: 148.865px 218.796px;" id="elz3tqqxc8jj" class="animable"></path></g><g id="freepik--Confetti--inject-14" class="animable animator-active" style="transform-origin: 257.528px 183.638px;"><path d="M160.51,202.84c.7-.59,1.42-1.16,2.16-1.69s1.49-1,2.26-1.51,1.56-.94,2.36-1.37,1.63-.83,2.46-1.2c-.56.54-1.09,1.09-1.6,1.66l-.75.85-.71.87c-.76.44-1.5.91-2.22,1.4s-1.43,1-2.11,1.55-1.34,1.11-2,1.7-1.22,1.22-1.77,1.87c.24-.69.51-1.39.83-2.08l.24-.52.27-.51C160.13,203.51,160.32,203.18,160.51,202.84Z" style="fill: rgb(228, 92, 58); transform-origin: 164.17px 202.02px;" id="el7cy5e0rgtmh" class="animable"></path><g id="eliy1wfnglgr"><g style="opacity: 0.2; transform-origin: 164.17px 202.02px;" class="animable"><path d="M160.51,202.84c.7-.59,1.42-1.16,2.16-1.69s1.49-1,2.26-1.51,1.56-.94,2.36-1.37,1.63-.83,2.46-1.2c-.56.54-1.09,1.09-1.6,1.66l-.75.85-.71.87c-.76.44-1.5.91-2.22,1.4s-1.43,1-2.11,1.55-1.34,1.11-2,1.7-1.22,1.22-1.77,1.87c.24-.69.51-1.39.83-2.08l.24-.52.27-.51C160.13,203.51,160.32,203.18,160.51,202.84Z" id="el6024xt0w3jf" class="animable" style="transform-origin: 164.17px 202.02px;"></path></g></g><path d="M292.68,236.48a4.06,4.06,0,0,1-.44,1.72c-.28.61-.72,1.13-1,1.73a5.31,5.31,0,0,0,2.08,1.66,1.94,1.94,0,0,0,1.3-1.48,3.68,3.68,0,0,0-.19-2.22c-.09-.3-.58-.6-.82-.78a10.89,10.89,0,0,1-.94-.63Z" style="fill: rgb(228, 92, 58); transform-origin: 292.975px 239.035px;" id="eloud1jc8jn2" class="animable"></path><path d="M267.45,146.53c-1.17.26-1.91,1.45-2.49,2.43s-1.25,2.28-.93,3.47c.11.38,2.19,2.2,2.53,2,.78-.43,1.1-2.19,1.53-3,.52-1,1.56-1.94,1.73-3,.05-.34-2-2-2.37-1.88Z" style="fill: rgb(228, 92, 58); transform-origin: 266.884px 150.488px;" id="el2g6sm7j2i7e" class="animable"></path><path d="M219.82,202a4.93,4.93,0,0,0-1.94,2.28,5.75,5.75,0,0,0-1,2.91,6.1,6.1,0,0,0,2.24,1.79,9.82,9.82,0,0,0,1.41-2.59,10.51,10.51,0,0,0,1.46-2.66,5.25,5.25,0,0,0-2.17-1.73Z" style="fill: rgb(228, 92, 58); transform-origin: 219.435px 205.49px;" id="el4jb4tc7t00e" class="animable"></path><path d="M326.59,233.52a2.14,2.14,0,0,0-.36,1.29,2.82,2.82,0,0,0,.1,1.47c.17.4.86.81,1.18,1.06.13.1.9.8,1.06.68.35-.24.16-1.06.14-1.46a5.56,5.56,0,0,0-.28-1.61c-.07-.21-1.73-1.56-1.84-1.43Z" style="fill: rgb(228, 92, 58); transform-origin: 327.478px 235.772px;" id="elz8ow1hm2pad" class="animable"></path><g id="elwe6u3lsq75j"><g style="opacity: 0.2; transform-origin: 327.478px 235.772px;" class="animable"><path d="M326.59,233.52a2.14,2.14,0,0,0-.36,1.29,2.82,2.82,0,0,0,.1,1.47c.17.4.86.81,1.18,1.06.13.1.9.8,1.06.68.35-.24.16-1.06.14-1.46a5.56,5.56,0,0,0-.28-1.61c-.07-.21-1.73-1.56-1.84-1.43Z" id="el0ds4kgjsuaag" class="animable" style="transform-origin: 327.478px 235.772px;"></path></g></g><path d="M326.75,207.2a9,9,0,0,0-1.21,5.24c.08.43,2.07,1.55,2,1.63.24-.84.17-1.78.34-2.65a13.21,13.21,0,0,1,.83-2.61c.14-.33-2-1.6-2-1.61Z" style="fill: rgb(228, 92, 58); transform-origin: 327.115px 210.635px;" id="el81q7vl45x8a" class="animable"></path><path d="M272.11,204.64a.36.36,0,0,1,0,.1A.3.3,0,0,0,272.11,204.64Z" style="fill: rgb(228, 92, 58); transform-origin: 272.112px 204.69px;" id="el5in0kunugff" class="animable"></path><path d="M271.09,204.16l.46.07C270.94,204,270.17,204,271.09,204.16Z" style="fill: rgb(228, 92, 58); transform-origin: 271.107px 204.139px;" id="elrpmy8v68tgr" class="animable"></path><path d="M227.94,180.31c.35-.07.71-.14,1.06-.23-.35.07-.71.13-1.07.18Z" style="fill: rgb(228, 92, 58); transform-origin: 228.465px 180.195px;" id="elwcd8zurg7w" class="animable"></path><path d="M229.27,184.79l.36.09C229.49,184.77,229.34,184.69,229.27,184.79Z" style="fill: rgb(228, 92, 58); transform-origin: 229.45px 184.812px;" id="elkun6dmk066p" class="animable"></path><path d="M224.81,178.7v.07l.84-.12C225.37,178.68,225.09,178.69,224.81,178.7Z" style="fill: rgb(228, 92, 58); transform-origin: 225.23px 178.71px;" id="elyov0svl553e" class="animable"></path><path d="M228,178.12a10.93,10.93,0,0,1-2.33.53l-.84.12a9.12,9.12,0,0,0,.23,1.64,19.7,19.7,0,0,0,2.89-.15A14,14,0,0,1,228,178.12Z" style="fill: rgb(228, 92, 58); transform-origin: 226.415px 179.267px;" id="elukvl4otxo4" class="animable"></path><path d="M228,178.1a35.9,35.9,0,0,1,1-5.28,38.73,38.73,0,0,1,4.33-10.58c1.86-3.13,4.26-6.68,7.63-8.32a7.59,7.59,0,0,1,2.46-.73,7,7,0,0,1,1.37,0l.19,0a8.7,8.7,0,0,0-1.07-1.12,7.71,7.71,0,0,0-2.69-.53c-4.2,0-7.21,3.5-9.45,6.64a38.53,38.53,0,0,0-5.43,11.07,37.81,37.81,0,0,0-1.31,6,18.28,18.28,0,0,0-.21,3.4c.28,0,.56,0,.84,0A20.74,20.74,0,0,0,228,178.1Z" style="fill: rgb(228, 92, 58); transform-origin: 234.895px 165.095px;" id="elt9t3zclbsys" class="animable"></path><path d="M224.81,178.77a18,18,0,0,1-3,.12,12.5,12.5,0,0,1-4.09-.77,13.92,13.92,0,0,1-2.15-.72,19.44,19.44,0,0,0,9,3l.49,0A9.12,9.12,0,0,1,224.81,178.77Z" style="fill: rgb(228, 92, 58); transform-origin: 220.315px 178.9px;" id="elh41rl1olohh" class="animable"></path><g id="elg8jotikpif5"><path d="M224.81,178.77a18,18,0,0,1-3,.12,12.5,12.5,0,0,1-4.09-.77,13.92,13.92,0,0,1-2.15-.72,19.44,19.44,0,0,0,9,3l.49,0A9.12,9.12,0,0,1,224.81,178.77Z" style="opacity: 0.2; transform-origin: 220.315px 178.9px;" class="animable"></path></g><path d="M227.93,180.26a19.7,19.7,0,0,1-2.89.15c0,.07,0,.13.05.2a19.4,19.4,0,0,0,2.85-.3Z" style="fill: rgb(228, 92, 58); transform-origin: 226.49px 180.435px;" id="elsg7lvaiqhsd" class="animable"></path><path d="M245.23,153.23A1.35,1.35,0,0,1,245,153c1,.42,1.29.55.74.39a4.64,4.64,0,0,0-.51-.11h0a5.46,5.46,0,0,1,.53.56,4.38,4.38,0,0,1,.63,1.26,6.48,6.48,0,0,1,.23,2.8c-.44,3.72-2.86,7.13-5.06,10a30.92,30.92,0,0,1-8.51,8,22.42,22.42,0,0,1-4.81,2.17l-.26.1a14,14,0,0,0,0,2.14c.36,0,.72-.11,1.07-.18s.84-.21,1.25-.34c-.41.13-.83.24-1.25.34,6.73-1.28,12.39-6.16,16.35-11.71,2.21-3.08,5.15-7.26,4.24-11.28a5.85,5.85,0,0,0-3.15-3.77,18.08,18.08,0,0,0-2.54-1.24A8.7,8.7,0,0,1,245,153.2Z" style="fill: rgb(228, 92, 58); transform-origin: 238.874px 166.22px;" id="elv2piq7o5stq" class="animable"></path><g id="elt3fef9f5gk"><path d="M245.23,153.23A1.35,1.35,0,0,1,245,153c1,.42,1.29.55.74.39a4.64,4.64,0,0,0-.51-.11h0a5.46,5.46,0,0,1,.53.56,4.38,4.38,0,0,1,.63,1.26,6.48,6.48,0,0,1,.23,2.8c-.44,3.72-2.86,7.13-5.06,10a30.92,30.92,0,0,1-8.51,8,22.42,22.42,0,0,1-4.81,2.17l-.26.1a14,14,0,0,0,0,2.14c.36,0,.72-.11,1.07-.18s.84-.21,1.25-.34c-.41.13-.83.24-1.25.34,6.73-1.28,12.39-6.16,16.35-11.71,2.21-3.08,5.15-7.26,4.24-11.28a5.85,5.85,0,0,0-3.15-3.77,18.08,18.08,0,0,0-2.54-1.24A8.7,8.7,0,0,1,245,153.2Z" style="opacity: 0.2; transform-origin: 238.874px 166.22px;" class="animable"></path></g><path d="M216.43,177.43a14,14,0,0,1-3.62-3.85,12.74,12.74,0,0,1-1.88-5c0-.26-.89-.59-1.1-.7s-1.21-.49-1.21-.48a12.23,12.23,0,0,0,5.14,8.84c.57.42,1.16.83,1.78,1.2a13.92,13.92,0,0,0,2.15.72A6.18,6.18,0,0,1,216.43,177.43Z" style="fill: rgb(228, 92, 58); transform-origin: 213.155px 172.78px;" id="elkzg0reaytzq" class="animable"></path><path d="M225.65,178.65a10.93,10.93,0,0,0,2.33-.53v0A20.74,20.74,0,0,1,225.65,178.65Z" style="fill: rgb(228, 92, 58); transform-origin: 226.815px 178.385px;" id="eldh3nw1owz1r" class="animable"></path><path d="M245.75,153.34c.55.16.3,0-.74-.39a1.35,1.35,0,0,0,.22.28h0A4.64,4.64,0,0,1,245.75,153.34Z" style="fill: rgb(228, 92, 58); transform-origin: 245.522px 153.176px;" id="el6g38mskuh6n" class="animable"></path><path d="M228,178.1v0l.26-.1Z" style="fill: rgb(228, 92, 58); transform-origin: 228.13px 178.05px;" id="elojmqsvbtjxc" class="animable"></path><path d="M271.46,203.59a5.5,5.5,0,0,1,0-2.79,23.54,23.54,0,0,1,2.23-5.31,24.49,24.49,0,0,0,2.13-5.66,9.94,9.94,0,0,0-.94-7.09,13.2,13.2,0,0,0-3.92-2.68,7.73,7.73,0,0,1,.62.77c2.6,3.74,1.06,8.61-.71,12.33-1.28,2.71-4.48,7.44-1.77,10.14a8.09,8.09,0,0,0,2.68.77A1.66,1.66,0,0,1,271.46,203.59Z" style="fill: rgb(228, 92, 58); transform-origin: 272.069px 192.065px;" id="elr8k9rouez3" class="animable"></path><path d="M296.43,203a.46.46,0,0,0,.07.07h.09C297.11,203.14,296.12,202.66,296.43,203Z" style="fill: rgb(228, 92, 58); transform-origin: 296.556px 202.977px;" id="eldfdalbmlkqf" class="animable"></path><path d="M300.73,205.51c-.27-.26-.54-.51-.83-.74a16.65,16.65,0,0,0-9.91-3.88c-4,0-7.76,1.44-11.57,2.47a20.16,20.16,0,0,1-6.54.9,1.6,1.6,0,0,1,.23.38.3.3,0,0,1,0,.1.36.36,0,0,0,0-.1.89.89,0,0,0-.56-.41l-.46-.07c-.92-.17-.15-.17.46.07l.23,0h.1c0-.07-.09-.13-.13-.19a8.09,8.09,0,0,1-2.68-.77,4.08,4.08,0,0,0,.54.46,11,11,0,0,0,5.64,2.21,22.11,22.11,0,0,0,6.66-1c4.22-1.16,8.52-2.9,13-2.26.5.08,1.1.34,1.6.38a.46.46,0,0,1-.07-.07c-.31-.38.68.1.16.08h-.09a3.79,3.79,0,0,0,.45.34A11.24,11.24,0,0,1,300.73,205.51Z" style="fill: rgb(228, 92, 58); transform-origin: 284.9px 203.415px;" id="elzf9erj80fak" class="animable"></path><g id="elwu34y8revj"><path d="M300.73,205.51c-.27-.26-.54-.51-.83-.74a16.65,16.65,0,0,0-9.91-3.88c-4,0-7.76,1.44-11.57,2.47a20.16,20.16,0,0,1-6.54.9,1.6,1.6,0,0,1,.23.38.3.3,0,0,1,0,.1.36.36,0,0,0,0-.1.89.89,0,0,0-.56-.41l-.46-.07c-.92-.17-.15-.17.46.07l.23,0h.1c0-.07-.09-.13-.13-.19a8.09,8.09,0,0,1-2.68-.77,4.08,4.08,0,0,0,.54.46,11,11,0,0,0,5.64,2.21,22.11,22.11,0,0,0,6.66-1c4.22-1.16,8.52-2.9,13-2.26.5.08,1.1.34,1.6.38a.46.46,0,0,1-.07-.07c-.31-.38.68.1.16.08h-.09a3.79,3.79,0,0,0,.45.34A11.24,11.24,0,0,1,300.73,205.51Z" style="opacity: 0.2; transform-origin: 284.9px 203.415px;" class="animable"></path></g><path d="M271.55,204.23a.89.89,0,0,1,.56.41,1.6,1.6,0,0,0-.23-.38h-.1Z" style="fill: rgb(228, 92, 58); transform-origin: 271.83px 204.435px;" id="elba63ymli8vb" class="animable"></path><path d="M315.85,231.4c-.05,0-2.68-1.93-3.06-1.56a3.84,3.84,0,0,1-1.86,1,4.39,4.39,0,0,1-1.4.09h-.08a13.52,13.52,0,0,0,1.61,1.42l.66.18A4.11,4.11,0,0,0,315.85,231.4Z" style="fill: rgb(228, 92, 58); transform-origin: 312.65px 231.242px;" id="elen6mypbfhta" class="animable"></path><g id="ele584me93wl"><path d="M315.85,231.4c-.05,0-2.68-1.93-3.06-1.56a3.84,3.84,0,0,1-1.86,1,4.39,4.39,0,0,1-1.4.09h-.08a13.52,13.52,0,0,0,1.61,1.42l.66.18A4.11,4.11,0,0,0,315.85,231.4Z" style="opacity: 0.2; transform-origin: 312.65px 231.242px;" class="animable"></path></g><path d="M309.3,230.93c.16.17.31.34.46.53-1.48-.65-1.87-.87-1.18-.67a2.78,2.78,0,0,0,.5.11l.22,0a8.35,8.35,0,0,1-1.31-1.66,12.77,12.77,0,0,1-1.06-2.92c-1-4.2-1-8.58-2-12.79a16.94,16.94,0,0,0-4.22-8.05,11.24,11.24,0,0,0-3.78-2.06l.09.08a12,12,0,0,1,1.95,2.19,17.38,17.38,0,0,1,2.43,5.37c1.27,4.59,1,9.46,2.24,14a8.92,8.92,0,0,0,2.82,4.77,14.65,14.65,0,0,0,4.58,2.45,13.52,13.52,0,0,1-1.61-1.42Z" style="fill: rgb(228, 92, 58); transform-origin: 303.985px 217.85px;" id="elcsih0g7l5zo" class="animable"></path><path d="M308.58,230.79c-.69-.2-.3,0,1.18.67-.15-.19-.3-.36-.46-.53l-.22,0A2.78,2.78,0,0,1,308.58,230.79Z" style="fill: rgb(228, 92, 58); transform-origin: 309.005px 231.088px;" id="el0ggzbp34m5fq" class="animable"></path><path d="M229.63,184.88l-.36-.09c.07-.1.22,0,.36.09l.21.05,0,0c-.13-.21-.37-.38-.52-.58a7,7,0,0,1-1.36-4,19.4,19.4,0,0,1-2.85.3,6.32,6.32,0,0,0,.48,1.25,7.4,7.4,0,0,0,3.12,2.95,7.56,7.56,0,0,0,1.22.32A2.53,2.53,0,0,0,229.63,184.88Z" style="fill: rgb(228, 92, 58); transform-origin: 227.52px 182.76px;" id="elqeg3gzw85o7" class="animable"></path><path d="M274.85,182.74a7.45,7.45,0,0,0-2-2.21,16.5,16.5,0,0,0-9.28-3.25A46.13,46.13,0,0,0,252,178.9a77,77,0,0,0-12.54,4.3,21,21,0,0,1-6.54,2,9.14,9.14,0,0,1-1.17,0,7.16,7.16,0,0,1-1.79-.1c0,.06,0,0-.06,0a7.56,7.56,0,0,1-1.22-.32c.26.15.53.29.8.43a12.68,12.68,0,0,0,5.37,1.67c4.52.15,8.78-2.66,12.89-4.17a67.32,67.32,0,0,1,14.11-3.52,25.33,25.33,0,0,1,5.77-.27,12.43,12.43,0,0,1,2.63.48l-.18-.14.33.15c.42.19.43.2,0,.05l-.15-.05h0l.25.21.42.42A13.2,13.2,0,0,1,274.85,182.74Z" style="fill: rgb(228, 92, 58); transform-origin: 251.765px 182.083px;" id="el6paoff5vf1x" class="animable"></path><g id="elwas1csy3ep"><path d="M274.85,182.74a7.45,7.45,0,0,0-2-2.21,16.5,16.5,0,0,0-9.28-3.25A46.13,46.13,0,0,0,252,178.9a77,77,0,0,0-12.54,4.3,21,21,0,0,1-6.54,2,9.14,9.14,0,0,1-1.17,0,7.16,7.16,0,0,1-1.79-.1c0,.06,0,0-.06,0a7.56,7.56,0,0,1-1.22-.32c.26.15.53.29.8.43a12.68,12.68,0,0,0,5.37,1.67c4.52.15,8.78-2.66,12.89-4.17a67.32,67.32,0,0,1,14.11-3.52,25.33,25.33,0,0,1,5.77-.27,12.43,12.43,0,0,1,2.63.48l-.18-.14.33.15c.42.19.43.2,0,.05l-.15-.05h0l.25.21.42.42A13.2,13.2,0,0,1,274.85,182.74Z" style="opacity: 0.2; transform-origin: 251.765px 182.083px;" class="animable"></path></g><path d="M229.91,185.13H230l-.13-.21-.21-.05A2.53,2.53,0,0,1,229.91,185.13Z" style="fill: rgb(228, 92, 58); transform-origin: 229.83px 185px;" id="elmson3ki4u1m" class="animable"></path><path d="M230,185.14h-.06C230,185.18,230,185.2,230,185.14Z" style="fill: rgb(228, 92, 58); transform-origin: 229.97px 185.159px;" id="elc87nhg6g5p" class="animable"></path><path d="M270.44,179.49c.4.15.39.14,0-.05l-.33-.15.18.14h0Z" style="fill: rgb(228, 92, 58); transform-origin: 270.423px 179.442px;" id="el7gs8fvs6yvm" class="animable"></path><path d="M231.76,185.24a7.89,7.89,0,0,1-1.08-.1c-.1,0-.49-.12-.84-.21l.13.21A7.16,7.16,0,0,0,231.76,185.24Z" style="fill: rgb(228, 92, 58); transform-origin: 230.8px 185.094px;" id="el8v5vswgsfst" class="animable"></path><path d="M320.67,166.24c.16,0,.47-.55.1-.17C320.72,166.17,320.69,166.24,320.67,166.24Z" style="fill: rgb(228, 92, 58); transform-origin: 320.807px 166.088px;" id="elbbjtsrx9fm" class="animable"></path><path d="M322.5,158.59a4.82,4.82,0,0,0-.84,1.6c-.1,1.16,0,2.32-.24,3.48-.05.3-.11.59-.18.88a12.57,12.57,0,0,1-.52,2.28,20.65,20.65,0,0,0,2.29-4.55c.43-1.31,1-3.52.36-4.82C323.35,157.42,322.53,158.56,322.5,158.59Z" style="fill: rgb(228, 92, 58); transform-origin: 322.189px 162.144px;" id="eluzeqd6564th" class="animable"></path><g id="elmmjrvu54nis"><path d="M322.5,158.59a4.82,4.82,0,0,0-.84,1.6c-.1,1.16,0,2.32-.24,3.48-.05.3-.11.59-.18.88a12.57,12.57,0,0,1-.52,2.28,20.65,20.65,0,0,0,2.29-4.55c.43-1.31,1-3.52.36-4.82C323.35,157.42,322.53,158.56,322.5,158.59Z" style="opacity: 0.2; transform-origin: 322.189px 162.144px;" class="animable"></path></g><path d="M321,165.43s-.12.41-.21.64c.37-.38.06.17-.1.17,0,0,.05-.07.1-.17l-.19.2a12.91,12.91,0,0,1-5.87,3.68c-.4.13-.79,1-1,1.34-.1.16-.66,1.49-.74,1.5,3.28-.61,5.75-2.91,7.52-5.62.08-.11.15-.23.22-.34a12.57,12.57,0,0,0,.52-2.28C321.16,164.85,321.08,165.14,321,165.43Z" style="fill: rgb(228, 92, 58); transform-origin: 317.12px 168.67px;" id="el1ea3sds7642" class="animable"></path><path d="M188.26,213.58c.1.14.73.07.2,0C188.35,213.59,188.27,213.6,188.26,213.58Z" style="fill: rgb(228, 92, 58); transform-origin: 188.465px 213.62px;" id="elhgfxdmrchda" class="animable"></path><path d="M195.58,210.71a4.43,4.43,0,0,0-1.78.22c-1,.58-1.93,1.3-3,1.8l-.83.35a11.94,11.94,0,0,1-2.16.88,20.39,20.39,0,0,0,5-.73c1.32-.4,3.48-1.17,4.16-2.47C197,210.72,195.62,210.71,195.58,210.71Z" style="fill: rgb(228, 92, 58); transform-origin: 192.39px 212.328px;" id="elnpqj3ri1av" class="animable"></path><g id="elip9x0bcnv3g"><path d="M195.58,210.71a4.43,4.43,0,0,0-1.78.22c-1,.58-1.93,1.3-3,1.8l-.83.35a11.94,11.94,0,0,1-2.16.88,20.39,20.39,0,0,0,5-.73c1.32-.4,3.48-1.17,4.16-2.47C197,210.72,195.62,210.71,195.58,210.71Z" style="opacity: 0.2; transform-origin: 192.39px 212.328px;" class="animable"></path></g><path d="M189.11,213.38c-.05,0-.41.13-.65.18.53.09-.1.16-.2,0,0,0,.09,0,.2,0l-.27,0a12.86,12.86,0,0,1-6.38-2.71c-.34-.25-1.28-.07-1.67,0-.18,0-1.6.31-1.65.25,2.38,2.34,5.68,3.05,8.92,2.95l.4,0a11.94,11.94,0,0,0,2.16-.88C189.69,213.19,189.4,213.29,189.11,213.38Z" style="fill: rgb(228, 92, 58); transform-origin: 184.23px 212.39px;" id="elh5vxg7kt94h" class="animable"></path><path d="M313.11,197.88c0-.13-.07-.25-.1-.37h0C312.81,197.19,312.85,197.32,313.11,197.88Z" style="fill: rgb(228, 92, 58); transform-origin: 312.997px 197.609px;" id="elhoqtnfkhwot" class="animable"></path><path d="M317.08,203.07v-.17C317,202.67,317,202.73,317.08,203.07Z" style="fill: rgb(228, 92, 58); transform-origin: 317.05px 202.916px;" id="eldqx6ybrbmoj" class="animable"></path><path d="M312.84,196.34a7.51,7.51,0,0,1,.06-1.64,8.19,8.19,0,0,1,1.41-3.44,8.61,8.61,0,0,1,1.27-1.43,19.18,19.18,0,0,0,1.37-1.49,4.12,4.12,0,0,0-.81-1.89,3.72,3.72,0,0,0-1.06.14,3,3,0,0,0-.71.46,7.92,7.92,0,0,0-1.3,1.35,7.53,7.53,0,0,0-1.39,3.09,10.67,10.67,0,0,0,1.2,6.56v0a9.52,9.52,0,0,1,0-1.51A1.5,1.5,0,0,1,312.84,196.34Z" style="fill: rgb(228, 92, 58); transform-origin: 314.265px 192.25px;" id="elolhlpsahxh" class="animable"></path><path d="M317.08,203.07a1.09,1.09,0,0,1,0,.18l0,0v-.19Z" style="fill: rgb(228, 92, 58); transform-origin: 317.082px 203.155px;" id="elruvhqk4rfyc" class="animable"></path><path d="M318.31,206a8.72,8.72,0,0,0-1.3-4.14,6.73,6.73,0,0,1,.07,1s0,.09,0,.15c.11.29.1.36,0,.22v.14a5.77,5.77,0,0,1-.13,1.25,6.59,6.59,0,0,1-.61,1.62,22.17,22.17,0,0,1-2.74,3.65c-.28.35,1.11,2.35,1,2.41C316.52,210.75,318.35,208.63,318.31,206Z" style="fill: rgb(228, 92, 58); transform-origin: 315.937px 207.08px;" id="elqrlia9xj40m" class="animable"></path><path d="M318.31,206a8.72,8.72,0,0,0-1.3-4.14,6.73,6.73,0,0,1,.07,1s0,.09,0,.15c.11.29.1.36,0,.22v.14a5.77,5.77,0,0,1-.13,1.25,6.59,6.59,0,0,1-.61,1.62,22.17,22.17,0,0,1-2.74,3.65c-.28.35,1.11,2.35,1,2.41C316.52,210.75,318.35,208.63,318.31,206Z" style="fill: rgb(228, 92, 58); transform-origin: 315.937px 207.08px;" id="elf077n2qoh8" class="animable"></path><path d="M317.12,203.05c0-.06,0-.11,0-.15v.17h0v.19C317.22,203.41,317.23,203.34,317.12,203.05Z" style="fill: rgb(228, 92, 58); transform-origin: 317.159px 203.118px;" id="elfr2cf9jlyih" class="animable"></path><path d="M317.08,202.9a6.73,6.73,0,0,0-.07-1,8.29,8.29,0,0,0-1.33-1.7c-.47-.45-1-.84-1.47-1.29s-.77-1.07-1.2-1.4c0,.12.06.24.1.37-.26-.56-.3-.69-.11-.38h0v0c-.06-.31-.11-.61-.14-.92a9.52,9.52,0,0,0,0,1.51,12.05,12.05,0,0,0,1.65,2.82,8.72,8.72,0,0,0,1.23,1.2c.29.25.6.47.88.73l.28.25a1.94,1.94,0,0,0,.14.18,1.09,1.09,0,0,0,0-.18C317,202.73,317,202.67,317.08,202.9Z" style="fill: rgb(228, 92, 58); transform-origin: 314.955px 199.925px;" id="elcmh66aakj9" class="animable"></path><g id="elvfbeo5bi2hr"><path d="M317.08,202.9a6.73,6.73,0,0,0-.07-1,8.29,8.29,0,0,0-1.33-1.7c-.47-.45-1-.84-1.47-1.29s-.77-1.07-1.2-1.4c0,.12.06.24.1.37-.26-.56-.3-.69-.11-.38h0v0c-.06-.31-.11-.61-.14-.92a9.52,9.52,0,0,0,0,1.51,12.05,12.05,0,0,0,1.65,2.82,8.72,8.72,0,0,0,1.23,1.2c.29.25.6.47.88.73l.28.25a1.94,1.94,0,0,0,.14.18,1.09,1.09,0,0,0,0-.18C317,202.73,317,202.67,317.08,202.9Z" style="opacity: 0.2; transform-origin: 314.955px 199.925px;" class="animable"></path></g><path d="M290.16,137.28s0,0,0,0Z" style="fill: rgb(228, 92, 58); transform-origin: 290.16px 137.28px;" id="ely5p9dph4pjl" class="animable"></path><path d="M300.05,125.69a25.72,25.72,0,0,0-8,4.59,14.89,14.89,0,0,0-3,3.1c-.75,1.19-.28,2.12.41,3.2a11.35,11.35,0,0,0,.82,1.18v-.35a4,4,0,0,1,.21-1l-.11,0h0a3.17,3.17,0,0,1,.38-.7,20.06,20.06,0,0,1,4.75-4.58,32,32,0,0,1,5.86-3.53S300.31,125.59,300.05,125.69Zm-9.89,11.59s0,0,0,0Z" style="fill: rgb(228, 92, 58); transform-origin: 295.019px 131.723px;" id="elz7j8cxxuehl" class="animable"></path><path d="M307.67,137.18h0l0-.06A.64.64,0,0,0,307.67,137.18Z" style="fill: rgb(228, 92, 58); transform-origin: 307.67px 137.15px;" id="el74ssf0bx1j" class="animable"></path><path d="M308.13,136.28a.69.69,0,0,0-.05.13,1.24,1.24,0,0,1-.1.2,3.1,3.1,0,0,1-.29.5l0,.06a6.16,6.16,0,0,0-1.35-.17,34.43,34.43,0,0,0-5,.49c-1.66.22-3.31.48-4.94.79-1.47.27-3.29,1-4.78.51a3.06,3.06,0,0,1-1.42-1v-.35a4,4,0,0,1,.21-1,7.23,7.23,0,0,0,2.49-.28q3.27-.67,6.57-1.13a23.29,23.29,0,0,1,5.88-.47A3.82,3.82,0,0,1,308.13,136.28Z" style="fill: rgb(228, 92, 58); transform-origin: 299.165px 136.745px;" id="elt6vg3i7mrnq" class="animable"></path><g id="elkms3mpb0wgb"><path d="M308.13,136.28a.69.69,0,0,0-.05.13,1.24,1.24,0,0,1-.1.2,3.1,3.1,0,0,1-.29.5l0,.06a6.16,6.16,0,0,0-1.35-.17,34.43,34.43,0,0,0-5,.49c-1.66.22-3.31.48-4.94.79-1.47.27-3.29,1-4.78.51a3.06,3.06,0,0,1-1.42-1v-.35a4,4,0,0,1,.21-1,7.23,7.23,0,0,0,2.49-.28q3.27-.67,6.57-1.13a23.29,23.29,0,0,1,5.88-.47A3.82,3.82,0,0,1,308.13,136.28Z" style="opacity: 0.2; transform-origin: 299.165px 136.745px;" class="animable"></path></g><path d="M308.1,140.93a56.47,56.47,0,0,1-5.87,3.46c-2,1.18-4.06,2.39-6.09,3.59A10.73,10.73,0,0,0,293.2,150h.06a2,2,0,0,0-.29,1.64,2.35,2.35,0,0,0,.17.44,4.86,4.86,0,0,1-1.08-1.28c-.63-1-1.32-1.9-.6-3a8.63,8.63,0,0,1,3.11-2.28q4.8-2.75,9.55-5.55c1.12-.67,3.06-1.46,3.55-2.83a.64.64,0,0,1,0-.07,3.1,3.1,0,0,0,.29-.5,1.24,1.24,0,0,0,.1-.2.69.69,0,0,1,.05-.13c.14.2.27.4.41.62a3.79,3.79,0,0,1,.86,2.1A2.86,2.86,0,0,1,308.1,140.93Z" style="fill: rgb(228, 92, 58); transform-origin: 300.266px 144.16px;" id="elfty355n9rf6" class="animable"></path><path d="M310.53,152.69a17.5,17.5,0,0,1-7.12,4.66c-.3.11-1.57-2.3-1.51-2.33a32.22,32.22,0,0,0,4.48-2.69,20.39,20.39,0,0,0,2-1.7,4.71,4.71,0,0,0,.9-1,1.28,1.28,0,0,0,.12-.32,3.37,3.37,0,0,1,.34.09,1.87,1.87,0,0,1,.4.2c.26.19.38.25.37.16l.34.25A2.18,2.18,0,0,1,310.53,152.69Z" style="fill: rgb(228, 92, 58); transform-origin: 306.534px 153.332px;" id="elnvk6awwsulc" class="animable"></path><path d="M310.85,150l-.34-.25a3.6,3.6,0,0,0-.77-.36l-.34-.1h0a3.76,3.76,0,0,0-1.06-.06,14.73,14.73,0,0,0-2.62.56l-5.49,1.42a45.6,45.6,0,0,1-5.36,1.33,2.22,2.22,0,0,1-1.72-.39,2.35,2.35,0,0,1-.17-.44,2,2,0,0,1,.29-1.64,20.41,20.41,0,0,0,2.77-.74l4.65-1.21c1.58-.41,3.15-.85,4.74-1.22a4,4,0,0,1,3.3.27,7.92,7.92,0,0,1,2.13,2.82Z" style="fill: rgb(228, 92, 58); transform-origin: 301.888px 149.621px;" id="elwvgqqq96ulr" class="animable"></path><g id="eldf815yk90fv"><path d="M310.85,150l-.34-.25a3.6,3.6,0,0,0-.77-.36l-.34-.1h0a3.76,3.76,0,0,0-1.06-.06,14.73,14.73,0,0,0-2.62.56l-5.49,1.42a45.6,45.6,0,0,1-5.36,1.33,2.22,2.22,0,0,1-1.72-.39,2.35,2.35,0,0,1-.17-.44,2,2,0,0,1,.29-1.64,20.41,20.41,0,0,0,2.77-.74l4.65-1.21c1.58-.41,3.15-.85,4.74-1.22a4,4,0,0,1,3.3.27,7.92,7.92,0,0,1,2.13,2.82Z" style="opacity: 0.2; transform-origin: 301.888px 149.621px;" class="animable"></path></g><path d="M309.74,149.36a3.37,3.37,0,0,0-.34-.09h0Z" style="fill: rgb(228, 92, 58); transform-origin: 309.57px 149.315px;" id="elh2qwr83qpkn" class="animable"></path><path d="M310.14,149.56a1.87,1.87,0,0,0-.4-.2,3.6,3.6,0,0,1,.77.36C310.52,149.81,310.4,149.75,310.14,149.56Z" style="fill: rgb(228, 92, 58); transform-origin: 310.125px 149.561px;" id="elne62pzzsw9" class="animable"></path><path d="M171.27,180.69s0,0,0,0Z" style="fill: rgb(228, 92, 58); transform-origin: 171.27px 180.69px;" id="el3hiff518uto" class="animable"></path><path d="M171.78,169.69a18.73,18.73,0,0,0-2.67,6.29,10.09,10.09,0,0,0-.37,3.13c.1,1,.82,1.29,1.73,1.56a7.32,7.32,0,0,0,1.05.26,1.46,1.46,0,0,1-.16-.19,2.5,2.5,0,0,1-.36-.66l-.07,0h0a1.74,1.74,0,0,1-.1-.56,14,14,0,0,1,.7-4.74,23.62,23.62,0,0,1,1.86-4.69S171.89,169.52,171.78,169.69Zm-.51,11s0,0,0,0Z" style="fill: rgb(228, 92, 58); transform-origin: 171.061px 175.294px;" id="el0nv1fbg7l5g" class="animable"></path><path d="M181.71,172.41h0v0A.08.08,0,0,0,181.71,172.41Z" style="fill: rgb(228, 92, 58); transform-origin: 181.71px 172.41px;" id="elgna6gz48esl" class="animable"></path><path d="M181.56,171.71l0,.09a.94.94,0,0,1,0,.16,2.7,2.7,0,0,1,.06.41v0a4.42,4.42,0,0,0-.88.54,26,26,0,0,0-2.75,2.6c-.89.89-1.75,1.81-2.59,2.75s-1.51,2.08-2.62,2.52a2.34,2.34,0,0,1-1.33.1,1.46,1.46,0,0,1-.16-.19,2.5,2.5,0,0,1-.36-.66,5.73,5.73,0,0,0,1.36-1.33c1.1-1.26,2.23-2.5,3.41-3.7a18.51,18.51,0,0,1,3.3-3A3,3,0,0,1,181.56,171.71Z" style="fill: rgb(228, 92, 58); transform-origin: 176.275px 176.24px;" id="el2zezalh9vsy" class="animable"></path><g id="elzxej4ke1ppi"><path d="M181.56,171.71l0,.09a.94.94,0,0,1,0,.16,2.7,2.7,0,0,1,.06.41v0a4.42,4.42,0,0,0-.88.54,26,26,0,0,0-2.75,2.6c-.89.89-1.75,1.81-2.59,2.75s-1.51,2.08-2.62,2.52a2.34,2.34,0,0,1-1.33.1,1.46,1.46,0,0,1-.16-.19,2.5,2.5,0,0,1-.36-.66,5.73,5.73,0,0,0,1.36-1.33c1.1-1.26,2.23-2.5,3.41-3.7a18.51,18.51,0,0,1,3.3-3A3,3,0,0,1,181.56,171.71Z" style="opacity: 0.2; transform-origin: 176.275px 176.24px;" class="animable"></path></g><path d="M183.72,174.27a41.26,41.26,0,0,1-1.9,4.65c-.67,1.6-1.32,3.22-2,4.83a7.64,7.64,0,0,0-.8,2.51l0,0a1.4,1.4,0,0,0,.59,1l.3.16a3.94,3.94,0,0,1-1.24-.2c-.82-.23-1.67-.42-1.76-1.36a6.2,6.2,0,0,1,.8-2.71c1.06-2.51,2.1-5,3.12-7.53.37-.89,1.16-2.23.81-3.22a.08.08,0,0,1,0,0,2.7,2.7,0,0,0-.06-.41.94.94,0,0,0,0-.16l0-.09.54.14a2.79,2.79,0,0,1,1.49.75A2,2,0,0,1,183.72,174.27Z" style="fill: rgb(228, 92, 58); transform-origin: 180.378px 179.58px;" id="el8it58n7iasm" class="animable"></path><path d="M190.67,179.58a12.69,12.69,0,0,1-2.09,5.89c-.13.2-2-.52-2-.56a23.81,23.81,0,0,0,1.42-3.58,13.91,13.91,0,0,0,.41-1.87,3.36,3.36,0,0,0,.05-1,1.25,1.25,0,0,0-.07-.23l.24-.11A2,2,0,0,1,189,178c.25,0,.34,0,.3-.08l.31,0A1.51,1.51,0,0,1,190.67,179.58Z" style="fill: rgb(228, 92, 58); transform-origin: 188.633px 181.713px;" id="elu99r18kp1j" class="animable"></path><path d="M189.58,177.93l-.31,0a2.65,2.65,0,0,0-.63.16,1.36,1.36,0,0,0-.25.11h0a3,3,0,0,0-.66.47,10.59,10.59,0,0,0-1.31,1.53l-2.62,3.36a35,35,0,0,1-2.59,3.24,1.84,1.84,0,0,1-1.22.6l-.3-.16a1.4,1.4,0,0,1-.59-1,15.68,15.68,0,0,0,1.31-1.71l2.22-2.84c.75-1,1.49-2,2.27-2.9a3.25,3.25,0,0,1,2.1-1.4,6,6,0,0,1,2.59.55Z" style="fill: rgb(228, 92, 58); transform-origin: 184.345px 182.395px;" id="elof6ndtoz3pm" class="animable"></path><g id="elyp6fvbc4nfn"><path d="M189.58,177.93l-.31,0a2.65,2.65,0,0,0-.63.16,1.36,1.36,0,0,0-.25.11h0a3,3,0,0,0-.66.47,10.59,10.59,0,0,0-1.31,1.53l-2.62,3.36a35,35,0,0,1-2.59,3.24,1.84,1.84,0,0,1-1.22.6l-.3-.16a1.4,1.4,0,0,1-.59-1,15.68,15.68,0,0,0,1.31-1.71l2.22-2.84c.75-1,1.49-2,2.27-2.9a3.25,3.25,0,0,1,2.1-1.4,6,6,0,0,1,2.59.55Z" style="opacity: 0.2; transform-origin: 184.345px 182.395px;" class="animable"></path></g><path d="M188.64,178.12l-.24.11h0A1.36,1.36,0,0,1,188.64,178.12Z" style="fill: rgb(228, 92, 58); transform-origin: 188.52px 178.175px;" id="elg4h24lkobkj" class="animable"></path><path d="M189,178a2,2,0,0,0-.33.08,2.65,2.65,0,0,1,.63-.16S189.22,178,189,178Z" style="fill: rgb(228, 92, 58); transform-origin: 188.985px 178px;" id="elm6604fl6w9r" class="animable"></path><path d="M347.29,188.3c.75.57,1.56,1.08,2.35,1.57,1.5.92,2.77,1.7,3.55,3.35,1.46,3.13.54,6.74.18,10-.05.41,2.14,1.36,2.12,1.42,1-2.95,1.46-6.56.26-9.52a8.72,8.72,0,0,0-3.08-3.67l-.8-.47Z" style="fill: rgb(228, 92, 58); transform-origin: 351.878px 196.47px;" id="elixavk798oxm" class="animable"></path><g id="el4zb1ji52xzr"><path d="M347.29,188.3c.75.57,1.56,1.08,2.35,1.57,1.5.92,2.77,1.7,3.55,3.35,1.46,3.13.54,6.74.18,10-.05.41,2.14,1.36,2.12,1.42,1-2.95,1.46-6.56.26-9.52a8.72,8.72,0,0,0-3.08-3.67l-.8-.47Z" style="opacity: 0.2; transform-origin: 351.878px 196.47px;" class="animable"></path></g><path d="M345.69,180.77c.15-3.76,1.85-7.15,2.93-10.69.07-.23-1.74-1.26-1.79-1.19-3.34,5.08-5.89,13.2-.94,18.2a11.58,11.58,0,0,0,1.4,1.21l4.58,2.67.8.47a38.48,38.48,0,0,0-3.43-2.17C346.46,187.62,345.57,183.78,345.69,180.77Z" style="fill: rgb(228, 92, 58); transform-origin: 347.895px 180.163px;" id="elns7kr9bxz9d" class="animable"></path></g><g id="freepik--Fireworks--inject-14" class="animable" style="transform-origin: 244.302px 138.257px;"><path d="M251.65,97.12,268.2,74.59a.79.79,0,0,1,1.09-.24.8.8,0,0,1,.24,1.09l-.06.08h0Z" style="fill: rgb(228, 92, 58); transform-origin: 260.65px 85.673px;" id="el3fyxxbl7k39" class="animable"></path><path d="M251.65,104.71l34,2.9a.79.79,0,1,1-.14,1.58h0Z" style="fill: rgb(228, 92, 58); transform-origin: 269.012px 106.952px;" id="el6vf35sa881o" class="animable"></path><path d="M249.28,111.82,265,135.72a.79.79,0,1,1-1.33.87h0Z" style="fill: rgb(228, 92, 58); transform-origin: 257.205px 124.385px;" id="eld2q1cz61yi4" class="animable"></path><path d="M243,111.82l-7.9,30.87a.79.79,0,0,1-1.53-.39h0Z" style="fill: rgb(228, 92, 58); transform-origin: 238.276px 127.538px;" id="elirj2f8eqmx" class="animable"></path><path d="M237.17,108.4l-23.51,16.24a.8.8,0,0,1-1.1-.19h0a.8.8,0,0,1,.21-1.1h0Z" style="fill: rgb(228, 92, 58); transform-origin: 224.798px 116.59px;" id="ele5gsul946pj" class="animable"></path><path d="M237.17,100.24l-24.23-8.48a.81.81,0,0,1,.5-1.53h.07Z" style="fill: rgb(228, 92, 58); transform-origin: 224.818px 95.2267px;" id="el01fzabqpa06d" class="animable"></path><path d="M243,95.63l-5.09-23.94a.81.81,0,0,1,.63-1,.79.79,0,0,1,1,.62v.06Z" style="fill: rgb(228, 92, 58); transform-origin: 240.442px 83.1441px;" id="el7n0cgcd0v3l" class="animable"></path><path d="M247.11,98.73,248.5,86a.79.79,0,0,1,1.58.17h0a.17.17,0,0,1,0,.1Z" style="fill: rgb(228, 92, 58); transform-origin: 248.599px 92.0102px;" id="elprqesn6a08" class="animable"></path><path d="M250.6,102.08l9.47-2.62a.81.81,0,0,1,1,.56.8.8,0,0,1-.56,1h-.13Z" style="fill: rgb(228, 92, 58); transform-origin: 255.851px 100.755px;" id="el9dliffsf9xl" class="animable"></path><path d="M249.28,106.56l10.14,4.56a.81.81,0,0,1,.4,1.06.8.8,0,0,1-1.05.39.21.21,0,0,1-.1-.06Z" style="fill: rgb(228, 92, 58); transform-origin: 254.584px 109.6px;" id="elwgek3rvvhng" class="animable"></path><path d="M246.39,109.19l2.23,12.34a.79.79,0,0,1-.63.92h0a.79.79,0,0,1-.92-.63h0v-.1Z" style="fill: rgb(228, 92, 58); transform-origin: 247.512px 115.827px;" id="ele0pbp1dtuut" class="animable"></path><path d="M242.34,107.3l-7.39,10a.79.79,0,0,1-1.1.17.8.8,0,0,1-.17-1.11l.07-.08Z" style="fill: rgb(228, 92, 58); transform-origin: 237.934px 112.46px;" id="el1zqpry466jd" class="animable"></path><path d="M240.28,103.21l-10.89,2.28a.8.8,0,1,1-.33-1.57h.11Z" style="fill: rgb(228, 92, 58); transform-origin: 234.351px 104.359px;" id="el8a5loveovmk" class="animable"></path><path d="M242.34,99.42l-7.89-9a.79.79,0,0,1,1.16-1l.06.09Z" style="fill: rgb(228, 92, 58); transform-origin: 238.353px 94.3485px;" id="el7lkcvpab5ro" class="animable"></path><path d="M270.34,94.7,278.93,92a.38.38,0,0,1,.48.24v0a.4.4,0,0,1-.25.49h0Z" style="fill: rgb(228, 92, 58); transform-origin: 274.883px 93.3403px;" id="els40wgpu3ovs" class="animable"></path><path d="M267.18,118l7.71,4.4a.4.4,0,1,1-.39.69h0Z" style="fill: rgb(228, 92, 58); transform-origin: 271.161px 120.586px;" id="el0qtolnaosk3" class="animable"></path><path d="M248.2,132.22v7.28a.4.4,0,0,1-.4.4.39.39,0,0,1-.39-.4v0Z" style="fill: rgb(228, 92, 58); transform-origin: 247.805px 136.06px;" id="eljgcf65xza2" class="animable"></path><path d="M229.28,126.56l-5.75,7.36a.4.4,0,0,1-.66-.44l0,0h0Z" style="fill: rgb(228, 92, 58); transform-origin: 226.054px 130.308px;" id="el5j406erc2js" class="animable"></path><path d="M219.54,107l-9.47.3c-.23,0-.41,0-.42-.24s.16-.26.38-.26h0Z" style="fill: rgb(228, 92, 58); transform-origin: 214.595px 107.05px;" id="el2wqmn9aqwdd" class="animable"></path><path d="M227.44,81.55l-6-6.65a.4.4,0,0,1,.56-.56h0Z" style="fill: rgb(228, 92, 58); transform-origin: 224.4px 77.905px;" id="elwdyqho96n9b" class="animable"></path><path d="M251.65,75.07,253.79,67a.39.39,0,0,1,.49-.29.4.4,0,0,1,.3.49h0Z" style="fill: rgb(228, 92, 58); transform-origin: 253.121px 70.8822px;" id="elgt6xqc4jp0o" class="animable"></path><path d="M244.81,96.75,244,87.87a.4.4,0,0,1,.79-.07Z" style="fill: rgb(228, 92, 58); transform-origin: 244.405px 92.1186px;" id="els27gps7lcv" class="animable"></path><path d="M250,96.2l2.52-6.39a.4.4,0,0,1,.51-.23.41.41,0,0,1,.23.52v.05Z" style="fill: rgb(228, 92, 58); transform-origin: 251.642px 92.8778px;" id="elr5etsrkkn7" class="animable"></path><path d="M251.76,99.78l5.92-3a.39.39,0,0,1,.52.17h0a.4.4,0,0,1-.17.53H258Z" style="fill: rgb(228, 92, 58); transform-origin: 255.001px 98.2596px;" id="elynagsdyqbdi" class="animable"></path><path d="M252.62,106.25l5.3.66a.4.4,0,0,1,.34.44.4.4,0,0,1-.45.35h-.05Z" style="fill: rgb(228, 92, 58); transform-origin: 255.441px 106.977px;" id="eliyw6jla61a" class="animable"></path><path d="M249.28,108.4l3.91,3.34a.4.4,0,1,1-.52.6h0Z" style="fill: rgb(228, 92, 58); transform-origin: 251.324px 110.436px;" id="elj0wmqo1yy98" class="animable"></path><path d="M244.41,111.56l.4,6.32a.39.39,0,0,1-.37.41h0a.39.39,0,0,1-.42-.37h0v0Z" style="fill: rgb(228, 92, 58); transform-origin: 244.415px 114.926px;" id="elgrjp44lrmf6" class="animable"></path><path d="M240.81,111.56l-2.13,4.06a.41.41,0,0,1-.54.17.38.38,0,0,1-.16-.53h0v0Z" style="fill: rgb(228, 92, 58); transform-origin: 239.37px 113.696px;" id="eloa6qwaoo7t" class="animable"></path><path d="M238.7,105.44,235,107.65a.39.39,0,0,1-.54-.12h0a.41.41,0,0,1,.14-.55h.07Z" style="fill: rgb(228, 92, 58); transform-origin: 236.553px 106.576px;" id="el0jgltdnhafia" class="animable"></path><path d="M240.28,107.3,237,110.9a.41.41,0,0,1-.6-.54h.05Z" style="fill: rgb(228, 92, 58); transform-origin: 238.309px 109.143px;" id="eligcdiw3od4c" class="animable"></path><path d="M238.49,102.48l-3.16.39a.39.39,0,0,1-.44-.34.4.4,0,0,1,.35-.45h.09Z" style="fill: rgb(228, 92, 58); transform-origin: 236.688px 102.477px;" id="ell1hxvg0q07h" class="animable"></path><path d="M239.58,99.12,235.08,96a.4.4,0,0,1,.45-.65h.06Z" style="fill: rgb(228, 92, 58); transform-origin: 237.268px 97.2149px;" id="elr0ehnvipdyn" class="animable"></path><path d="M100.77,161.61,99,149.9a.73.73,0,0,1,.61-.83.74.74,0,0,1,.84.61h0a.29.29,0,0,1,0,.09Z" style="fill: rgb(228, 92, 58); transform-origin: 99.8809px 155.336px;" id="el8ejwierwzng" class="animable"></path><path d="M104.68,163.77l7.81-4.6a.73.73,0,0,1,.74,1.27l-.11,0Z" style="fill: rgb(228, 92, 58); transform-origin: 109.136px 161.421px;" id="elba9q6v7xamq" class="animable"></path><path d="M104.58,168.07l10.12,1.65a.73.73,0,1,1-.24,1.44l-.1,0Z" style="fill: rgb(228, 92, 58); transform-origin: 109.95px 169.621px;" id="elhdrfb12hb6b" class="animable"></path><path d="M102.62,171.11l4.94,10.46a.72.72,0,0,1-.34,1h0a.71.71,0,0,1-1-.34h0l0-.09Z" style="fill: rgb(228, 92, 58); transform-origin: 105.133px 176.885px;" id="elu7hwf8ktq6" class="animable"></path><path d="M98.57,170.38,94.36,181a.73.73,0,0,1-1.36-.53l0-.09Z" style="fill: rgb(228, 92, 58); transform-origin: 95.763px 175.915px;" id="eltbl7a69ssgn" class="animable"></path><path d="M95.75,167.24l-9.16,4.63a.73.73,0,0,1-1-.33.74.74,0,0,1,.33-1l.1,0Z" style="fill: rgb(228, 92, 58); transform-origin: 90.6294px 169.597px;" id="eld5735mvfsv" class="animable"></path><path d="M96.69,163.37l-9.18-6.1a.73.73,0,0,1,.8-1.18l.07.06Z" style="fill: rgb(228, 92, 58); transform-origin: 92.0002px 159.704px;" id="elj4wx0ddbqjb" class="animable"></path><path d="M98.25,160.4l-2.83-7.72a.37.37,0,0,1,.69-.25Z" style="fill: rgb(228, 92, 58); transform-origin: 96.8306px 156.315px;" id="elp76rxxts0v" class="animable"></path><path d="M102.77,158.66l.71-6.29a.37.37,0,0,1,.41-.33.38.38,0,0,1,.32.41v0Z" style="fill: rgb(228, 92, 58); transform-origin: 103.491px 155.349px;" id="el462t7bq5edh" class="animable"></path><path d="M105.16,161.44l4.55-4.11a.36.36,0,0,1,.51,0h0a.36.36,0,0,1,0,.51h0Z" style="fill: rgb(228, 92, 58); transform-origin: 107.743px 159.332px;" id="el4ip9qjvmdhm" class="animable"></path><path d="M107.48,167l4.87-.67a.36.36,0,0,1,.41.32.36.36,0,0,1-.31.41h0Z" style="fill: rgb(228, 92, 58); transform-origin: 110.122px 166.693px;" id="ellwrfoow0mn" class="animable"></path><path d="M105,169.71l4.27,2a.36.36,0,0,1-.31.65h0Z" style="fill: rgb(228, 92, 58); transform-origin: 107.238px 171.053px;" id="elzzucmggbbll" class="animable"></path><path d="M98.22,174.55l-.93,4.12a.37.37,0,0,1-.43.29.37.37,0,0,1-.28-.44h0a.09.09,0,0,1,0-.05Z" style="fill: rgb(228, 92, 58); transform-origin: 97.3957px 176.758px;" id="elh40xhhbbroe" class="animable"></path><path d="M94.88,169.6l-2.82,2.87a.36.36,0,0,1-.5,0h0a.37.37,0,0,1,0-.52l.06,0Z" style="fill: rgb(228, 92, 58); transform-origin: 93.1666px 171.085px;" id="elu61sz1lhs1" class="animable"></path><path d="M96.73,170.88l-2.06,4a.36.36,0,0,1-.51.09.36.36,0,0,1-.14-.43h0Z" style="fill: rgb(228, 92, 58); transform-origin: 95.3632px 172.959px;" id="el9jpw7j74jh5" class="animable"></path><path d="M94,167l-2.72,1.11a.37.37,0,0,1-.48-.21.35.35,0,0,1,.2-.47l.09,0Z" style="fill: rgb(228, 92, 58); transform-origin: 92.3851px 167.568px;" id="el8jknis6p1ao" class="animable"></path><path d="M94.15,163.76,89.39,162a.38.38,0,0,1-.22-.47.36.36,0,0,1,.47-.21h0Z" style="fill: rgb(228, 92, 58); transform-origin: 91.6507px 162.527px;" id="eljrzrxjjuige" class="animable"></path><path d="M100.08,179.75c.2.67.53,1.51.7,2.25a11.67,11.67,0,0,1,0,3.59,20.78,20.78,0,0,0-.49,3.5,4.27,4.27,0,0,0,.38,1.65,5.31,5.31,0,0,1,.63,2.3c.08,4.68.34,15.37.33,16.78.24,0,.43-11.68.38-17.36a6.71,6.71,0,0,0-.7-2.69,2.24,2.24,0,0,1-.15-.51,6.29,6.29,0,0,1,.08-1.94c.12-.57.28-1,.4-1.6a13.17,13.17,0,0,0,.1-4.26,5.37,5.37,0,0,0-.67-2.09,1.42,1.42,0,0,1-.26-1.05,9.83,9.83,0,0,0-.15-3.85c-.08-.28-.31-.55-.32-.31C100.2,179,99.65,178.29,100.08,179.75Z" style="fill: rgb(228, 92, 58); transform-origin: 100.968px 191.944px;" id="el3zuj78xywyg" class="animable"></path><path d="M101.63,167.17a.86.86,0,0,1-.86.85.85.85,0,0,1,0-1.7A.86.86,0,0,1,101.63,167.17Z" style="fill: rgb(228, 92, 58); transform-origin: 100.775px 167.17px;" id="el1cyuhx1be87" class="animable"></path><path d="M383.43,133.06,381,117.41a1,1,0,0,1,1.94-.3h0l0,.12Z" style="fill: rgb(228, 92, 58); transform-origin: 382.215px 124.755px;" id="elhwvibd90l9" class="animable"></path><path d="M388.65,136l10.45-6.15a1,1,0,0,1,1,1.69l-.15,0Z" style="fill: rgb(228, 92, 58); transform-origin: 394.543px 132.896px;" id="elyvn1bdm1gqb" class="animable"></path><path d="M388.52,141.7l13.53,2.2a1,1,0,1,1-.32,1.93l-.13,0Z" style="fill: rgb(228, 92, 58); transform-origin: 395.807px 143.799px;" id="elskd8gc2g64s" class="animable"></path><path d="M385.91,145.76l6.6,14a1,1,0,0,1-.46,1.3h0a1,1,0,0,1-1.3-.45h0l0-.12Z" style="fill: rgb(228, 92, 58); transform-origin: 389.254px 153.455px;" id="elf4457tzs7b" class="animable"></path><path d="M380.49,144.79,374.86,159a1,1,0,1,1-1.81-.71.22.22,0,0,1,.05-.11Z" style="fill: rgb(228, 92, 58); transform-origin: 376.68px 152.327px;" id="elg1lmgjktnwm" class="animable"></path><path d="M376.72,140.59l-12.25,6.2a1,1,0,0,1-.89-1.78l.14,0Z" style="fill: rgb(228, 92, 58); transform-origin: 369.917px 143.723px;" id="elp6hrs3qswp" class="animable"></path><path d="M378,135.41l-12.27-8.15a1,1,0,0,1,.05-1.38,1,1,0,0,1,1-.19l.11.08Z" style="fill: rgb(228, 92, 58); transform-origin: 371.739px 130.52px;" id="el33sxsm4aq9y" class="animable"></path><path d="M380.05,131.45l-3.77-10.33a.48.48,0,0,1,.29-.63.49.49,0,0,1,.62.29Z" style="fill: rgb(228, 92, 58); transform-origin: 378.148px 125.956px;" id="eloqt6qcjogda" class="animable"></path><path d="M386.1,129.12l1-8.41a.48.48,0,0,1,.53-.44.49.49,0,0,1,.44.54l0,.06Z" style="fill: rgb(228, 92, 58); transform-origin: 387.086px 124.694px;" id="el3rt51l1m3qz" class="animable"></path><path d="M389.3,132.83l6.09-5.49a.47.47,0,0,1,.67,0v0a.48.48,0,0,1,0,.68l-.05,0Z" style="fill: rgb(228, 92, 58); transform-origin: 392.751px 130.015px;" id="el3nd2r3440ca" class="animable"></path><path d="M392.4,140.26l6.51-.9a.49.49,0,1,1,.13,1l-.07,0Z" style="fill: rgb(228, 92, 58); transform-origin: 395.94px 139.858px;" id="eljv0ph4bpmv" class="animable"></path><path d="M389.11,143.89l5.71,2.74a.49.49,0,0,1,.23.65.5.5,0,0,1-.65.23h0Z" style="fill: rgb(228, 92, 58); transform-origin: 392.103px 145.722px;" id="el0g442n0savm8" class="animable"></path><path d="M380,150.36l-1.24,5.52a.51.51,0,0,1-.59.38.5.5,0,0,1-.37-.59h0s0,0,0-.07Z" style="fill: rgb(228, 92, 58); transform-origin: 378.895px 153.314px;" id="el9gocqj2chpr" class="animable"></path><path d="M375.55,143.75l-3.77,3.83a.47.47,0,0,1-.67,0l0,0a.49.49,0,0,1,0-.69l.07,0Z" style="fill: rgb(228, 92, 58); transform-origin: 373.259px 145.735px;" id="ellpp2ljbvqms" class="animable"></path><path d="M378,145.45l-2.74,5.34a.51.51,0,0,1-.69.13.49.49,0,0,1-.19-.58l.06,0Z" style="fill: rgb(228, 92, 58); transform-origin: 376.175px 148.226px;" id="elkchmyimulyj" class="animable"></path><path d="M374.36,140.29l-3.64,1.47a.49.49,0,1,1-.36-.91l.11,0Z" style="fill: rgb(228, 92, 58); transform-origin: 372.193px 141.047px;" id="elxkdiam3cvdg" class="animable"></path><path d="M374.58,135.94l-6.37-2.33a.49.49,0,1,1,.34-.91h0l.06,0Z" style="fill: rgb(228, 92, 58); transform-origin: 371.205px 134.291px;" id="ele6sh23zl06q" class="animable"></path><path d="M382.51,157.32c.26.89.71,2,.93,3a15.37,15.37,0,0,1,0,4.79,29.47,29.47,0,0,0-.66,4.68,5.76,5.76,0,0,0,.51,2.21,7.25,7.25,0,0,1,.85,3.08c.11,6.25.45,20.55.43,22.43.32,0,.59-15.61.52-23.21a8.92,8.92,0,0,0-.95-3.59A3,3,0,0,1,384,170a8,8,0,0,1,.1-2.59c.15-.77.37-1.39.52-2.15a17.42,17.42,0,0,0,.14-5.69,7.23,7.23,0,0,0-.89-2.79,1.93,1.93,0,0,1-.35-1.41,13.32,13.32,0,0,0-.19-5.15c-.12-.37-.42-.72-.43-.41C382.67,156.29,381.93,155.37,382.51,157.32Z" style="fill: rgb(228, 92, 58); transform-origin: 383.697px 173.6px;" id="elrdax3pa4ad" class="animable"></path><path d="M384.57,140.5a1.14,1.14,0,1,1-1.14-1.14A1.14,1.14,0,0,1,384.57,140.5Z" style="fill: rgb(228, 92, 58); transform-origin: 383.43px 140.5px;" id="el7eahcyp0v8d" class="animable"></path></g><defs>     <filter id="active" height="200%">         <feMorphology in="SourceAlpha" result="DILATED" operator="dilate" radius="2"></feMorphology>                <feFlood flood-color="#32DFEC" flood-opacity="1" result="PINK"></feFlood>        <feComposite in="PINK" in2="DILATED" operator="in" result="OUTLINE"></feComposite>        <feMerge>            <feMergeNode in="OUTLINE"></feMergeNode>            <feMergeNode in="SourceGraphic"></feMergeNode>        </feMerge>    </filter>    <filter id="hover" height="200%">        <feMorphology in="SourceAlpha" result="DILATED" operator="dilate" radius="2"></feMorphology>                <feFlood flood-color="#ff0000" flood-opacity="0.5" result="PINK"></feFlood>        <feComposite in="PINK" in2="DILATED" operator="in" result="OUTLINE"></feComposite>        <feMerge>            <feMergeNode in="OUTLINE"></feMergeNode>            <feMergeNode in="SourceGraphic"></feMergeNode>        </feMerge>            <feColorMatrix type="matrix" values="0   0   0   0   0                0   1   0   0   0                0   0   0   0   0                0   0   0   1   0 "></feColorMatrix>    </filter></defs></svg>