<svg xmlns="http://www.w3.org/2000/svg" viewBox="0 0 500 500"><g id="freepik--background-simple--inject-129"><path d="M273.58,319.15c53.14,5.27,93.11,21.39,137.25-18.83,29.79-27.15,49.74-72.46,36.84-111.72-23.35-71-114-130.76-202.41-92.5-43.19,18.69-61.19,60.44-105.12,85.56S59.78,230.08,67.29,288.88c4.81,37.66,35.33,77.78,76.59,76.29C193.75,363.37,213.87,313.23,273.58,319.15Z" style="fill:#E45C3A"></path><path d="M273.58,319.15c53.14,5.27,93.11,21.39,137.25-18.83,29.79-27.15,49.74-72.46,36.84-111.72-23.35-71-114-130.76-202.41-92.5-43.19,18.69-61.19,60.44-105.12,85.56S59.78,230.08,67.29,288.88c4.81,37.66,35.33,77.78,76.59,76.29C193.75,363.37,213.87,313.23,273.58,319.15Z" style="fill:#fff;opacity:0.9"></path></g><g id="freepik--photo-album--inject-129"><path d="M259,319.67l178-5.49a2.81,2.81,0,0,0,2.69-2.69L444,149.21a2.45,2.45,0,0,0-2.55-2.53l-178,5.49Z" style="fill:#263238"></path><path d="M69.22,294.85l177.26,24.49,4.35-167.5L73.58,127.35a2.3,2.3,0,0,0-2.68,2.25L66.69,291.88A3,3,0,0,0,69.22,294.85Z" style="fill:#263238"></path><path d="M259,319.67a20.32,20.32,0,0,0-12.55-.33l4.35-167.5a20.39,20.39,0,0,1,12.55.33Z" style="fill:#263238"></path><rect x="442.19" y="184.67" width="7.68" height="1" transform="translate(249.2 626.18) rotate(-88.49)" style="fill:#E45C3A"></rect><rect x="437.57" y="165.55" width="17.91" height="1" transform="translate(268.8 608.06) rotate(-88.49)" style="fill:#E45C3A"></rect><path d="M259.12,316.17l178-5.49a2.81,2.81,0,0,0,2.68-2.69l4.22-162.28a2.45,2.45,0,0,0-2.55-2.53l-178,5.49Z" style="fill:#E45C3A"></path><polygon points="259.21 312.67 429.84 309.88 434.01 149.38 263.38 152.17 259.21 312.67" style="fill:#fff"></polygon><polygon points="259.21 312.67 429.84 309.88 434.01 149.38 263.38 152.17 259.21 312.67" style="fill:#E45C3A;opacity:0.4"></polygon><polygon points="259.21 312.67 433.19 307.3 437.36 146.8 263.38 152.17 259.21 312.67" style="fill:#fff"></polygon><polygon points="259.21 312.67 433.19 307.3 437.36 146.8 263.38 152.17 259.21 312.67" style="fill:#E45C3A;opacity:0.1"></polygon><path d="M69.31,291.35l177.26,24.49,4.35-167.49L73.67,123.85A2.29,2.29,0,0,0,71,126.11L66.78,288.38A3,3,0,0,0,69.31,291.35Z" style="fill:#E45C3A"></path><polygon points="75.49 290.75 246.66 312.35 250.83 151.84 79.67 130.25 75.49 290.75" style="fill:#fff"></polygon><polygon points="75.49 290.75 246.66 312.35 250.83 151.84 79.67 130.25 75.49 290.75" style="fill:#E45C3A;opacity:0.4"></polygon><polygon points="73.44 288.41 246.66 312.35 250.83 151.84 77.62 127.91 73.44 288.41" style="fill:#fff"></polygon><polygon points="73.44 288.41 246.66 312.35 250.83 151.84 77.62 127.91 73.44 288.41" style="fill:#E45C3A;opacity:0.1"></polygon><path d="M259.12,316.17a20.39,20.39,0,0,0-12.55-.33l4.35-167.49a20.31,20.31,0,0,1,12.55.32Z" style="fill:#E45C3A"></path><path d="M265.92,161.32a2.21,2.21,0,0,1-.71-.12,26.77,26.77,0,0,0-16.67-.44,2.15,2.15,0,0,1-1.22-4.12,31.13,31.13,0,0,1,19.32.5,2.15,2.15,0,0,1-.72,4.18Z" style="fill:#fff"></path><path d="M265.39,181.89a2,2,0,0,1-.72-.13,26.81,26.81,0,0,0-16.66-.43,2.15,2.15,0,1,1-1.23-4.12,31,31,0,0,1,19.33.5,2.15,2.15,0,0,1-.72,4.18Z" style="fill:#fff"></path><path d="M264.85,202.45a2.25,2.25,0,0,1-.71-.12,26.77,26.77,0,0,0-16.67-.44,2.15,2.15,0,0,1-1.22-4.12,31.05,31.05,0,0,1,19.32.5,2.15,2.15,0,0,1-.72,4.18Z" style="fill:#fff"></path><path d="M264.32,223a2.27,2.27,0,0,1-.72-.12,26.81,26.81,0,0,0-16.66-.43,2.15,2.15,0,1,1-1.22-4.13,31.13,31.13,0,0,1,19.32.5,2.15,2.15,0,0,1-.72,4.18Z" style="fill:#fff"></path><path d="M263.79,243.58a2,2,0,0,1-.72-.13A26.84,26.84,0,0,0,246.4,243a2.15,2.15,0,0,1-1.22-4.12,31.05,31.05,0,0,1,19.32.5,2.15,2.15,0,0,1-.71,4.18Z" style="fill:#fff"></path><path d="M263.25,264.14a2.27,2.27,0,0,1-.72-.12,26.74,26.74,0,0,0-16.66-.44,2.15,2.15,0,1,1-1.22-4.12A31.05,31.05,0,0,1,264,260a2.15,2.15,0,0,1-.72,4.18Z" style="fill:#fff"></path><path d="M262.72,284.7a2.27,2.27,0,0,1-.72-.12,26.84,26.84,0,0,0-16.67-.43,2.15,2.15,0,0,1-1.22-4.13,31.12,31.12,0,0,1,19.32.5,2.15,2.15,0,0,1-.71,4.18Z" style="fill:#fff"></path><path d="M262.18,305.27a2,2,0,0,1-.72-.13,26.81,26.81,0,0,0-16.66-.43,2.15,2.15,0,1,1-1.22-4.12,31.05,31.05,0,0,1,19.32.5,2.15,2.15,0,0,1-.72,4.18Z" style="fill:#fff"></path><polygon points="276.86 293.54 349.98 286.16 346.2 220.06 273.07 227.44 276.86 293.54" style="fill:#fff"></polygon><path d="M293.41,231.77a.32.32,0,0,1,.25.3h0l1,.07a6.53,6.53,0,0,1,2.53.76c.17,0,.33-.09.49-.15a7.4,7.4,0,0,1,3.1-.67c1.57.27,1.56,1.33,2.87,1.46s1.51.84.42.85l-5.11,0a8.77,8.77,0,0,1,1.56,3.72,2.54,2.54,0,0,1,1.49.35h0a.71.71,0,0,1,.09.07,1.88,1.88,0,0,1,.23.16,1.34,1.34,0,0,1,.21.2l.12.12a2,2,0,0,1,.26.39.94.94,0,0,1,.06.15,2.06,2.06,0,0,1,.12.26h0l0,.09a2.82,2.82,0,0,1-1.52,3.25,20.78,20.78,0,0,1,.76,2.67l1.25-.12,11.63.14.07,1.55v.18l.07,1.7v.17l.08,1.71v.17l0,.56,3-.3,1.81,1.59.22,5,1.45-.15,7.57-.76.16,3.71,1.42-.15,0-.61v-.15l-.07-1.46v-.15l-.07-1.46v-.16l-.07-1.46v-.15l-.06-1.46v-.15l-.06-1.46V252l-.06-1.46v-.16l-.06-1.32,1.91-2.72,7.86-.8.17,3.85v.15l.07,1.46v.15l.06,1.46v.15l.06,1.47v.15l.06,1.46V256l.07,1.46v.15l.07,1.46v.16l.07,1.46v.15l.06,1.46v.15l.06,1.46v.15l.05,1.09a2.11,2.11,0,0,1,.21,1.68l-.12.41v.05l.07,1.46v.15l.06,1.46v.15l0,1,.23,0-.06-1.42,3.16-.32-1.6-35.81L338,234c-2.57,0-.15-.46.27-.64h0a4.76,4.76,0,0,1,3.4-.24,2.61,2.61,0,0,0,1.48.11l-.41-9.18-49.49,5A3.27,3.27,0,0,1,293.41,231.77Zm30.65,4.44a4.89,4.89,0,0,1,4.59,2.95,8.43,8.43,0,0,1,1.86-.56c1.6-.25,1.58,1,3.68,1,1.69,0,2.91.85,1.18.87l-6.35.06a5.09,5.09,0,0,1,0,.88,5.63,5.63,0,0,1-5.5,5.3,4.91,4.91,0,0,1-5-5.21A5.61,5.61,0,0,1,324.06,236.21Z" style="fill:#E45C3A;opacity:0.2"></path><path d="M281,289.09c.06-.56.13-1.12.21-1.69-.14-1.22-.26-2.45-.29-3.67a49.61,49.61,0,0,1,.09-5l0-.43a2.94,2.94,0,0,1-.36-.34c.72-4.77,1.44-7.47,2.53-9.23-2.55-2.68.56-8.14-1.37-15.44-2.15-8.17-2.31-11.68-.52-15.21a10,10,0,0,1,2.88-3.47h-.17c-.88,0-.06-.53,1.11-.72a.32.32,0,0,1,.13-.36,2.68,2.68,0,0,1-.38-3.64l-8.07.82,2.61,58.57Z" style="fill:#E45C3A;opacity:0.2"></path><path d="M341.68,271.49l-.23,0,0-1v-.15l-.06-1.46v-.15l-.07-1.46v-.05l-.41,1.44a2.43,2.43,0,0,1-1.39,1.55l-3.13,1.27a34.17,34.17,0,0,1-2.84,9.43,15.71,15.71,0,0,1-1.6,2.61l-.37.44,13.83-1.4-.57-12.85-3.16.32Z" style="fill:#fff"></path><path d="M341.12,264.08v-.15l-.06-1.46v-.15l-.06-1.46v-.15l-.07-1.46v-.16l-.07-1.46v-.15l-.07-1.46v-.15l-.06-1.46v-.15l-.06-1.47v-.15l-.06-1.46V251l-.07-1.46v-.15l-.17-3.85-7.86.8-1.91,2.72.06,1.32v.16l.06,1.46v.15l.06,1.46v.15l.06,1.46v.15l.07,1.46V257l.07,1.46v.15l.07,1.46v.15l0,.61-1.42.15-.16-3.71-7.57.76-1.45.15-.22-5-1.81-1.59-3,.3,0-.56v-.17l-.08-1.71v-.17l-.07-1.7v-.18l-.07-1.55-11.63-.14-1.25.12c.09.46.18.92.23,1.35a7.76,7.76,0,0,1,.06,1.07c2.4,4.24,6.22,9,6.08,11.91a9,9,0,0,1,4,1.68c2.33,1.53,4.87,4,8.25,7.52a4.74,4.74,0,0,1-.63,1.77c1.95,2,3.88,3.94,5.8,5.92l.83.86c.17-.2.35-.41.53-.64a67.22,67.22,0,0,0,4.7-7.72l.07-.11a1.13,1.13,0,0,1,.13-.2,17,17,0,0,1,3.18-4.63l.76-1a1.89,1.89,0,0,1,2.61-.43l1.81,1.39a1.76,1.76,0,0,1,.44.5Z" style="fill:#fff"></path><path d="M320.34,283.17l-.71-.63c.22.75.45,1.59.67,2.59l2.07-.21-.19-.16Z" style="fill:#fff"></path><path d="M285.18,233.89s0,0,0,0c-1.17.19-2,.73-1.11.72h.17c.32-.24.64-.46,1-.66Z" style="fill:#fff"></path><path d="M298.9,234.45l5.11,0c1.09,0,.88-.72-.42-.85s-1.3-1.19-2.87-1.46a7.4,7.4,0,0,0-3.1.67c-.16.06-.32.1-.49.15A5.7,5.7,0,0,1,298.9,234.45Z" style="fill:#fff"></path><path d="M341.67,233.1a4.76,4.76,0,0,0-3.4.24h0c-.42.18-2.84.66-.27.64l5.2-.05,0-.73A2.61,2.61,0,0,1,341.67,233.1Z" style="fill:#fff"></path><path d="M323.56,246.71a5.63,5.63,0,0,0,5.5-5.3,5.09,5.09,0,0,0,0-.88l6.35-.06c1.73,0,.51-.89-1.18-.87-2.1,0-2.08-1.25-3.68-1a8.43,8.43,0,0,0-1.86.56,4.89,4.89,0,0,0-4.59-2.95,5.61,5.61,0,0,0-5.5,5.29A4.91,4.91,0,0,0,323.56,246.71Z" style="fill:#fff"></path><path d="M293.33,232.39h-.11l-2.05.49a1.54,1.54,0,0,1,.45.84,8.82,8.82,0,0,1,5.6,2.53,3.16,3.16,0,0,1,1.95.52.27.27,0,0,1,.08.4.25.25,0,0,1-.18.12.27.27,0,0,1-.23,0,2.59,2.59,0,0,0-1-.38,15.08,15.08,0,0,1,1.37,1.69,3.72,3.72,0,0,1,.57-.27l.34-.07h.05a1.54,1.54,0,0,1,.3,0,8.77,8.77,0,0,0-1.56-3.72,5.7,5.7,0,0,0-1.77-1.54,6.53,6.53,0,0,0-2.53-.76l-1-.07A.31.31,0,0,1,293.33,232.39Z" style="fill:#263238"></path><path d="M286.39,265.93a6.82,6.82,0,0,1,1.11-.57l.68-.26-.07,0a.29.29,0,0,1-.39-.17.34.34,0,0,1,.19-.44.69.69,0,0,1,.55,0,3.64,3.64,0,0,1,.51.29c.51-.2,1-.39,1.57-.57l.65-.22c1.32-2.37,0-6.5-1.51-9.78a9.14,9.14,0,0,1-3.21-3,1.29,1.29,0,0,1-.34,0,3.81,3.81,0,0,1-2.28-1.5c-.22.19-.44.39-.67.57-3.44-4.59-1.93-13.88,5-16.72-1.85.4-2.2.43-2.2.43l-.1-.05-.27.11a.31.31,0,0,1-.13,0,.32.32,0,0,1-.27-.16c-.33.2-.65.42-1,.66a10,10,0,0,0-2.88,3.47c-1.79,3.53-1.63,7,.52,15.21,1.93,7.3-1.18,12.76,1.37,15.44A7.59,7.59,0,0,1,286.39,265.93Z" style="fill:#263238"></path><path d="M302.6,248.3a7.4,7.4,0,0,1-5.52,7,.49.49,0,0,0,0,.12c0,.17,0,.33,0,.5s0,.26.05.39c0,.28.09.55.15.82.49,2.12,1.75,3.8,5.09,3.59l.14,0c1-.2,2-.39,3-.55a9.64,9.64,0,0,1,3.08,0C308.82,257.28,305,252.54,302.6,248.3Z" style="fill:#263238"></path><path d="M289.88,284.18c0,1.24,0,2.47.08,3.68l0,.33,1.46-.15C291,286.86,290.52,285.59,289.88,284.18Z" style="fill:#fff"></path><path d="M281.25,287.4c-.08.57-.15,1.13-.21,1.69l.42,0c0-.08,0-.16,0-.25C281.35,288.34,281.31,287.87,281.25,287.4Z" style="fill:#fff"></path><path d="M333.49,281a34.17,34.17,0,0,0,2.84-9.43h0a4.07,4.07,0,0,1-3.75-.31l-.67-.44a8.38,8.38,0,0,1,.49-1.49,1.13,1.13,0,0,0-.13.2l-.07.11a67.22,67.22,0,0,1-4.7,7.72c-.18.23-.36.44-.53.64l-.83-.86c-1.92-2-3.85-4-5.8-5.92a17.4,17.4,0,0,1-2.72,3.44c.11.6.23,1.23.35,1.91a57.68,57.68,0,0,0,1.69,6l.71.63,1.84,1.59.19.16,9.15-.92.37-.44A15.71,15.71,0,0,0,333.49,281Zm-7.43-2.19.11,0a2,2,0,0,1-.32.21C325.76,279,325.78,278.87,326.06,278.76Z" style="fill:#b65b52"></path><path d="M312.69,261.89a7.77,7.77,0,0,1,2.86,4.1c.54,1.95,1.22,4.37,2,8.63a17.4,17.4,0,0,0,2.72-3.44,4.74,4.74,0,0,0,.63-1.77C317.56,265.92,315,263.42,312.69,261.89Z" style="fill:#E45C3A"></path><path d="M297.5,285.51l.09-.06a2.18,2.18,0,0,1,.47-.21l1.54-3a2.42,2.42,0,0,1,1.66-1.26l.58-.11c-4.19-7.49-12.36-15.34-13.66-15.73l-.68.26a6.82,6.82,0,0,0-1.11.57l.9-.45c5.48,4,3.35,15.76,3.35,15.76l-.66-.08c0,.83-.08,1.66-.1,2.49v.53c.64,1.41,1.15,2.68,1.57,3.86l2.29-.23.64-.37Z" style="fill:#E45C3A"></path><path d="M317.94,276.53c-.12-.68-.24-1.31-.35-1.91-.82-4.26-1.5-6.68-2-8.63a7.77,7.77,0,0,0-2.86-4.1,9,9,0,0,0-4-1.68,9.64,9.64,0,0,0-3.08,0c-1,.16-2,.35-3,.55.81.16,4.86,1.13-1.84,3.48-10.55,3.69-9.55-.18-9.55-.18a.08.08,0,0,1,0-.05l-.65.22c-.53.18-1.06.37-1.57.57,2.59,1.67,9.75,9,13.54,15.9l.63-.13a2,2,0,0,1,2.11.84l1.22,1.93a1.89,1.89,0,0,1-.65,2.57l-1,.68-.13.11h0l15.61-1.58c-.22-1-.45-1.84-.67-2.59A57.68,57.68,0,0,1,317.94,276.53Z" style="fill:#E45C3A"></path><path d="M287.91,264.47a.34.34,0,0,0-.19.44.29.29,0,0,0,.39.17l.07,0c1.3.39,9.47,8.24,13.66,15.73l.67-.13c-3.79-6.88-10.95-14.23-13.54-15.9a3.64,3.64,0,0,0-.51-.29A.69.69,0,0,0,287.91,264.47Z" style="fill:#fff"></path><path d="M304.67,286.71h0Z" style="fill:#fff"></path><path d="M297.13,255.93c0,.13,0,.26.05.39C297.16,256.19,297.15,256.06,297.13,255.93Z" style="fill:#b55b52"></path><path d="M297.08,255.31h0s0,.08,0,.12A.49.49,0,0,1,297.08,255.31Z" style="fill:#b55b52"></path><path d="M297.33,257.14a.11.11,0,0,1,0,.05,5.72,5.72,0,0,1-4.62-1.75,10.84,10.84,0,0,1-1.81-.58,12.8,12.8,0,0,1-1.23-.63c1.51,3.28,2.83,7.41,1.51,9.78a.08.08,0,0,0,0,.05s-1,3.87,9.55.18c6.7-2.35,2.65-3.32,1.84-3.48l-.14,0C299.08,260.94,297.82,259.26,297.33,257.14Z" style="fill:#b55b52"></path><path d="M297.09,255.43c0,.17,0,.33,0,.5C297.11,255.76,297.1,255.6,297.09,255.43Z" style="fill:#263238"></path><path d="M297.09,255.43c0,.17,0,.33,0,.5C297.11,255.76,297.1,255.6,297.09,255.43Z" style="opacity:0.2"></path><path d="M297.18,256.32c0,.28.09.55.15.82C297.27,256.87,297.22,256.6,297.18,256.32Z" style="fill:#263238"></path><path d="M297.18,256.32c0,.28.09.55.15.82C297.27,256.87,297.22,256.6,297.18,256.32Z" style="opacity:0.2"></path><path d="M297.34,257.19a.11.11,0,0,0,0-.05c-.06-.27-.11-.54-.15-.82,0-.13,0-.26-.05-.39s0-.33,0-.5,0-.08,0-.12a8.72,8.72,0,0,1-4.35.13A5.72,5.72,0,0,0,297.34,257.19Z" style="fill:#b55b52"></path><path d="M297.34,257.19a.11.11,0,0,0,0-.05c-.06-.27-.11-.54-.15-.82,0-.13,0-.26-.05-.39s0-.33,0-.5,0-.08,0-.12a8.72,8.72,0,0,1-4.35.13A5.72,5.72,0,0,0,297.34,257.19Z" style="opacity:0.2"></path><path d="M300.92,243.42h0a1.75,1.75,0,0,1-.4,0h-.11a2.06,2.06,0,0,1-.35,0l-.12,0-.34-.07-.07,0a2.54,2.54,0,0,1-.8-.45h0l0,0a2.5,2.5,0,0,1-.35-.38,1.63,1.63,0,0,1-.11-.17,2.38,2.38,0,0,1-.2-.39h0a2.58,2.58,0,0,0-1.62.62l0,.09a2.82,2.82,0,0,1-1.86,3.39l-.29.07h0a2.57,2.57,0,0,1-.4.06h-.46l-.12,0a1.87,1.87,0,0,1-.34-.08l-.07,0a2.54,2.54,0,0,1-.8-.45h0l0,0a2.11,2.11,0,0,1-.35-.38,1,1,0,0,1-.11-.17,2.28,2.28,0,0,1-.2-.38s0-.07-.05-.11h0s0-.09-.05-.14a2.83,2.83,0,0,1,1.86-3.39,3.38,3.38,0,0,1,.34-.08h0a2.56,2.56,0,0,1,1.79.31h0l.09.06.23.17a2,2,0,0,1,.21.2,1.36,1.36,0,0,1,.12.12c.05.06.08.12.13.19a3.15,3.15,0,0,1,1.75-.67,2.84,2.84,0,0,1,1.36-2.71,15.08,15.08,0,0,0-1.37-1.69,2.28,2.28,0,0,0-1.16.08.32.32,0,0,1-.4-.15.31.31,0,0,1,.16-.39,2.69,2.69,0,0,1,.79-.16,8.82,8.82,0,0,0-5.6-2.53c.54,2.4-1.43,8.33-4.9,12.91a6.26,6.26,0,0,1,.85,1.61c.48,1.42.05,2.91-1.1,3a9.14,9.14,0,0,0,3.21,3,12.8,12.8,0,0,0,1.23.63,10.84,10.84,0,0,0,1.81.58,8.72,8.72,0,0,0,4.35-.13h0a7.4,7.4,0,0,0,5.52-7,7.76,7.76,0,0,0-.06-1.07c-.05-.43-.14-.89-.23-1.35a20.78,20.78,0,0,0-.76-2.67,3.49,3.49,0,0,1-.34.15Zm-.48,1.71a2.15,2.15,0,0,1-1.57.94l-1.33-3.28A14,14,0,0,0,300.44,245.13ZM290.31,241a2.92,2.92,0,0,1,2.19-1.58.3.3,0,0,1,.33.26.29.29,0,0,1-.27.32,2.37,2.37,0,0,0-1.72,1.28.26.26,0,0,1-.18.14.28.28,0,0,1-.22,0A.29.29,0,0,1,290.31,241Zm7.35,7.61a4.72,4.72,0,0,1-.83.23,4.34,4.34,0,0,1-3.12-.56.14.14,0,0,1,0-.2.15.15,0,0,1,.2,0,4.13,4.13,0,0,0,3.67.29.15.15,0,0,1,.19.09A.14.14,0,0,1,297.66,248.59Z" style="fill:#b55b52"></path><path d="M298,241.82s0-.08,0-.13a2,2,0,0,1-.07-.42,3.15,3.15,0,0,0-1.75.67l.13.2a1.47,1.47,0,0,1,.06.14,2.21,2.21,0,0,1,.12.27h0a2.58,2.58,0,0,1,1.62-.62s0-.07-.05-.11Z" style="fill:#263238"></path><path d="M300.44,245.13a14,14,0,0,1-2.9-2.34l1.33,3.28A2.15,2.15,0,0,0,300.44,245.13Z" style="fill:#a02724"></path><path d="M297.55,248.31a4.13,4.13,0,0,1-3.67-.29.15.15,0,0,0-.2,0,.14.14,0,0,0,0,.2,4.34,4.34,0,0,0,3.12.56,4.72,4.72,0,0,0,.83-.23.14.14,0,0,0,.08-.19A.15.15,0,0,0,297.55,248.31Z" style="fill:#263238"></path><path d="M287.57,248.24a6.26,6.26,0,0,0-.85-1.61,20.09,20.09,0,0,1-2.87,3.08,3.81,3.81,0,0,0,2.28,1.5,1.29,1.29,0,0,0,.34,0C287.62,251.15,288.05,249.66,287.57,248.24Z" style="fill:#b55b52"></path><path d="M290.66,241.4a.26.26,0,0,0,.18-.14,2.37,2.37,0,0,1,1.72-1.28.29.29,0,0,0,.27-.32.3.3,0,0,0-.33-.26,2.92,2.92,0,0,0-2.19,1.58.29.29,0,0,0,.13.4A.28.28,0,0,0,290.66,241.4Z" style="fill:#263238"></path><path d="M296.27,236.8a.32.32,0,0,0,.4.15,2.28,2.28,0,0,1,1.16-.08,2.59,2.59,0,0,1,1,.38.27.27,0,0,0,.23,0,.25.25,0,0,0,.18-.12.27.27,0,0,0-.08-.4,3.16,3.16,0,0,0-1.95-.52,2.69,2.69,0,0,0-.79.16A.31.31,0,0,0,296.27,236.8Z" style="fill:#263238"></path><path d="M304.82,286.59l1-.68a1.89,1.89,0,0,0,.65-2.57l-1.22-1.93a2,2,0,0,0-2.11-.84l-.63.13-.67.13-.58.11a2.42,2.42,0,0,0-1.66,1.26l-1.54,3a2.27,2.27,0,0,1,2.65.95,2.22,2.22,0,0,1,.29.89l3.67-.37h0Z" style="fill:#b55b52"></path><path d="M338.92,263.28a1.89,1.89,0,0,0-2.61.43l-.76,1a17,17,0,0,0-3.18,4.63,8.38,8.38,0,0,0-.49,1.49l.67.44a4.07,4.07,0,0,0,3.75.31h0l3.13-1.27a2.43,2.43,0,0,0,1.39-1.55l.41-1.44.12-.41a2.11,2.11,0,0,0-.21-1.68,1.76,1.76,0,0,0-.44-.5Z" style="fill:#b55b52"></path><path d="M289.88,284.18v-.53c0-.83.06-1.66.1-2.49-1.79-.24-6.79-1.05-8.9-2.89l0,.43a49.61,49.61,0,0,0-.09,5c0,1.22.15,2.45.29,3.67.06.47.1.94.17,1.4,0,.09,0,.17,0,.25l8.53-.86,0-.33C289.89,286.65,289.87,285.42,289.88,284.18Z" style="fill:#b65b52"></path><path d="M298.06,285.24a2.18,2.18,0,0,0-.47.21l-.09.06-3.12,1.93-.64.37,7.26-.73a2.22,2.22,0,0,0-.29-.89A2.27,2.27,0,0,0,298.06,285.24Z" style="fill:#b65b52"></path><path d="M290,281.16l.66.08s2.13-11.71-3.35-15.76l-.9.45a7.59,7.59,0,0,0-3.14,2.77c-1.09,1.76-1.81,4.46-2.53,9.23a2.94,2.94,0,0,0,.36.34C283.19,280.11,288.19,280.92,290,281.16Z" style="fill:#E45C3A"></path><path d="M286.72,246.63c3.47-4.58,5.44-10.51,4.9-12.91a1.54,1.54,0,0,0-.45-.84l-3,.68c-6.93,2.84-8.44,12.13-5,16.72.23-.18.45-.38.67-.57A20.09,20.09,0,0,0,286.72,246.63Z" style="fill:#263238"></path><path d="M285.31,233.5s0,0,0,0a21.11,21.11,0,0,1,8-1.72s.05,0,.07,0a3.27,3.27,0,0,0-.16-2.75l-8.32.84A2.68,2.68,0,0,0,285.31,233.5Z" style="fill:#263238"></path><path d="M293.22,232.39h0a20.41,20.41,0,0,0-7.34,1.55l.1.05s.35,0,2.2-.43l3-.68Z" style="fill:#263238"></path><path d="M285.21,233.92a.32.32,0,0,0,.27.16.31.31,0,0,0,.13,0l.27-.11a20.41,20.41,0,0,1,7.34-1.55h.11a.31.31,0,0,0,.32-.31h0a.32.32,0,0,0-.25-.3s0,0-.07,0a21.11,21.11,0,0,0-8,1.72s0,0,0,0a.32.32,0,0,0-.13.36s0,0,0,0Z" style="fill:#E45C3A"></path><path d="M293.13,241a2.83,2.83,0,0,0-1.86,3.39s0,.09.05.14l2.15-3.61A3.38,3.38,0,0,0,293.13,241Z" style="fill:#263238"></path><path d="M291.57,245a2.28,2.28,0,0,1-.2-.38A2.28,2.28,0,0,0,291.57,245Z" style="fill:#263238"></path><path d="M292,245.56a2.11,2.11,0,0,1-.35-.38A2.11,2.11,0,0,0,292,245.56Z" style="fill:#263238"></path><path d="M293.27,246.14a1.87,1.87,0,0,1-.34-.08A1.87,1.87,0,0,0,293.27,246.14Z" style="fill:#263238"></path><path d="M293.74,246.17a2,2,0,0,1-.35,0Z" style="fill:#263238"></path><path d="M294.25,246.11a2.57,2.57,0,0,1-.4.06A2.57,2.57,0,0,0,294.25,246.11Z" style="fill:#263238"></path><path d="M295.31,241.2a2.56,2.56,0,0,0-1.79-.31,2.66,2.66,0,0,1,1.29.08l-2.75,4.62a2.54,2.54,0,0,0,.8.45l-.35-.14Z" style="fill:#263238"></path><path d="M295.4,241.26l.23.17Z" style="fill:#263238"></path><path d="M295.84,241.63a1.36,1.36,0,0,1,.12.12A1.36,1.36,0,0,0,295.84,241.63Z" style="fill:#263238"></path><path d="M294.28,246.11l.29-.07a2.82,2.82,0,0,0,1.86-3.39l0-.09h0Z" style="fill:#263238"></path><path d="M296.22,242.14a1.47,1.47,0,0,1,.06.14A1.47,1.47,0,0,0,296.22,242.14Z" style="fill:#263238"></path><path d="M294.81,241a2.66,2.66,0,0,0-1.29-.08h0l-2.15,3.61h0s0,.07.05.11a2.28,2.28,0,0,0,.2.38,1,1,0,0,0,.11.17,2.11,2.11,0,0,0,.35.38l0,0h0Z" style="fill:#263238;opacity:0.9"></path><path d="M296.39,242.55h0a2.21,2.21,0,0,0-.12-.27,1.47,1.47,0,0,0-.06-.14l-.13-.2c0-.07-.08-.13-.13-.19a1.36,1.36,0,0,0-.12-.12,2,2,0,0,0-.21-.2l-.23-.17-.09-.06h0l-2.8,4.7.35.14.07,0a1.87,1.87,0,0,0,.34.08l.12,0a2,2,0,0,0,.35,0h.11a2.57,2.57,0,0,0,.4-.06h0Z" style="fill:#263238;opacity:0.9"></path><path d="M302.48,238.94l.12.12Z" style="fill:#263238"></path><path d="M302.86,239.45a.94.94,0,0,1,.06.15A.94.94,0,0,0,302.86,239.45Z" style="fill:#263238"></path><path d="M302,238.58a1.88,1.88,0,0,1,.23.16A1.88,1.88,0,0,0,302,238.58Z" style="fill:#263238"></path><path d="M301.45,238.29l-2.75,4.61a2.54,2.54,0,0,0,.8.45,2.55,2.55,0,0,1-.35-.14l2.8-4.69a2.54,2.54,0,0,0-1.49-.35,1.54,1.54,0,0,0-.3,0A2.44,2.44,0,0,1,301.45,238.29Z" style="fill:#263238"></path><path d="M300.92,243.42l.29-.06a3.49,3.49,0,0,0,.34-.15,2.82,2.82,0,0,0,1.52-3.25l0-.09Z" style="fill:#263238"></path><path d="M300.89,243.43a1.75,1.75,0,0,1-.4,0A1.75,1.75,0,0,0,300.89,243.43Z" style="fill:#263238"></path><path d="M300.38,243.49a2.06,2.06,0,0,1-.35,0A2.06,2.06,0,0,0,300.38,243.49Z" style="fill:#263238"></path><path d="M299.57,243.38l.34.07Z" style="fill:#263238"></path><path d="M298.67,242.88a2.5,2.5,0,0,1-.35-.38A2.5,2.5,0,0,0,298.67,242.88Z" style="fill:#263238"></path><path d="M298.21,242.33a2.38,2.38,0,0,1-.2-.39A2.38,2.38,0,0,0,298.21,242.33Z" style="fill:#263238"></path><path d="M297.84,241.27a2,2,0,0,0,.07.42c0,.05,0,.09,0,.13l2.15-3.6-.34.07a3.72,3.72,0,0,0-.57.27A2.84,2.84,0,0,0,297.84,241.27Z" style="fill:#263238"></path><path d="M298,241.82h0s0,.07.05.11h0a2.38,2.38,0,0,0,.2.39,1.63,1.63,0,0,0,.11.17,2.5,2.5,0,0,0,.35.38l0,0h0l2.75-4.61a2.44,2.44,0,0,0-1.29-.08h-.05Z" style="fill:#263238;opacity:0.9"></path><path d="M299.15,243.21a2.55,2.55,0,0,0,.35.14l.07,0,.34.07.12,0a2.06,2.06,0,0,0,.35,0h.11a1.75,1.75,0,0,0,.4,0h0l2.11-3.55h0a2.06,2.06,0,0,0-.12-.26.94.94,0,0,0-.06-.15,2,2,0,0,0-.26-.39l-.12-.12a1.34,1.34,0,0,0-.21-.2,1.88,1.88,0,0,0-.23-.16.71.71,0,0,0-.09-.07h0Z" style="fill:#263238;opacity:0.9"></path><polygon points="315.56 250.14 409.6 256.06 421.79 168.59 326.84 160.86 315.56 250.14" style="opacity:0.1"></polygon><polygon points="314.89 247.32 410.62 255.12 422.68 167.88 326.95 160.08 314.89 247.32" style="fill:#fff"></polygon><polygon points="320.35 242.71 406.6 249.73 417.28 172.25 331.03 165.23 320.35 242.71" style="fill:#fff"></polygon><path d="M401.76,181.05a11.72,11.72,0,0,1-2.37-1.1,19.39,19.39,0,0,1-2.19,7.51,11.93,11.93,0,0,0-.41,9.48,4.26,4.26,0,0,1-3.52-4.34c-.89,5.58-2.08,9.5-5.18,12.37a9.77,9.77,0,0,1,3.64,4.4l.32.09a6.56,6.56,0,0,1,4.46,5.9,3.94,3.94,0,0,1-.26,1.28l-13.48-4.37A88.73,88.73,0,0,1,368,231.18c-10.22,9.73-24.76,12.56-37.64,9.27a30.32,30.32,0,0,0-2.13,2.9l32,2.6c.16-.25.31-.52.47-.75,4.74-6.75,17.89-12.42,21.53-16.88a4.42,4.42,0,0,1,7.78,1.92c1.56-1.58,3-3.06,4.24-4.32,5.66-5.89,9.86-11,14.52-14.47a3.4,3.4,0,0,1,3.19-.3l1.78-12.92-14.13-4.58a4.33,4.33,0,0,1-.16-1.23c.06-2.16,1.92-3.31,4.16-2.59a3.9,3.9,0,0,1,.73.31c.94-2.39,3.57-3.49,6.63-2.51a9.77,9.77,0,0,1,3.89,2.49l2.46-17.87-16.76-1.36C400.2,173.82,399.8,176.83,401.76,181.05Z" style="fill:#E45C3A;opacity:0.2"></path><path d="M393.61,244c4.26-2.95,8.49-5.88,11.14-7.86,1.37-1,2.76-2,4.14-3l1.2-8.68c-3.55,4.43-8,9-10.28,11.71A88.23,88.23,0,0,0,393.61,244Z" style="fill:#E45C3A;opacity:0.2"></path><path d="M382.77,212.27l13.48,4.37a3.94,3.94,0,0,0,.26-1.28,6.56,6.56,0,0,0-4.46-5.9l-.32-.09a9.77,9.77,0,0,0-3.64-4.4,14.38,14.38,0,0,1-2.31,1.74C384.84,208.6,383.83,210.46,382.77,212.27Z" style="fill:#fff"></path><path d="M410.93,187.63c-3.06-1-5.69.12-6.63,2.51a3.9,3.9,0,0,0-.73-.31c-2.24-.72-4.1.43-4.16,2.59a4.33,4.33,0,0,0,.16,1.23l14.13,4.58,1.12-8.11A9.77,9.77,0,0,0,410.93,187.63Z" style="fill:#fff"></path><path d="M330.32,240.44a33.75,33.75,0,0,0-2.13,2.91h0a30.32,30.32,0,0,1,2.13-2.9Z" style="fill:#E45C3A;opacity:0.2"></path><path d="M330.32,240.44a33.75,33.75,0,0,0-2.13,2.91h0a30.32,30.32,0,0,1,2.13-2.9Z" style="opacity:0.2"></path><path d="M321.15,236.88l-.8,5.83,7.84.64a33.75,33.75,0,0,1,2.13-2.91A40.26,40.26,0,0,1,321.15,236.88Z" style="fill:#ff8b7b"></path><path d="M321.15,236.88l-.8,5.83,7.84.64a33.75,33.75,0,0,1,2.13-2.91A40.26,40.26,0,0,1,321.15,236.88Z" style="opacity:0.2"></path><path d="M393.08,174.58a48.21,48.21,0,0,1-.27,10.17,14.05,14.05,0,0,1,0,7.28,1.45,1.45,0,0,1-1.66,1.06h0a76.58,76.58,0,0,1-5.3,13.63,14.38,14.38,0,0,0,2.31-1.74c3.1-2.87,4.29-6.79,5.18-12.37a4.26,4.26,0,0,0,3.52,4.34,11.93,11.93,0,0,1,.41-9.48,19.39,19.39,0,0,0,2.19-7.51A31.62,31.62,0,0,1,393.08,174.58Z" style="fill:#263238"></path><path d="M330.33,240.45c12.88,3.29,27.42.46,37.64-9.27a88.73,88.73,0,0,0,14.8-18.91c1.06-1.81,2.07-3.67,3-5.56a76.58,76.58,0,0,0,5.3-13.63,1.27,1.27,0,0,1-.66-.4,1.31,1.31,0,0,1-.27-1.19,10.32,10.32,0,0,0-1.84-9.52,1.39,1.39,0,0,1,.09-1.92,1.37,1.37,0,0,1,1.93,0,11.71,11.71,0,0,1,2.48,4.72,48.21,48.21,0,0,0,.27-10.17c-1.4-1.46-2.82-3-4.27-4.65l-46-3.74a41.55,41.55,0,0,1-6.87,7c-1.47-.93-.27-5.13-.27-5.13a31.88,31.88,0,0,1-6.21,8.34l-8.35,60.5a40.26,40.26,0,0,0,9.17,3.56Zm50.1-44.26c.84-2.2,2.67-3.6,4.08-3.13s1.87,2.64,1,4.84-2.67,3.6-4.08,3.12S379.58,198.39,380.43,196.19Zm-5.89,19.18c-6,1.31-11.94-3.92-11.94-3.92l10.33-18S372.2,206.5,374.54,215.37Zm-15.31-32c.85-2.2,2.68-3.6,4.09-3.13s1.86,2.64,1,4.84-2.68,3.59-4.09,3.12S358.39,185.56,359.23,183.36Zm-2.6-12c6.42-4.28,12.12-2,12.36-1.88a1.28,1.28,0,0,1,.65,1.77,1.45,1.45,0,0,1-1.82.75,11,11,0,0,0-9.77,1.59,1.33,1.33,0,0,1-1.42.08,1.29,1.29,0,0,1-.45-.42A1.4,1.4,0,0,1,356.63,171.36Zm-18.08,28.13.89.68h0l.33.26c.87.66,1.71,1.32,2.52,1.95l.13.1c.79.61,1.54,1.21,2.27,1.79l.53.42,2.16,1.73.3.24,1.85,1.51.35.28,1.85,1.54.35.29,1.6,1.36.14.12,1.58,1.35.3.26c1,.88,1.91,1.68,2.74,2.43l.21.19,1.15,1,.1.09,1,.91.13.12.89.84.12.12.74.73,0,0,.66.66.09.08,1,1v0h0c.56.59.81.89.81.89s-4.5,6.16-12,3.88l-.07,0c-.3-.09-.6-.19-.9-.31l-.07,0a18.18,18.18,0,0,1-4.22-2.41C337.42,215.66,336.53,207.32,338.55,199.49Z" style="fill:#ff8b7b"></path><path d="M335.71,168s-1.2,4.2.27,5.13a41.55,41.55,0,0,0,6.87-7l-11.82-1-1.53,11.15A31.88,31.88,0,0,0,335.71,168Z" style="fill:#263238"></path><path d="M360.25,188.19c1.41.47,3.24-.92,4.09-3.12s.39-4.36-1-4.84-3.24.93-4.09,3.13S358.84,187.72,360.25,188.19Z" style="fill:#263238"></path><path d="M381.45,201c1.41.48,3.24-.92,4.08-3.12s.39-4.36-1-4.84-3.24.93-4.08,3.13S380,200.55,381.45,201Z" style="fill:#263238"></path><path d="M356.63,173.67a1.33,1.33,0,0,0,1.42-.08,11,11,0,0,1,9.77-1.59,1.45,1.45,0,0,0,1.82-.75,1.28,1.28,0,0,0-.65-1.77c-.24-.1-5.94-2.4-12.36,1.88a1.4,1.4,0,0,0-.45,1.89A1.29,1.29,0,0,0,356.63,173.67Z" style="fill:#263238"></path><path d="M392.78,192a14.05,14.05,0,0,0,0-7.28,11.71,11.71,0,0,0-2.48-4.72,1.37,1.37,0,0,0-1.93,0,1.39,1.39,0,0,0-.09,1.92,10.32,10.32,0,0,1,1.84,9.52,1.31,1.31,0,0,0,.27,1.19,1.27,1.27,0,0,0,.66.4h0A1.45,1.45,0,0,0,392.78,192Z" style="fill:#263238"></path><path d="M362.6,211.45s5.93,5.23,11.94,3.92c-2.34-8.87-1.61-21.89-1.61-21.89Z" style="fill:#ff5652"></path><path d="M362,219.12l.74.73Z" style="fill:#263238"></path><path d="M361,218.16l.89.84Z" style="fill:#263238"></path><path d="M359.9,217.13l1,.91Z" style="fill:#263238"></path><path d="M348.07,223.67a18.18,18.18,0,0,0,4.22,2.41,18,18,0,0,1-4.2-2.42c-5.14-3.86-8-7.76-9.36-11.69a14.33,14.33,0,0,1,7.93,3.24c5.14,3.86,8,7.8,9.38,11.71a11.15,11.15,0,0,1-2.71-.48c7.53,2.28,12-3.88,12-3.88s-.25-.3-.81-.89c-1.53.83-3.06,1.66-5.44.49-4.52-3-14.66-12.62-17.18-15.48-1.67-1.75-2.83-3.61-2.49-6.51l-.89-.68C336.53,207.32,337.42,215.66,348.07,223.67Z" style="fill:#263238"></path><path d="M353.26,226.42c-.3-.09-.6-.19-.9-.31C352.66,226.23,353,226.33,353.26,226.42Z" style="fill:#263238"></path><path d="M362.79,219.88l.66.66Z" style="fill:#263238"></path><path d="M349.88,208.45l1.85,1.54Z" style="fill:#263238"></path><path d="M358.65,216l1.15,1Z" style="fill:#263238"></path><path d="M339.77,200.43c.87.66,1.71,1.32,2.52,1.95C341.48,201.75,340.64,201.09,339.77,200.43Z" style="fill:#263238"></path><path d="M355.7,213.37c1,.88,1.91,1.68,2.74,2.43C357.61,215.05,356.7,214.25,355.7,213.37Z" style="fill:#263238"></path><path d="M347.68,206.66l1.85,1.51Z" style="fill:#263238"></path><path d="M345.22,204.69l2.16,1.73Z" style="fill:#263238"></path><path d="M363.54,220.62l1,1Z" style="fill:#263238"></path><path d="M342.42,202.48c.79.61,1.54,1.21,2.27,1.79C344,203.69,343.21,203.09,342.42,202.48Z" style="fill:#263238"></path><path d="M353.82,211.76l1.58,1.35Z" style="fill:#263238"></path><path d="M352.08,210.28l1.6,1.36Z" style="fill:#263238"></path><path d="M346.66,215.21a14.33,14.33,0,0,0-7.93-3.24c1.36,3.93,4.22,7.83,9.36,11.69a18,18,0,0,0,4.2,2.42l.07,0c.3.12.6.22.9.31l.07,0a11.15,11.15,0,0,0,2.71.48C354.66,223,351.8,219.07,346.66,215.21Z" style="fill:#ff5652"></path><path d="M341.93,206.68c2.52,2.86,12.66,12.47,17.18,15.48,2.38,1.17,3.91.34,5.44-.49h0v0l-1-1-.09-.08-.66-.66,0,0-.74-.73-.12-.12-.89-.84-.13-.12-1-.91-.1-.09-1.15-1-.21-.19c-.83-.75-1.74-1.55-2.74-2.43l-.3-.26-1.58-1.35-.14-.12-1.6-1.36-.35-.29-1.85-1.54-.35-.28-1.85-1.51-.3-.24-2.16-1.73-.53-.42c-.73-.58-1.48-1.18-2.27-1.79l-.13-.1c-.81-.63-1.65-1.29-2.52-1.95l-.33-.26h0C339.1,203.07,340.26,204.93,341.93,206.68Z" style="fill:#fff"></path><path d="M399.39,180a11.72,11.72,0,0,0,2.37,1.1c-2-4.22-1.56-7.23-1.24-10.16l-11.71-1c1.45,1.61,2.87,3.19,4.27,4.65A31.62,31.62,0,0,0,399.39,180Z" style="fill:#263238"></path><path d="M408.73,211.45c-4.66,3.45-8.86,8.58-14.52,14.47-1.21,1.26-2.68,2.74-4.24,4.32.45,1.86,0,4.35-2.21,7.25-1.78,2.37-4.17,6-7,10.14l6.83.56c1.9-1.33,3.95-2.76,6-4.18a88.23,88.23,0,0,1,6.2-7.86c2.32-2.68,6.73-7.28,10.28-11.71l1.83-13.29A3.4,3.4,0,0,0,408.73,211.45Z" style="fill:#ff8b7b"></path><path d="M393.61,244c-2.06,1.42-4.11,2.85-6,4.18l19,1.54,2.29-16.61c-1.38,1-2.77,2-4.14,3C402.1,238.13,397.87,241.06,393.61,244Z" style="fill:#ff8b7b"></path><path d="M387.76,237.49c2.18-2.9,2.66-5.39,2.21-7.25a4.42,4.42,0,0,0-7.78-1.92c-3.64,4.46-16.79,10.13-21.53,16.88-.16.23-.31.5-.47.75l20.58,1.68C383.59,243.51,386,239.86,387.76,237.49Z" style="fill:#ff8b7b"></path><polygon points="396.88 163 421.19 191.4 423.78 191.43 424.23 188.55 427.05 188.59 428.14 186.02 430.46 185.63 406.44 157.56 403.68 157.09 402.85 160.11 399.96 160.33 399.57 162.89 396.88 163" style="fill:#E45C3A;opacity:0.1"></polygon><polygon points="304.46 298.42 270.19 282.85 267.75 283.87 268.49 286.62 265.82 287.72 265.84 290.45 263.82 291.73 297.69 307.11 300.47 306.42 300.04 303.39 302.66 302.03 301.99 299.59 304.46 298.42" style="fill:#E45C3A;opacity:0.1"></polygon><polygon points="92.35 226.68 231.21 237.64 228.8 166.4 87.22 157.93 92.35 226.68" style="opacity:0.1"></polygon><polygon points="91.85 227.94 232.97 236.32 229.3 165.14 88.18 156.75 91.85 227.94" style="fill:#fff"></polygon><polygon points="95.56 224.83 228.91 232.75 225.62 168.84 92.27 160.91 95.56 224.83" style="fill:#fff"></polygon><path d="M173.66,180l-.38.26a7.73,7.73,0,0,0-.77.62c-1.66,1.5-2.44,3.56-.53,6.77.75.81,1.49,1.63,2.2,2.45a11.39,11.39,0,0,1,1.58,2.35,38.8,38.8,0,0,0,2-4.38,45.92,45.92,0,0,0,1.87-6.19c.06-.26.11-.53.16-.8l-.62-.24a8.77,8.77,0,0,1-4.82-1.25l-.15.09Z" style="fill:#E45C3A;opacity:0.2"></path><path d="M228.51,224.89,228.2,219c-.23.7-2.14,1.53-2.14,1.53a7,7,0,0,1,.66-1.78,5.15,5.15,0,0,1-1.85-1.25s2.37-.2,3,.39l.28-.2-.9-17.43a21.92,21.92,0,0,1-5.69,3.3c.39,1.32-2.18,4.49-2.18,4.49a12.37,12.37,0,0,1-.62-3.51,10.75,10.75,0,0,1-4.45-.42s3.89-2.45,5.55-2a19,19,0,0,1,7.1-7.46l-.43-8.29a7.51,7.51,0,0,1-1.06.69c.33.75-.89,2.86-.89,2.86a8,8,0,0,1-.66-2,6.19,6.19,0,0,1-2.6.12s2.05-1.79,3-1.67a11.55,11.55,0,0,1,2-3.55l-.71-13.92L215,168.2a4.62,4.62,0,0,1-.3,1.19,4.54,4.54,0,0,1-6.46,2,5.8,5.8,0,0,1-3-3.81l-4-.24a3,3,0,0,1,0,2.24,2.64,2.64,0,0,1-3.75,1.19,3.22,3.22,0,0,1-1.66-3.75l-6.05-.36c0,.21,0,.42-.08.63a4,4,0,0,1,.45,1.41.29.29,0,0,1-.29.34.42.42,0,0,1-.24-.09.44.44,0,0,1-.13-.24.51.51,0,0,0,0-.13c0,.25-.1.51-.17.76a3.44,3.44,0,0,1,.68,1,4.36,4.36,0,0,1-.65,3.43,4,4,0,0,1-2.3,2l-.21,0a1.13,1.13,0,0,1-.32-.05,16.22,16.22,0,0,1-2.28,2.68,4.76,4.76,0,0,1-.25.59c-.57,1.15-1.32,2.63-3.58,2.14,0,.26-.09.52-.15.77a47.25,47.25,0,0,1-1.89,6.28,41.9,41.9,0,0,1-2.24,4.88,9.47,9.47,0,0,1-1,9.45c-.2.78-.4,1.56-.58,2.35-.43,1.91-.87,3.82-1.2,5.74a70.23,70.23,0,0,0-1.21,11.44v1.48a4,4,0,0,0,.42.37,25.68,25.68,0,0,0,4.51,2.7c2.52,1.22,5.24,2.36,8,3.45l6.88.41,2-.49,2.29.75,32.74,1.94-.39-7.54-.35-.28Zm-9.91-43.54a.74.74,0,0,1,1.05-.34.91.91,0,0,1,.45,1.11.75.75,0,0,1-1,.33A.9.9,0,0,1,218.6,181.35Zm-20-4.69a.73.73,0,0,1,1-.33.88.88,0,0,1,.44,1.1.73.73,0,0,1-1,.33A.88.88,0,0,1,198.59,176.66Zm2,12.18c.83-.69,5-2.65,6.82-1.11-.6,2.14-5.34,2.36-6.47,2.15-.18.67-2.08,1.49-2.08,1.49a6.88,6.88,0,0,1,.64-1.7,4.8,4.8,0,0,1-1.77-1.2S200,188.27,200.58,188.84Zm-4.14,5.26c.85-.51,4.89-1.54,6.24.53-.89,2.09-5.14,1.15-6.11.65-.27.66-2.1,1-2.1,1a7.42,7.42,0,0,1,.86-1.62A5.44,5.44,0,0,1,194,193S196,193.36,196.44,194.1Zm-6.62-16.78a1.35,1.35,0,0,1,1.92-.61,1.63,1.63,0,0,1,.82,2,1.35,1.35,0,0,1-1.92.61A1.64,1.64,0,0,1,189.82,177.32Zm-3.2,23.9a.9.9,0,0,1,1.07.52.75.75,0,0,1-.41,1,.88.88,0,0,1-1.06-.53A.74.74,0,0,1,186.62,201.22Zm-3.34,8.94a1.63,1.63,0,0,1-1.95-1,1.35,1.35,0,0,1,.74-1.88,1.62,1.62,0,0,1,2,1A1.37,1.37,0,0,1,183.28,210.16Zm5.28,7.72c-.46,1.12-3.54,1.77-3.54,1.77a12.31,12.31,0,0,1,1.44-2.74,9.08,9.08,0,0,1-2.31-2.86s3.46.6,4.18,1.85c1.44-.87,8.24-2.59,10.52.89C197.35,220.31,190.18,218.72,188.56,217.88Zm8.71-10.43c-.3,1.13-3.5,2.51-3.5,2.51a11.3,11.3,0,0,1,1.08-2.87,8.15,8.15,0,0,1-3-2s3.83-.32,4.82.64c1.4-1.16,8.41-4.47,11.48-1.87C207.16,207.42,199.17,207.8,197.27,207.45Zm19.09,16.73c-.28.69-2.19,1.09-2.19,1.09a7.69,7.69,0,0,1,.9-1.69,5.53,5.53,0,0,1-1.43-1.78s2.14.38,2.59,1.15c.89-.54,5.1-1.6,6.51.55C221.81,225.68,217.37,224.7,216.36,224.18ZM211.44,217c-.09,1.37-3.47,3-3.47,3a12.65,12.65,0,0,1,.59-3.45,12.47,12.47,0,0,1-3.9-2.48s4.34-.37,5.71.8c1.34-1.4,8.68-5.34,12.82-2.18C222.84,217.05,213.71,217.45,211.44,217Z" style="fill:#E45C3A;opacity:0.2"></path><path d="M95.14,184.33c.41-.6,2.43-2.37,4-2.37a1.27,1.27,0,0,1,1.15-1.07l2.89-.23a14.52,14.52,0,0,1,4.5-1.17l0,0a59.47,59.47,0,0,1,5.48-4.5,10.71,10.71,0,0,1-3.16-.88c-.46.58-2.7.68-2.7.68a4.18,4.18,0,0,1,1.5-1.29A6.52,6.52,0,0,1,108,172s2,.51,2.28,1.09a10.77,10.77,0,0,1,5.42.18c.82-.54,1.66-1.07,2.52-1.58a40.32,40.32,0,0,1,12.64-5c.6-.11,1.21-.21,1.84-.27l.94-.1c.42,0,.9,0,1.26,0a21.94,21.94,0,0,1,4,.58,53.79,53.79,0,0,1,6.46,2l.79.32,1.31-.86a7.81,7.81,0,0,1,9.15.89,4.27,4.27,0,0,1,4.75,1.75l1.24,1.77s0-.06.07-.07a4.11,4.11,0,0,1,3.23,0,3.34,3.34,0,0,1,1.08.8,31.32,31.32,0,0,0,2-2.77,13.36,13.36,0,0,1,.3-5.26l-76.36-4.54a3.72,3.72,0,0,1-.49,1.16l1.15,22.38A2.89,2.89,0,0,1,95.14,184.33Zm23-17.7s1,.34,1.21.66c.52-.13,2.85-.15,3.41.86-.68.79-3,0-3.45-.35-.21.29-1.34.26-1.34.26a1.78,1.78,0,0,1,.71-.63A3.92,3.92,0,0,1,118.15,166.63Zm-20.49,9.15c-.06.78-1.69,1.88-1.69,1.88a4.66,4.66,0,0,1,.48-2,6.94,6.94,0,0,1-1.41-1s1.74-.38,2.25.07c.63-.79,3.94-3.22,5.58-1.82C102.54,175.18,98.62,175.88,97.66,175.78Zm-3.89-10.89s3.38.38,4,1.3c1.66-.8,9.17-2.52,11.19.37-2.07,3.06-9.56,2-11.2,1.31-.63,1.09-4.27,1.78-4.27,1.78a7.13,7.13,0,0,1,2.15-2.53A11,11,0,0,1,93.77,164.89Z" style="fill:#E45C3A;opacity:0.2"></path><path d="M163.64,176.59a14.71,14.71,0,0,0,2.83-2.57,2.56,2.56,0,0,0-.93-.73,3.53,3.53,0,0,0-2.69,0l.07.11A4.21,4.21,0,0,1,163.64,176.59Z" style="fill:#E45C3A;opacity:0.2"></path><path d="M171.86,223.25c-.14-.14-.07,0,.11.21A1.9,1.9,0,0,0,171.86,223.25Z" style="fill:#E45C3A;opacity:0.2"></path><path d="M124.28,200.56l-5.41-7.77a4.52,4.52,0,0,1,.88-6.42l16.16-10.54a14.47,14.47,0,0,0-1.69-.43c-.16,0-.19,0-.28-.06h-.6c-.4,0-.82,0-1.24.08a27.91,27.91,0,0,0-5.25,1,54.32,54.32,0,0,0-5.42,1.86c-1.8.73-3.61,1.53-5.39,2.4s-3.6,1.8-5.28,2.71l-.14.07a2.26,2.26,0,0,1-.33.13,2.06,2.06,0,0,1-.64.49l-5.23,2.62-4-.77A1.7,1.7,0,0,1,99,184.23l0-.57a8,8,0,0,1-3.45,1.41c0,.62-1.31,1.69-1.31,1.69a3.26,3.26,0,0,1,.2-1.57,5.14,5.14,0,0,1-1-.37l1.23,23.88C109.55,201.56,119.32,200.46,124.28,200.56Zm-22.59-7.95a.88.88,0,0,1-1.07-.52.75.75,0,0,1,.4-1,.9.9,0,0,1,1.07.53A.74.74,0,0,1,101.69,192.61Zm8.52,4a1.72,1.72,0,0,1-2.45.78,2.1,2.1,0,0,1-1.05-2.59,1.73,1.73,0,0,1,2.46-.78A2.09,2.09,0,0,1,110.21,196.57Z" style="fill:#E45C3A;opacity:0.2"></path><path d="M163.23,225.53c0-.18-.07-.38-.1-.57l0-.39,0-.43-.15-1.7a57.15,57.15,0,0,1,.06-8.28,100.16,100.16,0,0,1-13.11,8.64l-.07,0c-1.09.6-2.19,1.19-3.31,1.75,0,0-1.26,1.16-3.4,3.06l22,1.31a9.47,9.47,0,0,1-1.11-1.53A7.53,7.53,0,0,1,163.23,225.53Z" style="fill:#E45C3A;opacity:0.2"></path><path d="M92.27,160.91l.06,1.19a3.72,3.72,0,0,0,.49-1.16Z" style="fill:#E45C3A"></path><path d="M92.27,160.91l.06,1.19a3.72,3.72,0,0,0,.49-1.16Z" style="fill:#fff;opacity:0.6000000000000001"></path><path d="M93.48,169.65s3.64-.69,4.27-1.78c1.64.65,9.13,1.75,11.2-1.31-2-2.89-9.53-1.17-11.19-.37-.61-.92-4-1.3-4-1.3a11,11,0,0,0,1.86,2.23A7.13,7.13,0,0,0,93.48,169.65Z" style="fill:#E45C3A"></path><path d="M94.29,186.76s1.35-1.07,1.31-1.69a8,8,0,0,0,3.45-1.41l.1-1.53a1,1,0,0,1,0-.17c-1.62,0-3.64,1.77-4,2.37a2.89,2.89,0,0,0-1.66.15l0,.34a5.14,5.14,0,0,0,1,.37A3.26,3.26,0,0,0,94.29,186.76Z" style="fill:#E45C3A"></path><path d="M94.29,186.76s1.35-1.07,1.31-1.69a8,8,0,0,0,3.45-1.41l.1-1.53a1,1,0,0,1,0-.17c-1.62,0-3.64,1.77-4,2.37a2.89,2.89,0,0,0-1.66.15l0,.34a5.14,5.14,0,0,0,1,.37A3.26,3.26,0,0,0,94.29,186.76Z" style="fill:#fff;opacity:0.6000000000000001"></path><path d="M110.23,173.12c-.29-.58-2.28-1.09-2.28-1.09a6.52,6.52,0,0,0,.93,1.45,4.18,4.18,0,0,0-1.5,1.29s2.24-.1,2.7-.68a10.71,10.71,0,0,0,3.16.88c.79-.58,1.59-1.13,2.41-1.67A10.77,10.77,0,0,0,110.23,173.12Z" style="fill:#E45C3A"></path><path d="M110.23,173.12c-.29-.58-2.28-1.09-2.28-1.09a6.52,6.52,0,0,0,.93,1.45,4.18,4.18,0,0,0-1.5,1.29s2.24-.1,2.7-.68a10.71,10.71,0,0,0,3.16.88c.79-.58,1.59-1.13,2.41-1.67A10.77,10.77,0,0,0,110.23,173.12Z" style="fill:#fff;opacity:0.6000000000000001"></path><path d="M97.29,174.74c-.51-.45-2.25-.07-2.25-.07a6.94,6.94,0,0,0,1.41,1,4.66,4.66,0,0,0-.48,2s1.63-1.1,1.69-1.88c1,.1,4.88-.6,5.21-2.86C101.23,171.52,97.92,174,97.29,174.74Z" style="fill:#E45C3A"></path><path d="M97.29,174.74c-.51-.45-2.25-.07-2.25-.07a6.94,6.94,0,0,0,1.41,1,4.66,4.66,0,0,0-.48,2s1.63-1.1,1.69-1.88c1,.1,4.88-.6,5.21-2.86C101.23,171.52,97.92,174,97.29,174.74Z" style="opacity:0.30000000000000004"></path><path d="M118,168.06s1.13,0,1.34-.26c.5.31,2.77,1.14,3.45.35-.56-1-2.89-1-3.41-.86-.18-.32-1.21-.66-1.21-.66a3.92,3.92,0,0,0,.54.8A1.78,1.78,0,0,0,118,168.06Z" style="fill:#E45C3A"></path><path d="M118,168.06s1.13,0,1.34-.26c.5.31,2.77,1.14,3.45.35-.56-1-2.89-1-3.41-.86-.18-.32-1.21-.66-1.21-.66a3.92,3.92,0,0,0,.54.8A1.78,1.78,0,0,0,118,168.06Z" style="opacity:0.30000000000000004"></path><path d="M158.18,171.07l3.52,5.06a7.92,7.92,0,0,1,.67,1.16,7.94,7.94,0,0,0,1.27-.7,4.21,4.21,0,0,0-.72-3.2l-.07-.11,0,0a.32.32,0,0,1-.41-.18.28.28,0,0,1,.1-.34L161.26,171a4.27,4.27,0,0,0-4.75-1.75A9,9,0,0,1,158.18,171.07Z" style="fill:#263238"></path><path d="M158.49,175.69c.83.62,1.68,1.28,2.54,2a5.49,5.49,0,0,0,1.34-.38,7.92,7.92,0,0,0-.67-1.16l-3.52-5.06a9,9,0,0,0-1.67-1.81,7.81,7.81,0,0,0-9.15-.89l-1.31.86a91.52,91.52,0,0,1,10.89,5.12A4.9,4.9,0,0,1,158.49,175.69Z" style="fill:#E45C3A"></path><path d="M158.49,175.69c.83.62,1.68,1.28,2.54,2a5.49,5.49,0,0,0,1.34-.38,7.92,7.92,0,0,0-.67-1.16l-3.52-5.06a9,9,0,0,0-1.67-1.81,7.81,7.81,0,0,0-9.15-.89l-1.31.86a91.52,91.52,0,0,1,10.89,5.12A4.9,4.9,0,0,1,158.49,175.69Z" style="fill:#fff;opacity:0.6000000000000001"></path><path d="M131.58,198.94l.08-.06c.32-.21.63-.43.94-.66l.11-.09c.32-.23.64-.48.95-.73h0c.33-.27.67-.56,1-.85h0a42.63,42.63,0,0,0,7.11-8.61,79.82,79.82,0,0,1-7-11.36l1.12-.74h0l-16.16,10.54a4.52,4.52,0,0,0-.88,6.42l5.41,7.77a16.45,16.45,0,0,1,3.86.41c.84-.45,1.66-.91,2.46-1.4Z" style="fill:#E45C3A"></path><path d="M131.58,198.94l.08-.06c.32-.21.63-.43.94-.66l.11-.09c.32-.23.64-.48.95-.73h0c.33-.27.67-.56,1-.85h0a42.63,42.63,0,0,0,7.11-8.61,79.82,79.82,0,0,1-7-11.36l1.12-.74h0l-16.16,10.54a4.52,4.52,0,0,0-.88,6.42l5.41,7.77a16.45,16.45,0,0,1,3.86.41c.84-.45,1.66-.91,2.46-1.4Z" style="fill:#fff;opacity:0.6000000000000001"></path><path d="M146.3,180.26l-1.5-.72c.33.54.68,1.06,1,1.58C146,180.84,146.15,180.55,146.3,180.26Z" style="fill:#E45C3A"></path><path d="M146.3,180.26l-1.5-.72c.33.54.68,1.06,1,1.58C146,180.84,146.15,180.55,146.3,180.26Z" style="fill:#fff;opacity:0.6000000000000001"></path><path d="M145.83,181.12c-.35-.52-.7-1-1-1.58L141.53,178c-1.78-.77-3.54-1.53-5.19-2.06l-.43-.14-1.12.74a79.82,79.82,0,0,0,7,11.36c.5-.76,1-1.59,1.54-2.45l.88-1.47C144.73,183.1,145.28,182.14,145.83,181.12Z" style="fill:#E45C3A"></path><path d="M145.83,181.12c-.35-.52-.7-1-1-1.58L141.53,178c-1.78-.77-3.54-1.53-5.19-2.06l-.43-.14-1.12.74a79.82,79.82,0,0,0,7,11.36c.5-.76,1-1.59,1.54-2.45l.88-1.47C144.73,183.1,145.28,182.14,145.83,181.12Z" style="fill:#fff;opacity:0.6000000000000001"></path><path d="M145.83,181.12c-.35-.52-.7-1-1-1.58L141.53,178c-1.78-.77-3.54-1.53-5.19-2.06l-.43-.14-1.12.74a79.82,79.82,0,0,0,7,11.36c.5-.76,1-1.59,1.54-2.45l.88-1.47C144.73,183.1,145.28,182.14,145.83,181.12Z" style="fill:#E45C3A;opacity:0.5"></path><path d="M172.52,224a4,4,0,0,1-.42-.37v-1.48a70.23,70.23,0,0,1,1.21-11.44c.33-1.92.77-3.83,1.2-5.74.18-.79.38-1.57.58-2.35a7,7,0,0,1-.49.59c-1.8,1.93-3.37,10.65-9.92,9.53-.46.41-1.05.9-1.72,1.43a57.15,57.15,0,0,0-.06,8.28l.15,1.7,0,.43,0,.39c0,.19.06.39.1.57a7.53,7.53,0,0,0,.73,1.9,9.47,9.47,0,0,0,1.11,1.53L185,230.14c-2.74-1.09-5.46-2.23-8-3.45A25.68,25.68,0,0,1,172.52,224Zm-.66-.74a1.9,1.9,0,0,1,.11.21C171.79,223.25,171.72,223.11,171.86,223.25Z" style="fill:#263238"></path><polygon points="191.89 230.55 193.82 230.67 193.88 230.06 191.89 230.55" style="fill:#ffc3bd"></polygon><polygon points="193.82 230.67 196.17 230.81 193.88 230.06 193.82 230.67" style="fill:#ffc3bd"></polygon><path d="M107.25,182.47a2.5,2.5,0,0,1,.48-3,14.52,14.52,0,0,0-4.5,1.17l1.19,6.07,5.23-2.62a2.06,2.06,0,0,0,.64-.49A2.49,2.49,0,0,1,107.25,182.47Z" style="fill:#ffc3bd"></path><path d="M100.34,180.89A1.27,1.27,0,0,0,99.19,182a1,1,0,0,0,0,.17l-.1,1.53,0,.57a1.7,1.7,0,0,0,1.36,1.73l4,.77-1.19-6.07Z" style="fill:#ffc3bd"></path><path d="M146.69,223.43a4.49,4.49,0,0,1-.22,1.16c1.12-.56,2.22-1.15,3.31-1.75-.76.42-1.53.83-2.32,1.23C147.21,223.88,147,223.66,146.69,223.43Z" style="fill:#E45C3A"></path><path d="M172,187.63a13.66,13.66,0,0,0,.88,1.31s2.62,5.86-4,7.32a40.47,40.47,0,0,0-5.77-14l-.42.19c-.6.24-1.22.45-1.85.66A22.28,22.28,0,0,0,158,184.2a16.08,16.08,0,0,0-6.77,7.14,7.44,7.44,0,0,0-.66,5.15c1.07,4,5.74,7.21,9.46,7.81,5.27.85,9-2.66,11.38-5.38a34.16,34.16,0,0,0,4.38-6.49,11.39,11.39,0,0,0-1.58-2.35C173.47,189.26,172.73,188.44,172,187.63Z" style="fill:#E45C3A"></path><path d="M133.67,197.39h0Z" style="fill:#E45C3A"></path><path d="M130.6,199.57h0c-.8.49-1.62,1-2.46,1.4,0,0,2.6,1.92,5.86,4.76C132.54,203.18,131.35,201,130.6,199.57Z" style="fill:#E45C3A"></path><path d="M132.71,198.13l-.11.09Z" style="fill:#E45C3A"></path><path d="M131.66,198.88l-.08.06Z" style="fill:#E45C3A"></path><path d="M144.2,184c.65-1.09,1.21-2.06,2.11-3.75h0c-.15.29-.31.58-.47.86C145.28,182.14,144.73,183.1,144.2,184Z" style="fill:#E45C3A"></path><path d="M171.86,199.33c-2.2,2.54-5.56,5.74-10.25,5.74a11.36,11.36,0,0,1-1.71-.14c-4-.65-8.82-3.92-10-8.28a8.05,8.05,0,0,1,.7-5.59,16.5,16.5,0,0,1,7.06-7.43,22.62,22.62,0,0,1,2.92-1.14c.61-.21,1.22-.41,1.82-.65l.31-.14a36.61,36.61,0,0,0-3-4,4.43,4.43,0,0,0,1.26-.05c-.86-.7-1.71-1.36-2.54-2a5,5,0,0,1-5.85,7.65,24,24,0,0,1-9.43,2.33l.11-.19c-.52.86-1,1.69-1.54,2.45a42.63,42.63,0,0,1-7.11,8.61c2.92,5.35,11.18,20.37,17.4,25-.72.43-1.47.86-2.22,1.27A100.16,100.16,0,0,0,163,214.16c.67-.53,1.26-1,1.72-1.43,6.55,1.12,8.12-7.6,9.92-9.53a7,7,0,0,0,.49-.59,9.47,9.47,0,0,0,1-9.45A34.28,34.28,0,0,1,171.86,199.33Z" style="fill:#E45C3A"></path><path d="M143.32,185.48l.88-1.47Z" style="fill:#E45C3A"></path><path d="M143.32,185.48l.88-1.47Z" style="fill:#fff;opacity:0.6000000000000001"></path><path d="M143.32,185.48l.88-1.47Z" style="fill:#E45C3A;opacity:0.5"></path><path d="M143.32,185.48l.88-1.47Z" style="opacity:0.2"></path><path d="M152.2,183.16c-1.93-1-3.91-1.94-5.89-2.9-.9,1.69-1.46,2.66-2.11,3.75l-.88,1.47-.11.19a24,24,0,0,0,9.43-2.33,2.48,2.48,0,0,1-.35-.13Z" style="fill:#E45C3A"></path><path d="M152.2,183.16c-1.93-1-3.91-1.94-5.89-2.9-.9,1.69-1.46,2.66-2.11,3.75l-.88,1.47-.11.19a24,24,0,0,0,9.43-2.33,2.48,2.48,0,0,1-.35-.13Z" style="opacity:0.2"></path><path d="M173.28,180.24l.38-.26Z" style="fill:#E45C3A"></path><path d="M174.32,179.57h0l-.14.09Z" style="fill:#E45C3A"></path><path d="M163.64,176.59a7.94,7.94,0,0,1-1.27.7,5.49,5.49,0,0,1-1.34.38,4.43,4.43,0,0,1-1.26.05,36.61,36.61,0,0,1,3,4,6.91,6.91,0,0,0,4.08-3.92,4.43,4.43,0,0,0,.15-2.85,3,3,0,0,0-.5-.91A14.71,14.71,0,0,1,163.64,176.59Z" style="fill:#E45C3A"></path><path d="M167.57,174.73a4.93,4.93,0,0,1-.16,3.26,7.38,7.38,0,0,1-4.33,4.25,40.47,40.47,0,0,1,5.77,14c6.63-1.46,4-7.32,4-7.32a13.66,13.66,0,0,1-.88-1.31c-1.91-3.21-1.13-5.27.53-6.77l0,0a9.37,9.37,0,0,1-2.06-5.33,11.74,11.74,0,0,1-1.07-2.59,18.47,18.47,0,0,1-.46-2.23,31.32,31.32,0,0,1-2,2.77A3.4,3.4,0,0,1,167.57,174.73Z" style="fill:#E45C3A"></path><path d="M173.66,180l.51-.32Z" style="fill:#E45C3A;opacity:0.2"></path><path d="M173.66,180l.51-.32Z" style="opacity:0.2"></path><path d="M172.51,180.86a7.73,7.73,0,0,1,.77-.62A7.73,7.73,0,0,0,172.51,180.86Z" style="fill:#E45C3A;opacity:0.2"></path><path d="M172.51,180.86a7.73,7.73,0,0,1,.77-.62A7.73,7.73,0,0,0,172.51,180.86Z" style="opacity:0.2"></path><path d="M172.51,180.86a7.73,7.73,0,0,1,.77-.62l.38-.26.51-.32.14-.09a10.6,10.6,0,0,1-3.9-4,9.37,9.37,0,0,0,2.06,5.33Z" style="fill:#E45C3A"></path><path d="M172.51,180.86a7.73,7.73,0,0,1,.77-.62l.38-.26.51-.32.14-.09a10.6,10.6,0,0,1-3.9-4,9.37,9.37,0,0,0,2.06,5.33Z" style="opacity:0.2"></path><path d="M189.23,169.32l.05.06c.07-.25.12-.51.17-.76a2.59,2.59,0,0,0-.15-.58A7.91,7.91,0,0,1,189.23,169.32Z" style="fill:#E45C3A"></path><path d="M189.76,166.7l-.53,0a4.46,4.46,0,0,1,.45.66C189.71,167.12,189.74,166.91,189.76,166.7Z" style="fill:#E45C3A"></path><path d="M168.88,170.74a18.47,18.47,0,0,0,.46,2.23,11.74,11.74,0,0,0,1.07,2.59,10.6,10.6,0,0,0,3.9,4h0a8.77,8.77,0,0,0,4.82,1.25,12,12,0,0,1-1.45-.75c-2.75-1.64-3.35-3.39-2.86-4.68a8.36,8.36,0,0,1-.56-2,11.21,11.21,0,0,1,1.46-7.56l-6.55-.39A13.36,13.36,0,0,0,168.88,170.74Z" style="fill:#E45C3A"></path><path d="M190.64,179.34a1.35,1.35,0,0,0,1.92-.61,1.63,1.63,0,0,0-.82-2,1.35,1.35,0,0,0-1.92.61A1.64,1.64,0,0,0,190.64,179.34Z" style="fill:#E45C3A;opacity:0.2"></path><path d="M190.64,179.34a1.35,1.35,0,0,0,1.92-.61,1.63,1.63,0,0,0-.82-2,1.35,1.35,0,0,0-1.92.61A1.64,1.64,0,0,0,190.64,179.34Z" style="fill:#E45C3A;opacity:0.30000000000000004"></path><path d="M199,177.76a.73.73,0,0,0,1-.33.88.88,0,0,0-.44-1.1.73.73,0,0,0-1,.33A.88.88,0,0,0,199,177.76Z" style="fill:#E45C3A;opacity:0.2"></path><path d="M199,177.76a.73.73,0,0,0,1-.33.88.88,0,0,0-.44-1.1.73.73,0,0,0-1,.33A.88.88,0,0,0,199,177.76Z" style="fill:#E45C3A;opacity:0.30000000000000004"></path><path d="M219.05,182.45a.75.75,0,0,0,1-.33.91.91,0,0,0-.45-1.11.74.74,0,0,0-1.05.34A.9.9,0,0,0,219.05,182.45Z" style="fill:#E45C3A;opacity:0.2"></path><path d="M219.05,182.45a.75.75,0,0,0,1-.33.91.91,0,0,0-.45-1.11.74.74,0,0,0-1.05.34A.9.9,0,0,0,219.05,182.45Z" style="fill:#E45C3A;opacity:0.30000000000000004"></path><path d="M182.07,207.32a1.35,1.35,0,0,0-.74,1.88,1.63,1.63,0,0,0,1.95,1,1.37,1.37,0,0,0,.74-1.88A1.62,1.62,0,0,0,182.07,207.32Z" style="fill:#E45C3A;opacity:0.2"></path><path d="M182.07,207.32a1.35,1.35,0,0,0-.74,1.88,1.63,1.63,0,0,0,1.95,1,1.37,1.37,0,0,0,.74-1.88A1.62,1.62,0,0,0,182.07,207.32Z" style="fill:#E45C3A;opacity:0.30000000000000004"></path><path d="M187.28,202.77a.75.75,0,0,0,.41-1,.9.9,0,0,0-1.07-.52.74.74,0,0,0-.4,1A.88.88,0,0,0,187.28,202.77Z" style="fill:#E45C3A;opacity:0.2"></path><path d="M187.28,202.77a.75.75,0,0,0,.41-1,.9.9,0,0,0-1.07-.52.74.74,0,0,0-.4,1A.88.88,0,0,0,187.28,202.77Z" style="fill:#E45C3A;opacity:0.30000000000000004"></path><path d="M101,191.06a.75.75,0,0,0-.4,1,.88.88,0,0,0,1.07.52.74.74,0,0,0,.4-1A.9.9,0,0,0,101,191.06Z" style="fill:#E45C3A;opacity:0.2"></path><path d="M101,191.06a.75.75,0,0,0-.4,1,.88.88,0,0,0,1.07.52.74.74,0,0,0,.4-1A.9.9,0,0,0,101,191.06Z" style="fill:#E45C3A;opacity:0.30000000000000004"></path><path d="M197.47,170.81a2.64,2.64,0,0,0,3.75-1.19,3,3,0,0,0,0-2.24l-5.38-.32A3.22,3.22,0,0,0,197.47,170.81Z" style="fill:#E45C3A;opacity:0.2"></path><path d="M197.47,170.81a2.64,2.64,0,0,0,3.75-1.19,3,3,0,0,0,0-2.24l-5.38-.32A3.22,3.22,0,0,0,197.47,170.81Z" style="fill:#E45C3A;opacity:0.30000000000000004"></path><path d="M109.17,194a1.73,1.73,0,0,0-2.46.78,2.1,2.1,0,0,0,1.05,2.59,1.72,1.72,0,0,0,2.45-.78A2.09,2.09,0,0,0,109.17,194Z" style="fill:#E45C3A;opacity:0.2"></path><path d="M109.17,194a1.73,1.73,0,0,0-2.46.78,2.1,2.1,0,0,0,1.05,2.59,1.72,1.72,0,0,0,2.45-.78A2.09,2.09,0,0,0,109.17,194Z" style="fill:#E45C3A;opacity:0.30000000000000004"></path><path d="M208.2,171.43a4.54,4.54,0,0,0,6.46-2,4.62,4.62,0,0,0,.3-1.19l-9.73-.58A5.8,5.8,0,0,0,208.2,171.43Z" style="fill:#E45C3A;opacity:0.2"></path><path d="M208.2,171.43a4.54,4.54,0,0,0,6.46-2,4.62,4.62,0,0,0,.3-1.19l-9.73-.58A5.8,5.8,0,0,0,208.2,171.43Z" style="fill:#E45C3A;opacity:0.30000000000000004"></path><path d="M189.23,169.32a7.91,7.91,0,0,0,.07-1.28,3.16,3.16,0,0,0-1-1.43l-2.4-.14A20.85,20.85,0,0,1,189.23,169.32Z" style="fill:#ffc3bd"></path><path d="M185.08,174.1c-.11-.23-.24-.46-.37-.68a10,10,0,0,1-.51,5.08,16.22,16.22,0,0,0,2.28-2.68C185.87,175.62,185.47,174.85,185.08,174.1Z" style="fill:#ffc3bd"></path><path d="M174.27,173.43a8.36,8.36,0,0,0,.56,2,3.15,3.15,0,0,1,1.88-1.76c1.22-.45,4.49-1.84,6.36-1.72a6.91,6.91,0,0,0-1.25-.26,7.17,7.17,0,0,1-3.62-1.41,4.31,4.31,0,0,1-2-3,2.9,2.9,0,0,1,.2-1.32l-.62,0A11.21,11.21,0,0,0,174.27,173.43Z" style="fill:#ffc3bd"></path><path d="M141.11,227.53l2,.12c2.14-1.9,3.4-3.06,3.4-3.06A17.69,17.69,0,0,1,141.11,227.53Z" style="fill:#263238"></path><path d="M114.12,225.93h.09l0,0Z" style="fill:#263238"></path><path d="M114.19,225.91C130,215.56,128.14,201,128.14,201a16.45,16.45,0,0,0-3.86-.41c-5-.1-14.73,1-29.55,8.14l.83,16.13,18.56,1.1.07,0Z" style="fill:#263238"></path><path d="M189.3,168a2.59,2.59,0,0,1,.15.58.51.51,0,0,1,0,.13.44.44,0,0,0,.13.24.42.42,0,0,0,.24.09.29.29,0,0,0,.29-.34,4,4,0,0,0-.45-1.41,4.46,4.46,0,0,0-.45-.66l-1-.06A3.16,3.16,0,0,1,189.3,168Z" style="fill:#263238"></path><path d="M146.69,223.43c-4.3-3.79-9.24-11.69-12.69-17.7-3.26-2.84-5.86-4.76-5.86-4.76s1.88,14.59-13.95,24.94h0l0,0,26.9,1.6a17.69,17.69,0,0,0,5.36-2.94A4.49,4.49,0,0,0,146.69,223.43Z" style="fill:#E45C3A"></path><path d="M136.34,176c1.65.53,3.41,1.29,5.19,2.06l3.27,1.51,1.5.72h0c2,1,4,1.94,5.89,2.9l.09.05a2.48,2.48,0,0,0,.35.13,5,5,0,0,0,5.85-7.65,4.9,4.9,0,0,0-1.55-1.34,91.52,91.52,0,0,0-10.89-5.12l-.79-.32a53.79,53.79,0,0,0-6.46-2,21.94,21.94,0,0,0-4-.58c-.36,0-.84,0-1.26,0l-.94.1c-.63.06-1.24.16-1.84.27a40.32,40.32,0,0,0-12.64,5c-.86.51-1.7,1-2.52,1.58s-1.62,1.09-2.41,1.67a59.47,59.47,0,0,0-5.48,4.5l0,0a2.48,2.48,0,0,0,2.56,4.13,2.26,2.26,0,0,0,.33-.13l.14-.07c1.68-.91,3.49-1.89,5.28-2.71s3.59-1.67,5.39-2.4a54.32,54.32,0,0,1,5.42-1.86,27.91,27.91,0,0,1,5.25-1c.42,0,.84-.07,1.24-.08h.6c.09,0,.12,0,.28.06a14.47,14.47,0,0,1,1.69.43h0Z" style="fill:#263238"></path><path d="M188.67,173.45a3.7,3.7,0,0,0,.58-2.82,3.28,3.28,0,0,0-.19-.36,15.93,15.93,0,0,1-2.08,4.8A3.64,3.64,0,0,0,188.67,173.45Z" style="fill:#E45C3A;opacity:0.2"></path><path d="M188.67,173.45a3.7,3.7,0,0,0,.58-2.82,3.28,3.28,0,0,0-.19-.36,15.93,15.93,0,0,1-2.08,4.8A3.64,3.64,0,0,0,188.67,173.45Z" style="fill:#E45C3A;opacity:0.5"></path><path d="M178.65,169.64a6.44,6.44,0,0,0,3.28,1.27,5.67,5.67,0,0,1,2,.58,5,5,0,0,1,1.77,2.27c.45.86.76,1.42,1.14,1.35,0,0,.06,0,.1,0a15.93,15.93,0,0,0,2.08-4.8,19.37,19.37,0,0,0-4.62-3.88l-3.48-.21,1.28.41a1.37,1.37,0,0,1-1,0,1.23,1.23,0,0,1-.14.8c-.26.47-.74.68-1.06.47a.91.91,0,0,1-.11-1.22,1,1,0,0,1,.67-.53l-3.49-.21a2.45,2.45,0,0,0-.26,1.22A3.64,3.64,0,0,0,178.65,169.64Zm7.36,1.05a.87.87,0,0,1,.91-.51s0,0,0,0l1.37.44a1.42,1.42,0,0,1-1,.05,1.18,1.18,0,0,1-.14.8c-.26.47-.73.68-1.06.47A1,1,0,0,1,186,170.69Z" style="fill:#ffc3bd"></path><path d="M178.65,169.64a6.44,6.44,0,0,0,3.28,1.27,5.67,5.67,0,0,1,2,.58,5,5,0,0,1,1.77,2.27c.45.86.76,1.42,1.14,1.35,0,0,.06,0,.1,0a15.93,15.93,0,0,0,2.08-4.8,19.37,19.37,0,0,0-4.62-3.88l-3.48-.21,1.28.41a1.37,1.37,0,0,1-1,0,1.23,1.23,0,0,1-.14.8c-.26.47-.74.68-1.06.47a.91.91,0,0,1-.11-1.22,1,1,0,0,1,.67-.53l-3.49-.21a2.45,2.45,0,0,0-.26,1.22A3.64,3.64,0,0,0,178.65,169.64Zm7.36,1.05a.87.87,0,0,1,.91-.51s0,0,0,0l1.37.44a1.42,1.42,0,0,1-1,.05,1.18,1.18,0,0,1-.14.8c-.26.47-.73.68-1.06.47A1,1,0,0,1,186,170.69Z" style="fill:#E45C3A;opacity:0.5"></path><path d="M180,166.69a.91.91,0,0,0,.11,1.22c.32.21.8,0,1.06-.47a1.23,1.23,0,0,0,.14-.8,1.37,1.37,0,0,0,1,0l-1.28-.41-.32,0A1,1,0,0,0,180,166.69Z" style="fill:#263238"></path><path d="M180,166.69a.91.91,0,0,0,.11,1.22c.32.21.8,0,1.06-.47a1.23,1.23,0,0,0,.14-.8,1.37,1.37,0,0,0,1,0l-1.28-.41-.32,0A1,1,0,0,0,180,166.69Z" style="fill:#E45C3A;opacity:0.5"></path><path d="M187.18,171.45a1.18,1.18,0,0,0,.14-.8,1.42,1.42,0,0,0,1-.05l-1.37-.44s0,0,0,0a.87.87,0,0,0-.91.51,1,1,0,0,0,.11,1.23C186.45,172.13,186.92,171.92,187.18,171.45Z" style="fill:#263238"></path><path d="M187.18,171.45a1.18,1.18,0,0,0,.14-.8,1.42,1.42,0,0,0,1-.05l-1.37-.44s0,0,0,0a.87.87,0,0,0-.91.51,1,1,0,0,0,.11,1.23C186.45,172.13,186.92,171.92,187.18,171.45Z" style="fill:#E45C3A;opacity:0.5"></path><path d="M176.15,167.23a4.31,4.31,0,0,0,2,3,7.17,7.17,0,0,0,3.62,1.41,6.91,6.91,0,0,1,1.25.26,2.08,2.08,0,0,1,.89.24,2,2,0,0,1,.75,1.27c.13.22.26.45.37.68.39.75.79,1.52,1.4,1.72a1.13,1.13,0,0,0,.32.05l.21,0a4,4,0,0,0,2.3-2,4.36,4.36,0,0,0,.65-3.43,3.44,3.44,0,0,0-.68-1l-.05-.06a20.85,20.85,0,0,0-3.36-2.85l-1.43-.08a19.37,19.37,0,0,1,4.62,3.88,3.28,3.28,0,0,1,.19.36,3.7,3.7,0,0,1-.58,2.82,3.64,3.64,0,0,1-1.69,1.62s-.07,0-.1,0c-.38.07-.69-.49-1.14-1.35a5,5,0,0,0-1.77-2.27,5.67,5.67,0,0,0-2-.58,6.44,6.44,0,0,1-3.28-1.27,3.64,3.64,0,0,1-1.76-2.47,2.45,2.45,0,0,1,.26-1.22l-.8,0A2.9,2.9,0,0,0,176.15,167.23Z" style="fill:#263238"></path><path d="M184.71,173.42a2,2,0,0,0-.75-1.27,2.08,2.08,0,0,0-.89-.24c-1.87-.12-5.14,1.27-6.36,1.72a3.15,3.15,0,0,0-1.88,1.76c-.49,1.29.11,3,2.86,4.68a12,12,0,0,0,1.45.75l.62.24c.07-.41.13-.82.19-1.26a13.19,13.19,0,0,1,1-3.91.32.32,0,1,1,.57.28,12.45,12.45,0,0,0-.9,3.72c-.06.45-.13.9-.21,1.34,2.26.49,3-1,3.58-2.14a4.76,4.76,0,0,0,.25-.59A10,10,0,0,0,184.71,173.42Z" style="fill:#263238"></path><path d="M134.67,196.54h0c-.32.29-.66.58-1,.85h0c-.31.25-.63.5-.95.73l-.11.09c-.31.23-.62.45-.94.66l-.08.06-1,.63h0c.75,1.4,1.94,3.61,3.4,6.16,3.45,6,8.39,13.91,12.69,17.7.26.23.52.45.77.64.79-.4,1.56-.81,2.32-1.23l.07,0c.75-.41,1.5-.84,2.22-1.27C145.85,216.91,137.59,201.89,134.67,196.54Z" style="fill:#263238"></path><path d="M180.58,179.89a12.45,12.45,0,0,1,.9-3.72.32.32,0,1,0-.57-.28,13.19,13.19,0,0,0-1,3.91c-.06.44-.12.85-.19,1.26s-.1.54-.16.8a45.92,45.92,0,0,1-1.87,6.19,38.8,38.8,0,0,1-2,4.38,34.16,34.16,0,0,1-4.38,6.49c-2.36,2.72-6.11,6.23-11.38,5.38-3.72-.6-8.39-3.76-9.46-7.81a7.44,7.44,0,0,1,.66-5.15A16.08,16.08,0,0,1,158,184.2a22.28,22.28,0,0,1,2.84-1.11c.63-.21,1.25-.42,1.85-.66l.42-.19a7.38,7.38,0,0,0,4.33-4.25,4.93,4.93,0,0,0,.16-3.26,3.4,3.4,0,0,0-.69-1.22,3.34,3.34,0,0,0-1.08-.8,4.11,4.11,0,0,0-3.23,0s0,0-.07.07a.28.28,0,0,0-.1.34.32.32,0,0,0,.41.18l0,0a3.53,3.53,0,0,1,2.69,0,2.56,2.56,0,0,1,.93.73,3,3,0,0,1,.5.91,4.43,4.43,0,0,1-.15,2.85,6.91,6.91,0,0,1-4.08,3.92l-.31.14c-.6.24-1.21.44-1.82.65a22.62,22.62,0,0,0-2.92,1.14,16.5,16.5,0,0,0-7.06,7.43,8.05,8.05,0,0,0-.7,5.59c1.15,4.36,6,7.63,10,8.28a11.36,11.36,0,0,0,1.71.14c4.69,0,8-3.2,10.25-5.74a34.28,34.28,0,0,0,4.23-6.17,41.9,41.9,0,0,0,2.24-4.88,47.25,47.25,0,0,0,1.89-6.28c.06-.25.11-.51.15-.77C180.45,180.79,180.52,180.34,180.58,179.89Z" style="fill:#263238"></path><path d="M188.33,215.9c-.72-1.25-4.18-1.85-4.18-1.85a9.08,9.08,0,0,0,2.31,2.86,12.31,12.31,0,0,0-1.44,2.74s3.08-.65,3.54-1.77c1.62.84,8.79,2.43,10.29-1.09C196.57,213.31,189.77,215,188.33,215.9Z" style="fill:#E45C3A"></path><path d="M210.37,214.89c-1.37-1.17-5.71-.8-5.71-.8a12.47,12.47,0,0,0,3.9,2.48A12.65,12.65,0,0,0,208,220s3.38-1.64,3.47-3c2.27.44,11.4,0,11.75-4.3C219.05,209.55,211.71,213.49,210.37,214.89Z" style="fill:#E45C3A"></path><path d="M210.37,214.89c-1.37-1.17-5.71-.8-5.71-.8a12.47,12.47,0,0,0,3.9,2.48A12.65,12.65,0,0,0,208,220s3.38-1.64,3.47-3c2.27.44,11.4,0,11.75-4.3C219.05,209.55,211.71,213.49,210.37,214.89Z" style="fill:#fff;opacity:0.6000000000000001"></path><path d="M219.85,202.1c-1.66-.43-5.55,2-5.55,2a10.75,10.75,0,0,0,4.45.42,12.37,12.37,0,0,0,.62,3.51s2.57-3.17,2.18-4.49a21.92,21.92,0,0,0,5.69-3.3l-.29-5.62A19,19,0,0,0,219.85,202.1Z" style="fill:#E45C3A"></path><path d="M195.33,194.7a7.42,7.42,0,0,0-.86,1.62s1.83-.38,2.1-1c1,.5,5.22,1.44,6.11-.65-1.35-2.07-5.39-1-6.24-.53C196,193.36,194,193,194,193A5.44,5.44,0,0,0,195.33,194.7Z" style="fill:#E45C3A"></path><path d="M199.49,189.67a6.88,6.88,0,0,0-.64,1.7s1.9-.82,2.08-1.49c1.13.21,5.87,0,6.47-2.15-1.83-1.54-6,.42-6.82,1.11-.59-.57-2.86-.37-2.86-.37A4.8,4.8,0,0,0,199.49,189.67Z" style="fill:#E45C3A"></path><path d="M199.49,189.67a6.88,6.88,0,0,0-.64,1.7s1.9-.82,2.08-1.49c1.13.21,5.87,0,6.47-2.15-1.83-1.54-6,.42-6.82,1.11-.59-.57-2.86-.37-2.86-.37A4.8,4.8,0,0,0,199.49,189.67Z" style="fill:#fff;opacity:0.6000000000000001"></path><path d="M221.31,188a6.19,6.19,0,0,0,2.6-.12,8,8,0,0,0,.66,2s1.22-2.11.89-2.86a7.51,7.51,0,0,0,1.06-.69l-.19-3.59a11.55,11.55,0,0,0-2,3.55C223.36,186.19,221.31,188,221.31,188Z" style="fill:#E45C3A"></path><path d="M221.31,188a6.19,6.19,0,0,0,2.6-.12,8,8,0,0,0,.66,2s1.22-2.11.89-2.86a7.51,7.51,0,0,0,1.06-.69l-.19-3.59a11.55,11.55,0,0,0-2,3.55C223.36,186.19,221.31,188,221.31,188Z" style="fill:#fff;opacity:0.6000000000000001"></path><path d="M216.23,223c-.45-.77-2.59-1.15-2.59-1.15a5.53,5.53,0,0,0,1.43,1.78,7.69,7.69,0,0,0-.9,1.69s1.91-.4,2.19-1.09c1,.52,5.45,1.5,6.38-.68C221.33,221.35,217.12,222.41,216.23,223Z" style="fill:#E45C3A"></path><path d="M216.23,223c-.45-.77-2.59-1.15-2.59-1.15a5.53,5.53,0,0,0,1.43,1.78,7.69,7.69,0,0,0-.9,1.69s1.91-.4,2.19-1.09c1,.52,5.45,1.5,6.38-.68C221.33,221.35,217.12,222.41,216.23,223Z" style="fill:#fff;opacity:0.30000000000000004"></path><path d="M224.87,217.5a5.15,5.15,0,0,0,1.85,1.25,7,7,0,0,0-.66,1.78s1.91-.83,2.14-1.53l-.06-1.31-.28.2C227.24,217.3,224.87,217.5,224.87,217.5Z" style="fill:#E45C3A"></path><path d="M228.17,224.93l.35.28v-.32Z" style="fill:#E45C3A"></path><path d="M228.17,224.93l.35.28v-.32Z" style="fill:#fff;opacity:0.6000000000000001"></path><path d="M208.16,203.83c-3.07-2.6-10.08.71-11.48,1.87-1-1-4.82-.64-4.82-.64a8.15,8.15,0,0,0,3,2,11.3,11.3,0,0,0-1.08,2.87s3.2-1.38,3.5-2.51C199.17,207.8,207.16,207.42,208.16,203.83Z" style="fill:#E45C3A"></path><path d="M208.16,203.83c-3.07-2.6-10.08.71-11.48,1.87-1-1-4.82-.64-4.82-.64a8.15,8.15,0,0,0,3,2,11.3,11.3,0,0,0-1.08,2.87s3.2-1.38,3.5-2.51C199.17,207.8,207.16,207.42,208.16,203.83Z" style="opacity:0.30000000000000004"></path><polygon points="199.01 162.52 231.66 186.41 234.14 186 233.63 183.09 236.35 182.65 236.54 179.94 238.64 179.16 206.38 155.56 203.59 155.56 203.78 158.67 201.08 159.38 201.54 161.96 199.01 162.52" style="fill:#E45C3A;opacity:0.1"></polygon><polygon points="78.92 214.38 111.57 238.27 114.06 237.86 113.55 234.95 116.26 234.51 116.46 231.79 118.56 231.02 86.3 207.42 83.5 207.42 83.69 210.53 80.99 211.24 81.46 213.82 78.92 214.38" style="fill:#E45C3A;opacity:0.1"></polygon><polygon points="202.94 230.36 120.33 281.26 127.53 295.89 246.56 312.33 202.94 230.36" style="fill:#E45C3A;opacity:0.1"></polygon><path d="M403.07,313.87a5.88,5.88,0,0,1-5.75-4.67l-4.74-22.6a5.88,5.88,0,1,1,11.52-2.41l4.73,22.59a5.89,5.89,0,0,1-4.55,7A6.21,6.21,0,0,1,403.07,313.87Zm-4.73-33.61a4.83,4.83,0,0,0-1.06.11,5.14,5.14,0,0,0-4,6.08L398.05,309a5.13,5.13,0,0,0,10.05-2.1l-4.74-22.6A5.13,5.13,0,0,0,398.34,280.26Z" style="fill:#fff"></path><path d="M317.24,269.55c-.06.9-.11,1.8-.16,2.69h0q-.76,13-1.51,26c45.17,15.23,92.53-7.2,137.7,8q.76-13,1.52-26l.15-2.69C409.77,262.35,362.41,284.78,317.24,269.55Zm135.2,7.72,1.68.53c0,.57-.07,1.13-.1,1.7l-1.68-.53C452.38,278.4,452.41,277.84,452.44,277.27Zm-6.32-1.71,1.69.41c0,.57-.07,1.14-.1,1.71-.56-.15-1.13-.28-1.69-.42C446.05,276.7,446.09,276.13,446.12,275.56Zm-6.35-1.28c.57.09,1.13.2,1.7.3,0,.57-.07,1.14-.1,1.7l-1.7-.3C439.71,275.41,439.74,274.85,439.77,274.28Zm-6.36-.9,1.69.2c0,.57-.06,1.14-.1,1.7l-1.69-.2C433.34,274.51,433.37,273.94,433.41,273.38Zm-6.39-.57,1.7.12c0,.57-.07,1.13-.1,1.7l-1.7-.12C427,273.94,427,273.37,427,272.81Zm-6.41-.28,1.71.05c0,.56-.07,1.13-.1,1.7l-1.71,0C420.55,273.66,420.58,273.1,420.61,272.53Zm-6.42,0h1.71c0,.57-.06,1.13-.1,1.7h-1.71C414.13,273.63,414.16,273.06,414.19,272.49Zm-6.43.16,1.72-.06c0,.57-.07,1.14-.1,1.71-.57,0-1.15,0-1.72.06C407.7,273.79,407.73,273.22,407.76,272.65Zm-6.44.32,1.72-.1c0,.57-.07,1.14-.1,1.7l-1.72.1C401.26,274.1,401.29,273.53,401.32,273Zm-6.44.42,1.71-.12c0,.57-.06,1.13-.1,1.7l-1.71.12C394.81,274.52,394.84,274,394.88,273.39Zm-6.45.48,1.71-.13-.09,1.7-1.72.13C388.36,275,388.39,274.44,388.43,273.87Zm-6.45.5,1.71-.13c0,.57-.06,1.13-.1,1.7l-1.71.13C381.91,275.51,381.94,274.94,382,274.37Zm-6.45.47,1.71-.12-.09,1.71-1.72.12C375.46,276,375.5,275.41,375.53,274.84Zm-6.45.4,1.72-.1c0,.57-.07,1.14-.1,1.71l-1.72.09C369,276.38,369.05,275.81,369.08,275.24Zm-6.43.28,1.71-.06c0,.57-.07,1.13-.1,1.7l-1.71.06C362.58,276.65,362.61,276.09,362.65,275.52Zm-6.43.11h1.71c0,.57-.07,1.14-.1,1.7h-1.71C356.15,276.77,356.19,276.2,356.22,275.63Zm-6.42-.1,1.71.05c0,.57-.07,1.14-.1,1.71l-1.71-.05C349.74,276.67,349.77,276.1,349.8,275.53Zm-6.4-.35,1.7.12L345,277l-1.71-.12C343.34,276.32,343.37,275.75,343.4,275.18Zm-6.38-.65,1.7.2c0,.57-.07,1.14-.1,1.71l-1.7-.21C337,275.66,337,275.1,337,274.53Zm-6.36-1c.56.11,1.12.21,1.69.3,0,.57-.07,1.14-.1,1.71l-1.69-.31C330.59,274.67,330.62,274.1,330.66,273.53Zm-6.34-1.39,1.68.41c0,.57-.07,1.14-.1,1.7l-1.68-.41C324.25,273.27,324.28,272.71,324.32,272.14ZM318,270.31l1.68.53c0,.57-.07,1.14-.1,1.71L317.9,272C317.93,271.45,318,270.88,318,270.31Z" style="fill:#263238"></path><path d="M315.41,300.93c45.17,15.23,92.54-7.2,137.71,8l.15-2.69c-45.17-15.22-92.53,7.21-137.7-8C315.51,299.14,315.46,300,315.41,300.93Zm135.36,5,1.68.53c0,.57-.07,1.13-.1,1.7l-1.68-.53C450.71,307.09,450.74,306.52,450.77,306Zm-6.32-1.71,1.69.41c0,.57-.07,1.14-.1,1.7l-1.69-.41C444.38,305.39,444.42,304.82,444.45,304.25ZM438.1,303c.57.09,1.13.2,1.7.3,0,.57-.07,1.14-.1,1.7l-1.69-.3Zm-6.36-.9,1.69.2c0,.57-.06,1.14-.1,1.7l-1.69-.2C431.67,303.2,431.7,302.63,431.74,302.07Zm-6.39-.57,1.7.12c0,.57-.07,1.13-.1,1.7l-1.7-.12C425.28,302.63,425.31,302.06,425.35,301.5Zm-6.41-.28,1.71,0c0,.56-.07,1.13-.1,1.7l-1.71-.05C418.88,302.35,418.91,301.78,418.94,301.22Zm-6.42,0h1.71c0,.57-.06,1.13-.1,1.7h-1.71C412.46,302.32,412.49,301.75,412.52,301.18Zm-6.43.16,1.72-.06c0,.57-.07,1.14-.1,1.71L406,303C406,302.48,406.06,301.91,406.09,301.34Zm-6.44.32,1.72-.1c0,.57-.07,1.14-.1,1.7l-1.72.1C399.59,302.79,399.62,302.22,399.65,301.66Zm-6.44.42,1.71-.12c0,.56-.06,1.13-.1,1.7l-1.71.12C393.14,303.21,393.17,302.64,393.21,302.08Zm-6.45.48,1.71-.13-.09,1.7-1.72.13C386.69,303.7,386.72,303.13,386.76,302.56Zm-6.45.5,1.71-.13c0,.57-.06,1.13-.1,1.7l-1.71.13C380.24,304.2,380.27,303.63,380.31,303.06Zm-6.45.47,1.71-.12-.09,1.71-1.72.12C373.79,304.67,373.83,304.1,373.86,303.53Zm-6.45.4,1.72-.1c0,.57-.07,1.14-.1,1.71l-1.71.09Zm-6.43.28,1.71-.06c0,.57-.07,1.13-.1,1.7l-1.71.06C360.91,305.34,360.94,304.78,361,304.21Zm-6.43.11h1.71c0,.57-.07,1.13-.1,1.7h-1.71C354.48,305.46,354.52,304.89,354.55,304.32Zm-6.42-.1,1.71,0c0,.57-.07,1.14-.1,1.71l-1.71-.05C348.07,305.36,348.1,304.79,348.13,304.22Zm-6.4-.35,1.7.12-.09,1.71-1.71-.12C341.67,305,341.7,304.44,341.73,303.87Zm-6.38-.65,1.7.2c0,.57-.07,1.14-.1,1.71l-1.7-.21C335.28,304.35,335.32,303.79,335.35,303.22Zm-6.36-1c.56.1,1.12.21,1.69.3,0,.57-.07,1.14-.1,1.71l-1.69-.31C328.92,303.35,329,302.79,329,302.22Zm-6.34-1.39,1.68.41c0,.57-.07,1.13-.1,1.7l-1.68-.41C322.58,302,322.61,301.4,322.65,300.83ZM316.33,299l1.68.53c0,.57-.07,1.14-.1,1.71l-1.68-.54C316.26,300.14,316.3,299.57,316.33,299Z" style="fill:#263238"></path><path d="M386.41,302.1l-4,.31q.76-13,1.51-26l4-.31Q387.17,289.09,386.41,302.1Z" style="fill:#fff;opacity:0.1"></path><path d="M410.78,300.71l-4,.11q.76-13,1.52-26l4-.11Q411.54,287.72,410.78,300.71Z" style="fill:#fff;opacity:0.1"></path><path d="M435,302c-1.31-.18-2.62-.34-3.93-.49q.76-13,1.52-26c1.31.15,2.62.31,3.92.49Q435.75,289,435,302Z" style="fill:#fff;opacity:0.1"></path><path d="M362,303.68c-1.33.05-2.65.08-4,.11q.76-13,1.52-26c1.32,0,2.64-.06,4-.11Q362.79,290.69,362,303.68Z" style="fill:#fff;opacity:0.1"></path><path d="M337.78,303c-1.31-.14-2.62-.31-3.93-.49q.75-13,1.51-26c1.31.18,2.62.35,3.93.49Q338.54,290,337.78,303Z" style="fill:#fff;opacity:0.1"></path><path d="M403.07,311.58a3.51,3.51,0,0,1-1.95-.59,3.58,3.58,0,0,1-1.56-2.26L396,291.52a3.58,3.58,0,0,1,5.47-3.73,3.56,3.56,0,0,1,1.55,2.26l3.6,17.2a3.59,3.59,0,0,1-2.77,4.25A3.72,3.72,0,0,1,403.07,311.58ZM399.47,288a2.78,2.78,0,0,0-.58.06,2.85,2.85,0,0,0-2.2,3.36l3.61,17.2a2.84,2.84,0,0,0,3.36,2.19,2.83,2.83,0,0,0,2.19-3.35l-3.61-17.21a2.82,2.82,0,0,0-1.22-1.79A2.89,2.89,0,0,0,399.47,288Z" style="fill:#fff"></path></g></svg>